<svg xmlns="http://www.w3.org/2000/svg" width="568.07" height="391.007" viewBox="0 0 568.07 391.007">
  <g id="Group_278" data-name="Group 278" transform="translate(-193.045 -316.716)">
    <path id="Path_3525" data-name="Path 3525" d="M417.993,65.585c44.8-.949,86.442,18.888,99.508,56.171,7.723,22.036,6.564,48.434,21.218,66.1,14.5,17.48,39.7,20.265,56.16,35.678,12.977,12.15,19.008,31.264,18.181,49.572s-7.915,35.82-17.639,50.992C564.738,371.975,505.509,397.258,452,385.324c-35.649-7.949-68.942-30.755-105.294-28.182-30.769,2.177-57.433,22.177-86.121,34.139C206.634,413.775,142.422,406.4,94.3,372.193c-19.1-13.582-36.113-31.739-44.363-54.466s-6.395-50.433,8.481-69.011c15.109-18.87,42.515-36.357,77.784-30.537,23.1,3.812,68.933,30.639,110.467,23.6,23.086-3.914,78.359-10.61,82.433-98.649C330.777,106.873,357.238,66.871,417.993,65.585Z" transform="translate(147.98 251.164)" fill="#f3f6ff"/>
    <g id="Group_150" data-name="Group 150" transform="translate(227.283 532.023)">
      <path id="Path_441" data-name="Path 441" d="M91.71,323.654c-.408-23.767,2.535-44.324,16.362-64.91a209.4,209.4,0,0,1,23.29-29.214s-.855,19.592-7.813,37.684c-3.976,10.308-8.1,18.737-11.988,29.035A94.929,94.929,0,0,1,97.018,321.5" transform="translate(-8.777 -174.112)" fill="#d7def9"/>
      <path id="Path_442" data-name="Path 442" d="M130.315,230c-1.988,2.783-3.837,5.745-5.7,8.648s-3.7,5.815-5.527,8.737c-3.519,5.646-7.018,11.322-10.417,17.057a128.8,128.8,0,0,0-8.847,17.246,149.329,149.329,0,0,0-6.173,18.936A180.164,180.164,0,0,0,89.5,322.444c-.06.487.706.487.765,0A167.325,167.325,0,0,1,99.719,284a119.352,119.352,0,0,1,8.519-17.346c3.33-5.735,6.819-11.382,10.288-17.028q2.982-4.871,6.034-9.7c1.988-3.221,4.185-6.382,6.113-9.672.139-.239-.209-.427-.358-.209Z" transform="translate(-8.764 -174.115)" fill="#9eaeef"/>
      <path id="Path_443" data-name="Path 443" d="M130.315,230c-1.63,3.27-2.982,6.7-4.433,10.05-1.342,3.1-2.714,6.193-4.175,9.244s-2.982,5.964-4.642,8.837c-1.571,2.694-3.151,5.368-4.573,8.141-2.982,5.885-5.676,11.928-8.171,18.071-1.252,3.072-2.445,6.153-3.708,9.215-1.392,3.35-2.833,6.67-4.264,10-2.614,6.093-5.368,12.256-6.829,18.747-.109.477.626.686.736.2,1.3-5.785,3.648-11.322,5.964-16.769,2.7-6.362,5.4-12.714,7.952-19.135,2.445-6.1,5.04-12.167,7.952-18.061s6.362-11.183,9.195-16.978c1.67-3.41,3.211-6.879,4.712-10.368,1.571-3.658,3.231-7.306,4.632-11.034.089-.219-.278-.368-.378-.159Z" transform="translate(-8.764 -174.115)" fill="#9eaeef"/>
      <path id="Path_445" data-name="Path 445" d="M79.867,330.061S77.5,295.32,82.65,279.187c6.471-20.278,11.342-76.371,16.63-87.017,6.163,14.065,11.68,52.922,8.9,76.262-2.853,23.857-8.887,41.749-25.059,59.93" transform="translate(-8.703 -173.889)" fill="#abb8ef"/>
      <path id="Path_446" data-name="Path 446" d="M99.172,192.169c-.994,8.171-1.809,16.352-2.714,24.533-.994,8.648-1.988,17.286-2.773,25.944-.408,4.344-.736,8.688-1.153,13.032a129.222,129.222,0,0,1-1.988,13.23c-.885,4.364-1.74,8.718-2.415,13.121s-1.2,8.628-1.759,12.922c-1.143,8.777-2.465,17.525-4.4,26.173-.239,1.094-.487,2.187-.706,3.29a.358.358,0,0,0,.686.189c1.163-4.274,1.988-8.668,2.753-13.022s1.392-8.588,1.988-12.922c1.173-8.887,2.227-17.763,3.976-26.55.865-4.274,1.74-8.529,2.256-12.863s.815-8.817,1.213-13.23c.765-8.668,1.66-17.326,2.565-25.984.865-8.3,1.8-16.6,2.515-24.91.089-.994.149-1.988.219-2.982,0-.149-.209-.139-.229,0Z" transform="translate(-8.715 -173.888)" fill="#7281ce"/>
      <path id="Path_447" data-name="Path 447" d="M99.18,192.209a105.8,105.8,0,0,1,2.485,12.823c.517,4.046.815,8.121,1.133,12.187s.805,8.181.924,12.276,0,8.181-.109,12.266-.288,8.161-.586,12.226c-.368,4.891-.994,9.761-1.64,14.622-1.282,9.294-2.575,18.618-6.024,27.415-1.7,4.314-3.668,8.529-5.229,12.922a89.931,89.931,0,0,0-3.747,13.519c-.209,1.123-.378,2.256-.527,3.39,0,.209.288.318.338.089a138.776,138.776,0,0,1,3.5-13.578c1.421-4.473,3.25-8.777,5.06-13.1a82.118,82.118,0,0,0,4.4-13.36c1.044-4.573,1.72-9.2,2.386-13.847s1.322-9.563,1.779-14.364c.417-4.314.6-8.648.775-12.922.159-4.125.288-8.25.249-12.376s-.408-8.091-.755-12.147c-.716-8.27-1.143-16.6-3.2-24.672-.288-1.133-.6-2.266-.994-3.38a.14.14,0,1,0-.268.08Z" transform="translate(-8.742 -173.889)" fill="#7281ce"/>
      <path id="Path_448" data-name="Path 448" d="M99.122,192.169c.9,8.489,1.4,17.028,1.511,25.566.119,8.708-.189,17.415-.875,26.093s-1.8,17.455-3.33,26.083-3.459,17.2-5.845,25.646a254.645,254.645,0,0,1-8.36,24.672c-.4.994-.745,2.038-1.133,3.062-.1.278.368.477.5.209a179.24,179.24,0,0,0,8.857-24.572,259.693,259.693,0,0,0,6.143-25.556q2.425-12.922,3.579-26.034t1.054-26.113Q101.129,208.3,99.8,195.38c-.109-1.064-.229-2.127-.348-3.191,0-.209-.348-.209-.328,0Z" transform="translate(-8.714 -173.889)" fill="#7281ce"/>
      <path id="Path_449" data-name="Path 449" d="M75.438,320.458c-.417-11.859-3.976-23.181-6.382-34.691-7.644-36.64-3.439-75.814,7.316-111.331a.805.805,0,0,1,1.59.05c2.982,11.61,5.964,23.31,7.286,35.367,1.143,10.288,1.133,20.706,1.123,31.093,0,27.833-.06,55.854-3.658,83.369" transform="translate(-8.618 -173.779)" fill="#c3d2f4"/>
      <path id="Path_450" data-name="Path 450" d="M76.693,176.309c-1.292,9.364-2.316,18.757-3.32,28.151a243.439,243.439,0,0,0-1.143,26.65q0,12.674.437,25.348c.268,7.952.775,15.9,1.193,23.857s.845,15.666.855,23.5v2.694a.169.169,0,0,0,.328,0c.229-7.694,0-15.387-.4-23.071-.4-8.042-.915-16.073-1.262-24.115-.348-8.211-.447-16.441-.547-24.662-.1-8.946,0-17.892.746-26.729.825-9.394,2.087-18.747,3.042-28.121l.358-3.469a.134.134,0,0,0-.268,0Z" transform="translate(-8.661 -173.794)" fill="#9eaeef"/>
      <path id="Path_451" data-name="Path 451" d="M77.48,177.139c.258,9.195.636,18.389,1.054,27.574s.865,18.5,1.252,27.753.746,18.658.994,27.992.348,18.509.278,27.763-.318,18.409-.815,27.594c-.06,1.123-.109,2.246-.139,3.37a.293.293,0,0,0,.586,0c.467-4.523.606-9.105.765-13.648s.268-9.264.328-13.916c.1-9.244,0-18.489-.209-27.733s-.567-18.668-.994-28-.865-18.509-1.312-27.773-.875-18.389-1.272-27.6c0-1.123-.1-2.246-.139-3.37C77.858,176.9,77.47,176.89,77.48,177.139Z" transform="translate(-8.692 -173.798)" fill="#9eaeef"/>
      <path id="Path_452" data-name="Path 452" d="M58.748,320.023c-7.415-12.495-14.721-25.139-19.632-38.9a111.839,111.839,0,0,0-15.069-27.892C18.609,245.75,11.93,238.324,8.52,229.07a43.151,43.151,0,0,1,30.934,12.574c7.127,7.177,11.481,16.67,14.572,26.3a389.212,389.212,0,0,1,13.4,55.029" transform="translate(-8.28 -174.11)" fill="#c3d2f4"/>
      <path id="Path_453" data-name="Path 453" d="M8.38,229.208c3.867,3.569,7.664,7.207,11.163,11.133a112.007,112.007,0,0,1,11.769,15.964,188.443,188.443,0,0,1,11.024,21.471c3.091,6.869,6.113,13.767,9.225,20.636s6.242,13.6,9.781,20.189c.388.716.805,1.421,1.213,2.117a.189.189,0,0,0,.328-.189q-4.891-9.94-9.483-19.96c-3.181-6.958-6.252-14.006-9.4-21A212.623,212.623,0,0,0,33.25,258.124a114.877,114.877,0,0,0-11.839-16.541A130.83,130.83,0,0,0,10.06,230.172L8.668,228.93c-.189-.169-.477.1-.288.278Z" transform="translate(-8.279 -174.109)" fill="#9eaeef"/>
      <path id="Path_454" data-name="Path 454" d="M8.489,229.179a27.434,27.434,0,0,1,6.958,3.887,73.777,73.777,0,0,1,7.565,6.4,115.06,115.06,0,0,1,13.161,14.741,89.312,89.312,0,0,1,10.05,18.211c3.221,7.485,5.964,15.189,8.847,22.793a202.459,202.459,0,0,0,10.616,23.857c.537.994,1.074,1.988,1.68,2.893a.338.338,0,0,0,.577-.338c-.994-1.988-2.117-3.976-3.131-6.014s-1.988-4.075-2.913-6.143c-1.809-3.976-3.489-8.072-5.1-12.167-2.982-7.724-5.775-15.547-8.946-23.2a95.982,95.982,0,0,0-10.119-19.065A109.632,109.632,0,0,0,24.9,240.441a80.806,80.806,0,0,0-7.574-6.57,33.5,33.5,0,0,0-7.137-4.324,16.161,16.161,0,0,0-1.64-.6.119.119,0,1,0-.07.229Z" transform="translate(-8.279 -174.109)" fill="#9eaeef"/>
      <path id="Path_455" data-name="Path 455" d="M8.469,229.258a43.966,43.966,0,0,1,16.9,7.376A73.476,73.476,0,0,1,39.5,249.814,103.031,103.031,0,0,1,50.218,265.3,138.222,138.222,0,0,1,59.1,284.973c2.843,7.6,5.378,15.318,8.409,22.863.348.875.736,1.74,1.113,2.6.089.189.427.05.348-.149-2.823-7.733-5.487-15.527-8.29-23.24a149.964,149.964,0,0,0-8.946-20.467,104.141,104.141,0,0,0-10.4-15.576,77.246,77.246,0,0,0-13.916-13.588,45.9,45.9,0,0,0-16.69-8.1c-.736-.169-1.471-.318-2.207-.437-.249,0-.358.328-.109.378Z" transform="translate(-8.279 -171.074)" fill="#9eaeef"/>
      <path id="Path_456" data-name="Path 456" d="M68.975,325.214s-10.427-23.956-12.316-29.532c-3.7-10.855-7.177-22.862-9.94-34.005-10.02-40.6-9.165-67.136-7.326-67.136s9.384,8.946,17.207,26.053a208.11,208.11,0,0,1,12.217,34.045c5.895,22.733,10.288,38.369,11.759,69.413" transform="translate(-8.458 -173.904)" fill="#abb8ef"/>
      <path id="Path_457" data-name="Path 457" d="M38.73,195.179c.994,8.539,2.376,17.057,3.877,25.517q2.157,12.286,4.891,24.453t6.073,23.916c2.306,8.171,4.97,16.222,7.187,24.423S65,310.257,68.193,318.338c.378.934.805,1.849,1.233,2.763.129.268.6.07.487-.209-1.59-3.976-3.062-8.042-4.314-12.167s-2.306-8.2-3.4-12.326c-2.187-8.24-4.821-16.342-7.2-24.532q-3.41-11.809-6.262-23.777t-5.129-24.264C42.04,215.357,40.7,206.858,39.5,198.34c-.149-1.083-.308-2.167-.467-3.24a.149.149,0,1,0-.3,0Z" transform="translate(-8.461 -173.906)" fill="#7281ce"/>
      <path id="Path_458" data-name="Path 458" d="M39.26,194.559q2.982,11.078,6.173,22.057c2.346,8.052,4.732,16.083,7.087,24.125,2.495,8.529,4.97,17.067,7.336,25.636,2.455,8.847,4.811,17.714,7.008,26.62s4.274,17.992,6.143,27.037c.239,1.113.477,2.227.706,3.34.06.268.457.149.408-.109-1.6-9.1-3.638-18.121-5.815-27.1s-4.5-17.833-6.958-26.7q-3.578-12.922-7.386-25.775c-2.386-8.111-4.811-16.213-7.207-24.324-2.187-7.425-4.374-14.851-6.481-22.3-.249-.865-.487-1.73-.726-2.594a.159.159,0,0,0-.3.08Z" transform="translate(-8.464 -173.903)" fill="#7281ce"/>
      <path id="Path_459" data-name="Path 459" d="M39.28,194.588a99.018,99.018,0,0,1,8.946,17.952c3.36,8.231,6.242,16.65,8.946,25.129,2.982,9.523,5.676,19.145,8.151,28.827s4.672,19.165,6.65,28.827c1.72,8.4,3.211,16.839,4.423,25.328.129.895.288,1.789.4,2.674,0,.338.567.338.527,0-.994-8.231-2.376-16.391-3.976-24.533-1.918-9.652-4.115-19.254-6.521-28.827q-3.718-14.692-8.161-29.155c-2.694-8.728-5.616-17.386-9-25.845a118.808,118.808,0,0,0-9.036-18.886c-.358-.567-.716-1.123-1.093-1.67-.1-.159-.348,0-.249.139Z" transform="translate(-8.464 -173.144)" fill="#7281ce"/>
    </g>
    <g id="Group_148" data-name="Group 148" transform="translate(319.842 368.868)">
      <g id="Group_146" data-name="Group 146" transform="translate(0 0)">
        <path id="Path_1137" data-name="Path 1137" d="M179.473,33.446l13.282,4.894.179,1.084-12.695-4.433Z" transform="translate(-129.079 -13.853)" fill="#4a4865"/>
        <g id="Group_144" data-name="Group 144" transform="translate(0)">
          <g id="Group_140" data-name="Group 140" transform="translate(47.419 44.198)">
            <path id="Path_1138" data-name="Path 1138" d="M190.332,40.106c-11.511-5.654-13.3,29.009-10.309,37.958s1.507,7.552,4.5,16.5,16.06,6.085,25.913,6.843,21.914-1.189,21.914-1.189l2.228-9.413s-15.018,5.8-22.541,1.784c-8.688-4.656-17.388.635-17.388.635s2.525-30.581,2.383-35.131C196.8,50.326,197.02,43.389,190.332,40.106Z" transform="translate(-178.743 -39.487)" fill="#f4bf87"/>
            <path id="Path_1139" data-name="Path 1139" d="M190.813,58.753s1.442-4.92,5.694-6.761,9.572.876,9.572.876,3.153,4-.627,10.264c-.66,1.1-9.246,1.446-11.49.477C193.188,63.27,190.813,58.753,190.813,58.753Z" transform="translate(-141.65 -3.02)" fill="#f4bf87"/>
            <path id="Path_1140" data-name="Path 1140" d="M195.29,52.868,194.1,51.589l8,.257L206.271,54l3.364,4.183s-1.841,1.336-3.026-.033-2.2-2.452-2.2-2.452l-2.729-.978-5.531,1.116Z" transform="translate(-131.56 -2.295)" fill="#f4bf87"/>
            <path id="Path_1141" data-name="Path 1141" d="M193.99,53.253l.3-.037,7.132-.827,4.444,2.485,3.5,4.668s-2.045,1.381-3.283-.147-2.3-2.745-2.3-2.745L200.857,55.5l-6.053,1Z" transform="translate(-131.886 0.163)" fill="#f4bf87"/>
            <path id="Path_1142" data-name="Path 1142" d="M194.074,54.3l.244-.049,5.821-1.128,3.816,1.764,3.177,3.617s-1.593,1.267-2.709.086-2.073-2.11-2.073-2.11l-2.481-.766-4.916,1.214Z" transform="translate(-131.628 2.413)" fill="#f4bf87"/>
            <path id="Path_1143" data-name="Path 1143" d="M195.214,54.279c.171-.024,4.269-.639,4.269-.639l2.611,1.348,2.11,2.623s-1.149.835-1.894-.024-1.385-1.536-1.385-1.536l-1.707-.611L194.053,56.7Z" transform="translate(-131.693 4.008)" fill="#f4bf87"/>
          </g>
          <path id="Path_1144" data-name="Path 1144" d="M190.483,44.448a50.036,50.036,0,0,1-12.76,8.813c-8.309,4.016-9.665,3.993-8.227,20.149.507,5.686,4.851,16.665,4.851,16.665s9.756,18.5,9.756,25.718c0,2.207-4.73,10.425-7.613,15.254s-2.056,25.383-2.056,25.383-5.967,2.164,12.961-2.452,50.775-12.77,40.94-30.215c-2.724-4.82-6.937-6.85-5.708-13.563s6.512-21.454.761-30.893c-8.44-13.854-.572-34.642-6.987-38.422s-11.28,2.1-15.925,3.563S190.483,44.448,190.483,44.448Z" transform="translate(-157.97 5.178)" fill="#0f056b"/>
          <path id="Path_1145" data-name="Path 1145" d="M180.636,61.736a10.841,10.841,0,1,0,21.681,0c0-5.988-9.552-15.234-9.552-15.234S180.636,55.748,180.636,61.736Z" transform="translate(-125.505 26.269)" fill="#eab12e"/>
          <path id="Path_1146" data-name="Path 1146" d="M174.823,55.246c0,10.627,8.427,17.673,14.411,17.673a10.841,10.841,0,1,0,0-21.681C183.25,51.238,174.823,49.262,174.823,55.246Z" transform="translate(-143.37 39.863)" fill="#eab12e"/>
          <path id="Path_1147" data-name="Path 1147" d="M177.324,75.173c2.6-8.325,27.974-13.657,27.974-13.657s4.77,3.556,6.937,28.557-3.145,57.415-7.372,61.643S198.142,176,198.142,185s1.083,17.307,4.554,21.824,8.965,10.72,10.191,11.946,1.283,9.116-1.083,10.484-12.154-4.285-15.181-7.307-7.645-11.959-10.244-11.959.489-6.851.489-13.372-6.737-23.653-4.888-31.893,4.232-8.476,5.1-19.233-2.493-51.7-2.493-51.7Z" transform="translate(-135.684 72.41)" fill="#e2a56d"/>
          <path id="Path_1148" data-name="Path 1148" d="M194.587,207.828s3.8,8.358,8.9,13.454,7.568,10.281,5.381,11.543c-4.566,2.635-1.784,1.552-7.633,1.552s-11.629-6.476-13.364-9.951c-.949-1.9-3.666-4.631-5.922-6.7a6.563,6.563,0,0,1-1.723-7.059,25.206,25.206,0,0,0,1.674-7.747c0-2.916.925-9.189-2.114-17.6s-6.717-22.272,1.145-42.528c5.641-14.529-14.741-54.58-9.971-63.064s38.365-27.538,37.074-5.869c0,0-2.163,63.838-7.148,74.465s-5.34,15.946-5.776,21.8S194.587,207.828,194.587,207.828Z" transform="translate(-157.5 79.602)" fill="#f4bf87"/>
          <path id="Path_1149" data-name="Path 1149" d="M173.135,100.323a30.373,30.373,0,0,0-.762,5.372,9.338,9.338,0,0,0,1.25,4.175l3.3,1.91.921-.562s8.44,11.124,12.627,12.745,11.246,3.381,15.527.908-1.515-7.413-2.456-7.959-13.58-.811-13.58-.811Z" transform="translate(-150.899 191.669)" fill="#0f056b"/>
          <path id="Path_1150" data-name="Path 1150" d="M179.539,96.65a30.368,30.368,0,0,0-.762,5.368,9.342,9.342,0,0,0,1.25,4.179l3.307,1.906.925-.554s7.144,9.824,11.026,12.085c3.772,2.2,11.393,4.33,15.673,1.857s-1.006-8.248-1.951-8.8-12.635-.269-12.635-.269Z" transform="translate(-131.218 180.381)" fill="#0f056b"/>
          <path id="Path_1151" data-name="Path 1151" d="M198.54,115.1s2.077,2.1-2.309,3.658c-8.57,3.035-17.918-12.154-20.007-16.105a20.022,20.022,0,0,1-1.678-3.666,10.974,10.974,0,0,0-1.9,8.712c1.193,4.786,4.309,5.055,7.641,9.751,4.037,5.682,10.578,12.928,22.85,11.3,6.366-.843,1.312-7.067-.187-8.57S198.54,115.1,198.54,115.1Z" transform="translate(-150.9 187.554)" fill="#d1d0e1"/>
          <path id="Path_1152" data-name="Path 1152" d="M203.836,108.828s3.768,4.79-.782,5.768-15.967-8.9-18.056-12.851c-1.462-2.762-2.859-6.118-2.859-6.118s-4.346,4.256-3.153,9.05,4.305,2.782,7.641,7.478c4.032,5.678,9.519,13.9,21.791,12.272,6.366-.843,4.554-4.79-.489-11C206.589,111.789,203.836,108.828,203.836,108.828Z" transform="translate(-131.215 177.237)" fill="#d1d0e1"/>
          <path id="Path_1153" data-name="Path 1153" d="M219.017,73.727s-14.651-12.171-22.7-19.58-6.46-12.627-6.46-12.627l-18.883,9.018s-2.859,16.806,1.4,26.911,15.564,32.2,10.219,37.542-13.93,34.487-13.93,52.987,3.173,21.327,3.173,21.327,7.674,17.27,20.708,15.091,31.84-11.535,31.84-11.535,1.255-52.678-2.236-63.3S219.017,73.727,219.017,73.727Z" transform="translate(-162.306 10.962)" fill="#d1d0e1"/>
          <path id="Path_1154" data-name="Path 1154" d="M187.566,59.188c2.285,4.835,2.118,21.3,2.118,21.3s-4.9,37.045-1.291,43.729,2.753,75.968,2.753,75.968,18.683-8.924,22.146-12.382-.464-56.454-10.83-66.816c-8.11-8.118.452-25.038,2.876-27.461s11.486-9.7-1.739-24.858c-7.564-8.664-5.083-26.345-12.887-28.483S178.19,48,178.19,48,186.149,56.186,187.566,59.188Z" transform="translate(-133.022 5.922)" fill="#d1d0e1"/>
          <g id="Group_141" data-name="Group 141" transform="translate(19.083 3.614)">
            <path id="Path_1155" data-name="Path 1155" d="M201.033,48.648s-5.853,8.13-5.853,10.57,2.273,2.929,1.136,6.342-13.063.79-18.484-6.6-3.8-8.326-3.8-8.326,4.069-5.731,4.069-10.932S201.033,48.648,201.033,48.648Z" transform="translate(-165.572 -1.767)" fill="#e2a56d"/>
            <path id="Path_1156" data-name="Path 1156" d="M171.786,49.7a20.185,20.185,0,0,1,38.5-8.488s3.686,6.6,3.686,10.081-1.511,1.813-.758,5.136,3.026,4.839.155,10.582S209.658,77.623,209.08,78.2s.656,2.725-9.177.908a38.5,38.5,0,0,1-19.653-9.678c-1.5-1.5-2.929-4.456-3.979-7.055A20.083,20.083,0,0,1,171.786,49.7Z" transform="translate(-171.786 -29.523)" fill="#f4bf87"/>
          </g>
          <path id="Path_1157" data-name="Path 1157" d="M201.64,62.04c0,1.332,1.1-9.69,1.1-9.69s-.9-.994-3.56,3.1-1.275,14.26-1.275,14.26-3.54-11.079-8.1-8.33,3.344,16.134,3.344,16.134-28.769,23.889-23.274-23.783c1.536-13.335,11.824-20.272,16.83-23.164s19.714-3.405,27.689,4.574c9.413,9.409,7.613,10.936,6.154,14.627C216.6,59.772,201.64,62.04,201.64,62.04Z" transform="translate(-160.712 -28.636)" fill="#637c89"/>
          <g id="Group_142" data-name="Group 142" transform="translate(25.453 28.425)">
            <path id="Path_1158" data-name="Path 1158" d="M178.662,38.211c-.045-.11-1.65-3.462-3.177-2.383A5.535,5.535,0,0,0,173.5,41.69c.542,2.753,2,6.134,3.874,6.081s2.448.2,3.446-1.263a3.713,3.713,0,0,0,.383-3.14Z" transform="translate(-173.35 -35.615)" fill="#f8e8e0"/>
            <path id="Path_1159" data-name="Path 1159" d="M178.849,38.273c-.045-.114-1.65-3.458-3.173-2.383a5.531,5.531,0,0,0-1.992,5.861c.542,2.753,2,6.134,3.874,6.081s2.452.2,3.45-1.267a3.722,3.722,0,0,0,.379-3.14Z" transform="translate(-172.775 -35.42)" fill="#f4bf87"/>
            <path id="Path_1160" data-name="Path 1160" d="M176.692,38.284s-.57,1.654-.778,2.379a3.5,3.5,0,0,0-.024,2.472,7.892,7.892,0,0,0,.758.941,25.669,25.669,0,0,1,.106-4,3.85,3.85,0,0,0-.191-2.867c-.493-.8-.9-1.833-1.629-.876A4.757,4.757,0,0,0,173.8,40.1a8.054,8.054,0,0,0,1.6,4.358,5.684,5.684,0,0,0,1.878,1.14,4.6,4.6,0,0,1-2.59-2.855c-.444-1.98-.668-5.051-.073-5.584s.68-.648.749.094-.326,1.874.2,1.5.574-1.413.9-1S176.692,38.284,176.692,38.284Z" transform="translate(-172.077 -34.576)" fill="#d5a980"/>
            <path id="Path_1161" data-name="Path 1161" d="M174.71,38.534s.24-1.629.578-1.589.415.053.639.595.265.754.774.591.851-.6.424.138-.566-.033-1.3.485-.468,1.214-.973,1.271-.228-1.059-.073-1.381Z" transform="translate(-169.618 -31.526)" fill="#d5a980"/>
          </g>
          <g id="Group_143" data-name="Group 143" transform="translate(0 47.506)">
            <path id="Path_1162" data-name="Path 1162" d="M16.5,5.943C14.354,3.7,8.639-4.264,3.405,2.978s-3.7,19.29-.318,28.092,3.568,18.956,6.949,27.763S17.213,69.285,23.327,77.04a190.207,190.207,0,0,0,14.908,16.2l9.242-5.617S31.938,78.657,29.807,70.4a41.815,41.815,0,0,0-8.639-16.223s.216-23.123-.126-27.661C20.464,18.762,21.637,11.344,16.5,5.943Z" transform="translate(0 17.014) rotate(-21)" fill="#f4bf87"/>
            <path id="Path_1163" data-name="Path 1163" d="M0,0S5.185,1.886,7.825,4.415s3.36,7,5.694,7.568-.668,2.566-2.24,2.179S6.2,9.246,5.087,9.922,0,0,0,0Z" transform="translate(71.704 82.259) rotate(-40)" fill="#f4bf87"/>
          </g>
        </g>
        <g id="Group_145" data-name="Group 145" transform="translate(44.402 24.44)">
          <path id="Path_1164" data-name="Path 1164" d="M178,45.63s.436,4.191,2.2,3.173l5.283-3.051s.733-4.407,2.053-5.173c1.3-.725,2.024,2.786,2.024,2.786s3.466-2,5.205-3.006,2.163-5.629,2.163-5.629Z" transform="translate(-178.002 -34.347)" fill="#e1e9f9"/>
          <path id="Path_1165" data-name="Path 1165" d="M185.979,46.363,180.7,49.413c-2.1,1.206-2.59-2.9-2.639-3.377l.872-.619c.1.978.652,3.621,1.768,2.977l4.929-2.847c.261-1.344,1.01-4.57,2.407-5.377l.44-.257c1.1-.008,1.707,1.927,1.931,2.839l4.855-2.8c1.092-.631,1.625-3.849,1.727-4.933l.876-.387c-.045.525-.538,5.14-2.6,6.334l-5.56,3.214-.077-.367c-.269-1.32-.978-2.957-1.589-2.6-.725.668-1.369,2.941-1.625,4.493l-.073.444Z" transform="translate(-177.821 -34.636)" fill="#4a4865"/>
        </g>
        <path id="Path_1166" data-name="Path 1166" d="M174.8,36.234l13.281,4.892.179,1.082-12.695-4.433Z" transform="translate(-143.439 -5.284)" fill="#4a4865"/>
      </g>
      <path id="Path_1167" data-name="Path 1167" d="M0,3.15S6.395-.15,7.136.005a18.693,18.693,0,0,1,3.2,1.886S8.285,9.451,5.181,9.646,0,3.15,0,3.15Z" transform="translate(80.518 138.385) rotate(-25)" fill="#f4bf87"/>
      <path id="Path_1179" data-name="Path 1179" d="M12.6,15.592a6.227,6.227,0,0,0-.037-2.819A16.817,16.817,0,0,0,10.849,4.13,7.548,7.548,0,0,0,5.249,0S.825,1.487.117,1.878c-.379.212.22,4.554,1.018,8.472l.733,6.326L4.1,19.84a5.56,5.56,0,0,0,2.859,1.536c.648.55,1.812,1.385,2.8,1.136a8.348,8.348,0,0,1,.99-.171,2.975,2.975,0,0,0,2.2.66,9.842,9.842,0,0,0,3-1.584S12.238,17.254,12.6,15.592Z" transform="translate(65.618 131.915) rotate(-25)" fill="#f4bf87"/>
    </g>
    <g id="Group_316" data-name="Group 316" transform="translate(361.287 350.258)">
      <path id="Path_1459" data-name="Path 1459" d="M481.443,446.294c5.174,7.4,23.773,3.482,23.773,3.482l14.414-13.488,1.94-1.826-3.254-6.912s-1.035.285-2.809.792C506.189,431.047,477.077,440.07,481.443,446.294Z" transform="translate(-345.597 -286.041)" fill="#efb7b9"/>
      <path id="Path_1460" data-name="Path 1460" d="M481,428.342a30.349,30.349,0,0,0,4.113,7.947l1.94-1.826L483.8,427.55S482.754,427.835,481,428.342Z" transform="translate(-311.08 -286.041)" opacity="0.1"/>
      <path id="Path_1461" data-name="Path 1461" d="M421.312,278.217s13.286,5.893,12.634,20.364a238.589,238.589,0,0,1-3.042,27.814s2.716,21.776-8.594,27.39-21.776,10.228-21.776,10.228-17.694,1.9-19.893,2.69-9.07-11.237-7.8-13.11,17.508-5.8,19.577-8.925,6.855-5.055,6.855-5.055,4.941-2.99,5.277-5.691-.967-4.713-1.3-5.9-1.169-12.624-1.169-12.624S396.5,274.684,421.312,278.217Z" transform="translate(-201.957 -213.864)" fill="#dce6f2"/>
      <path id="Path_1462" data-name="Path 1462" d="M382.047,370.39s18.227,3.052,16.463,9.432A38.641,38.641,0,0,0,382.047,370.39Z" transform="translate(-171.462 -258.454)" opacity="0.1"/>
      <path id="Path_1463" data-name="Path 1463" d="M398.3,375.38s10.021,8.18,8.061,8.6S398.3,375.38,398.3,375.38Z" transform="translate(-187.852 -260.862)" opacity="0.1"/>
      <path id="Path_1464" data-name="Path 1464" d="M420.756,380.89s2.685,5.5,1.035,5.127S420.756,380.89,420.756,380.89Z" transform="translate(-215.126 -263.522)" opacity="0.1"/>
      <path id="Path_1465" data-name="Path 1465" d="M408.494,357.29l1.107-.316a3.164,3.164,0,0,1-.145-2.261c1.268-1.873,17.5-5.795,19.562-8.925s6.855-5.055,6.855-5.055,4.941-2.99,5.277-5.691-.967-4.713-1.3-5.9-1.169-12.629-1.169-12.629-5.562-40.712,19.246-37.178c0,0,13.286,5.9,12.639,20.369a237.921,237.921,0,0,1-3.047,27.814s2.716,21.776-8.594,27.39-21.776,10.228-21.776,10.228-17.689,1.9-19.893,2.69c-.833.3-2.339-1.247-3.813-3.373l-.838.781-14.414,13.483s-18.6,3.927-23.773-3.477C370.048,369.013,399.156,359.99,408.494,357.29Z" transform="translate(-239.246 -214.404)" opacity="0.1"/>
      <path id="Path_1470" data-name="Path 1470" d="M319.96,201l-7.89,9.489,1.03,9.577,9.535-14.926Z" transform="translate(-108.531 -148.23)" fill="#dce6f2"/>
      <path id="Path_1471" data-name="Path 1471" d="M312.07,210.489l.967,9.007.062.569,8.6-13.472.926-1.454-.269-.419-2.4-3.72-.533.642Z" transform="translate(-108.526 -148.23)" opacity="0.1"/>
      <path id="Path_1472" data-name="Path 1472" d="M373.823,218.193c2.67.766,5.22,3.394,7.44,6.586a56.208,56.208,0,0,1,4.015,6.9c.729,1.459,1.371,2.861,1.9,4.082l.372.869c.9,2.126,1.4,3.549,1.4,3.549s20.436-15.366,17.2-16.4c-1.086-.347-2.514-2.675-3.927-5.608l-.176-.373c-.9-1.883-1.775-3.984-2.556-5.96-1.6-4.061-2.783-7.59-2.783-7.59S365.674,215.865,373.823,218.193Z" transform="translate(-174.376 -178.27)" fill="#f4bf87"/>
      <path id="Path_1473" data-name="Path 1473" d="M474.578,202.58s-4.718,8.537-11.056,7.373-3.73-4.584-3.73-4.584Z" transform="translate(-287.357 -177.464)" fill="#444053"/>
      <path id="Path_1474" data-name="Path 1474" d="M378.72,754.936c4.18,1.909,13.633,0,13.633,0l3.984-.248c5.174-.331,13.835-.89,16.9-1.138,4.47-.367,3.373-2.2,3.373-2.2V740.284l-21.688-5.495s-8.573,2.933-10.922,5.495c-2.23,2.442-3.534.564-7.512,1.268-.2.036-.4.078-.621.129-3.777.864-5.826,1.205-7.036,4.336a14.537,14.537,0,0,0-.585,2.018C367.126,753.074,374.545,753.038,378.72,754.936Z" transform="translate(-182.357 -434.324)" fill="#a36468"/>
      <path id="Path_1475" data-name="Path 1475" d="M368.13,752.325a16.214,16.214,0,0,0,2.442,1.252c2.846,1.3,5.551,2.882,8.428,4.108a19.711,19.711,0,0,0,9.09,1.868c1.63-.119,3.3-.517,4.853-.052a11.208,11.208,0,0,1,2.7,1.5c5.174-.331,13.835-.89,16.9-1.138,4.47-.367,3.373-2.2,3.373-2.2v-1.293c-.16,0-.341-.047-.548-.062a9.769,9.769,0,0,0-3.156.471c-2.245.611-4.48,1.211-6.726,1.811a5.314,5.314,0,0,0-2.587-3.3,8.246,8.246,0,0,0-4.17-.957c-3.482.047-6.778,1.7-10.254,1.862a5.649,5.649,0,0,1-2.84-.476c-.476-.238-.9-.585-1.361-.849a9.931,9.931,0,0,0-2.344-.792,51.62,51.62,0,0,1-6.7-2.163c-.621-.243-1.345-.683-1.262-1.345.109-.879,1.49-.983,1.852-1.79a1.035,1.035,0,0,0-.041-.916c-.2.036-.4.078-.621.129C371.39,748.853,369.341,749.195,368.13,752.325Z" transform="translate(-181.659 -440.632)" opacity="0.1"/>
      <path id="Path_1476" data-name="Path 1476" d="M359.1,798.411c4.915,2.245,16.038,0,16.038,0l4.682-.274c6.064-.388,16.277-1.035,19.883-1.34,5.262-.435,3.968-2.587,3.968-2.587V781.167L378.145,774.7s-10.089,3.451-12.852,6.467c-2.623,2.871-4.139.662-8.842,1.49-.233.041-.476.093-.729.15-4.444,1.035-6.855,1.423-8.278,5.106a16.6,16.6,0,0,0-.688,2.375C345.473,796.217,354.18,796.171,359.1,798.411Z" transform="translate(-158.314 -453.586)" fill="#a36468"/>
      <path id="Path_1477" data-name="Path 1477" d="M346.628,795.361a19.271,19.271,0,0,0,2.871,1.474c3.347,1.526,6.534,3.389,9.918,4.832a23.25,23.25,0,0,0,10.7,2.2c1.914-.14,3.875-.621,5.691-.062a13.2,13.2,0,0,1,3.182,1.78c6.064-.388,16.276-1.035,19.883-1.34,5.262-.435,3.968-2.587,3.968-2.587v-1.521a6.5,6.5,0,0,0-.647-.072,11.353,11.353,0,0,0-3.715.554l-7.911,2.132a6.26,6.26,0,0,0-3.068-3.885,9.654,9.654,0,0,0-4.91-1.128c-4.1.057-7.973,2-12.065,2.194a6.679,6.679,0,0,1-3.332-.554c-.564-.285-1.035-.693-1.6-1a11.253,11.253,0,0,0-2.758-.931,61.921,61.921,0,0,1-7.843-2.546c-.729-.29-1.583-.807-1.485-1.583.129-1.035,1.754-1.159,2.183-2.111a1.247,1.247,0,0,0-.052-1.076c-.233.041-.476.093-.729.15C350.462,791.273,348.051,791.677,346.628,795.361Z" transform="translate(-157.488 -461.033)" opacity="0.1"/>
      <path id="Path_1478" data-name="Path 1478" d="M378.927,647.54l1.381,32.506s2.069,6.638.947,8.537-3.016,3.792-2.328,4.915,8.966,13.26,11.641,8.6,5.313-24.834,5.313-24.834l-2.468-24.922Z" transform="translate(-167.022 -392.215)" fill="#444053"/>
      <path id="Path_1479" data-name="Path 1479" d="M412.468,491l-3.839,5.132v44.639s-1.123,11.9,0,14.357,6.814,7.372,6.814,7.372l4.786-24.575-1.035-26Z" transform="translate(-206.554 -316.664)" fill="#444053"/>
      <path id="Path_1480" data-name="Path 1480" d="M378.927,647.54l1.381,32.506s2.069,6.638.947,8.537-3.016,3.792-2.328,4.915,8.966,13.26,11.641,8.6,5.313-24.834,5.313-24.834l-2.468-24.922Z" transform="translate(-167.022 -392.215)" opacity="0.1"/>
      <path id="Path_1481" data-name="Path 1481" d="M412.468,491l-3.839,5.132v44.639s-1.123,11.9,0,14.357,6.814,7.372,6.814,7.372l4.786-24.575-1.035-26Z" transform="translate(-206.554 -316.664)" opacity="0.1"/>
      <path id="Path_1482" data-name="Path 1482" d="M327,442.617v24.146l4.31,18.8s1.381,45.358.176,50.873,4.139,10.694,4.139,10.694,3.1.347,3.1,2.758S343.9,559.2,343.9,559.2l-.171,13.452s-2.245,25.18,1.205,30.008-1.205,5.52-1.205,5.52c4.31,14.14,25,10.865,26.872,9.313s0-32.077,0-32.077-4.625-46.563-8.247-48.633-.176-4.656-1.381-7.76,1.205-11.553,1.205-11.553,1.035-10.006,3.622-14.833,2.245-18.108,2.245-18.108,7.243-9.659,9.4-13.452,3.539-13.622,3.021-21.042c-.352-5.013-2.985-12.313-4.656-16.514-.8-2.013-1.381-3.316-1.381-3.316l-.491.129-28.259,7.4Z" transform="translate(-124.925 -287.32)" fill="#444053"/>
      <path id="Path_1483" data-name="Path 1483" d="M387.353,218.159c2.67.766,5.22,3.394,7.44,6.586h.579a18.481,18.481,0,0,0,16.039-9.276,18.2,18.2,0,0,0,1.625-3.7c-1.6-4.061-2.783-7.59-2.783-7.59S379.2,215.831,387.353,218.159Z" transform="translate(-187.906 -178.236)" opacity="0.1"/>
      <path id="Path_1484" data-name="Path 1484" d="M384.3,202.609c6.382-.725,4.641,6.4,11.92,9.524s15.459.629,20.486-6.236a24.313,24.313,0,0,0,2.02-24.5,21.386,21.386,0,0,0-1.956-3.283,19.933,19.933,0,0,0-4.253-4.341,16.3,16.3,0,0,0-18.232-1.061c-5.814,3.4-11.9,10.985-10.136,18.838C384.134,192.083,385.214,191.972,384.3,202.609Z" transform="translate(-195.149 -161.944)" fill="#f4bf87"/>
      <path id="Path_1485" data-name="Path 1485" d="M372.46,262.176l.062.569,8.6-13.452c.9,2.126,1.4,3.549,1.4,3.549s20.436-15.387,17.2-16.421c-1.086-.347-2.514-2.675-3.927-5.608l-.176-.372c-1.5,4.47-10.218,13.405-13.845,16.985-.419.414-.766.755-1.035,1l-.554.517-.29.29C378.585,250.6,373.018,256.6,372.46,262.176Z" transform="translate(-167.948 -190.91)" opacity="0.1"/>
      <path id="Path_1486" data-name="Path 1486" d="M320.487,307.678l.942,30.3.166,5.4s11.154-1.035,21.564-2.173c8.381-.916,16.282-1.9,17.5-2.483a32.933,32.933,0,0,1,7.5-1.65c2.028-.274,3.622-.419,3.622-.419s.6.176,1.511.341c2,.362,5.5.657,7.548-1.118,2.613-2.271-4.253-10.523-5.965-12.5l-.378-.429.647-5.976,1.681-15.5s1.035-8.925,2.587-13.71a25.283,25.283,0,0,0,.9-4.165,33.359,33.359,0,0,0-.869-13.069,28.494,28.494,0,0,1-.931-5.531c-.259-4.786-14.874-23.282-18.5-24.963a7.678,7.678,0,0,1-3.7-3.694,7.058,7.058,0,0,1-.564-1.609c-1.552-6.726-5.479-4.056-5.479-4.056-.947,5.262-15.6,19.189-15.6,19.189l-.29.29c-1.454,1.49-7.931,8.485-7.471,14.455a17.524,17.524,0,0,1-.978,6.54,110.589,110.589,0,0,0-5.1,28.973Z" transform="translate(-122.406 -190.77)" fill="#dce6f2"/>
      <path id="Path_1487" data-name="Path 1487" d="M385.11,310.45s3.622,8.8,6.338,10.218S383.817,323.669,385.11,310.45Z" transform="translate(-166.262 -229.525)" opacity="0.1"/>
      <path id="Path_1488" data-name="Path 1488" d="M387.38,342.2s8.278,1.035,8.278,2.587S387.38,342.2,387.38,342.2Z" transform="translate(-171.248 -244.849)" opacity="0.1"/>
      <path id="Path_1489" data-name="Path 1489" d="M389.6,361.7s12.029,25.61,15.392,26.386S389.6,361.7,389.6,361.7Z" transform="translate(-182.134 -254.26)" opacity="0.1"/>
      <path id="Path_1490" data-name="Path 1490" d="M368,252.1l9.949,4.325,12.008-18.139a7.056,7.056,0,0,1-.564-1.609c-1.552-6.726-5.479-4.056-5.479-4.056-.947,5.262-15.6,19.189-15.6,19.189Z" transform="translate(-155.521 -191.711)" opacity="0.1"/>
      <path id="Path_1491" data-name="Path 1491" d="M369,250.1l9.949,4.325,12.008-18.139a7.056,7.056,0,0,1-.564-1.609c-1.552-6.726-5.479-4.056-5.479-4.056-.947,5.262-15.6,19.189-15.6,19.189Z" transform="translate(-157.038 -190.746)" fill="#dce6f2"/>
      <path id="Path_1492" data-name="Path 1492" d="M331.043,373.146s11.155-1.035,21.564-2.173l-18.677,4.889v5.691c.817.74,1.526,1.123,1.987.926,2.152-.905,19.717-3.751,19.717-3.751s10.2-5.174,21.212-11.382a8.505,8.505,0,0,0,.776-.486,12.23,12.23,0,0,0,3.259-3.265,23.169,23.169,0,0,0,3.456-10.435,45.127,45.127,0,0,0,.269-6.405,52.511,52.511,0,0,0-.662-7.238,238.024,238.024,0,0,0,1.552-27.938c-.129-14.486-13.71-19.66-13.71-19.66-24.963-2.2-17.223,38.156-17.223,38.156s1.443,11.382,1.837,12.546,1.806,3.1,1.614,5.82-4.962,5.965-4.962,5.965-4.656,2.183-6.576,5.417c-1.4,2.385-10.472,5.619-15.6,7.926Z" transform="translate(-131.855 -220.54)" opacity="0.1"/>
      <path id="Path_1493" data-name="Path 1493" d="M384.309,175.2a5.857,5.857,0,0,0,.517,2.473,15.3,15.3,0,0,0,.921,1.842,8.485,8.485,0,0,0,2.266,2.815,11.592,11.592,0,0,0,4.139,1.438,5.989,5.989,0,0,1,3.741,2.121,7.418,7.418,0,0,1,.874,2.535,5.453,5.453,0,0,0,1.035,2.452,2.033,2.033,0,0,0,2.421.579,2.447,2.447,0,0,0,.936-1.205,17.291,17.291,0,0,0,.978-4.237,9.015,9.015,0,0,1,1.454-4.061,3.637,3.637,0,0,1,3.818-1.464,3.679,3.679,0,0,1,2.069,2.007,11.5,11.5,0,0,1,.781,2.856q.962,5.267,2.271,10.472a.963.963,0,0,0,.171.393.745.745,0,0,0,.517.217c1.159.155,2.271-.657,3.44-.569a1.977,1.977,0,0,1,.357.057,18.486,18.486,0,0,0-1.868-21.109l-.093-.026a5.578,5.578,0,0,1-2.07-1.3,21.841,21.841,0,0,1-2.069-2.4l-.414-.517a23.6,23.6,0,0,0-4.035-3.834,4.139,4.139,0,0,0-1.376-.745,4.077,4.077,0,0,0-1.3-.041,32.887,32.887,0,0,1-5.386.2,34.549,34.549,0,0,0-3.782-.383c-3.275.093-6.069,2.406-8.138,4.941A7.653,7.653,0,0,0,384.309,175.2Z" transform="translate(-193.482 -159.698)" opacity="0.1"/>
      <path id="Path_1494" data-name="Path 1494" d="M408.69,177.646c.719,1.18,2.018,1.982,2.5,3.275.714,1.878-.492,4.217.616,5.893.367.564.973.983,1.18,1.63.352,1.092-.611,2.256-.362,3.378s1.728,2.069,1.335,3.166a2.07,2.07,0,0,1-1.138,1.035,4.449,4.449,0,0,1-2.587.574c-1.412-.233-2.463-1.619-3.9-1.723-1.164-.083-2.276.724-3.435.574a.776.776,0,0,1-.517-.222.9.9,0,0,1-.171-.393q-1.3-5.2-2.276-10.472a11.278,11.278,0,0,0-.776-2.856A3.71,3.71,0,0,0,397.1,179.5a3.649,3.649,0,0,0-3.818,1.464,8.96,8.96,0,0,0-1.459,4.061,17.519,17.519,0,0,1-.973,4.237,2.473,2.473,0,0,1-.942,1.211,2.026,2.026,0,0,1-2.416-.579,5.4,5.4,0,0,1-1.035-2.457,7.387,7.387,0,0,0-.874-2.53,6,6,0,0,0-3.741-2.121,11.706,11.706,0,0,1-4.139-1.443,8.515,8.515,0,0,1-2.266-2.809,8.271,8.271,0,0,1-1.418-4.32,7.931,7.931,0,0,1,2.121-4.475c2.069-2.535,4.868-4.848,8.143-4.936a32.18,32.18,0,0,1,3.782.383,32.375,32.375,0,0,0,5.386-.207,4.231,4.231,0,0,1,1.3.047,3.9,3.9,0,0,1,1.371.745,23.606,23.606,0,0,1,4.041,3.829,29.645,29.645,0,0,0,2.494,2.9,5.614,5.614,0,0,0,2.069,1.309c.517.145,1.035.041,1.526.2C407.78,174.485,407.982,176.477,408.69,177.646Z" transform="translate(-182.702 -159.23)" fill="#616161"/>
      <path id="Path_1495" data-name="Path 1495" d="M463.519,209.947c4.139.761,7.569-2.587,9.468-5.029a20.285,20.285,0,0,0,1.588-2.339l-14.207,2.68-.574.109S457.181,208.788,463.519,209.947Z" transform="translate(-287.353 -177.464)" opacity="0.1"/>
      <g id="Group_308" data-name="Group 308" transform="translate(191.341 14.468)" opacity="0.1">
        <path id="Path_1496" data-name="Path 1496" d="M375.884,212.317a4.309,4.309,0,0,1,.3-1.987c0,.052.047.1.062.155a3.851,3.851,0,0,1-.269,2.132A1.548,1.548,0,0,1,375.884,212.317Z" transform="translate(-337.299 -195.673)"/>
        <path id="Path_1497" data-name="Path 1497" d="M379.112,197.8a11.5,11.5,0,0,1-.041,2.147A11.529,11.529,0,0,1,379.112,197.8Z" transform="translate(-341.759 -189.626)"/>
        <path id="Path_1498" data-name="Path 1498" d="M375.385,185.337a8.485,8.485,0,0,0,2.266,2.814,11.558,11.558,0,0,0,4.139,1.438,5.976,5.976,0,0,1,3.741,2.121,7.454,7.454,0,0,1,.874,2.535,5.417,5.417,0,0,0,1.035,2.458,2.019,2.019,0,0,0,2.416.579,2.473,2.473,0,0,0,.942-1.211,17.222,17.222,0,0,0,.973-4.237,8.939,8.939,0,0,1,1.459-4.061,3.637,3.637,0,0,1,3.818-1.464,3.694,3.694,0,0,1,2.07,2.007,11.279,11.279,0,0,1,.776,2.856q.967,5.272,2.276,10.472a.9.9,0,0,0,.171.393.776.776,0,0,0,.517.222c1.159.15,2.271-.657,3.435-.574,1.433.1,2.483,1.49,3.9,1.718a4.372,4.372,0,0,0,2.587-.574,2.767,2.767,0,0,0,.947-.673,1.4,1.4,0,0,1,.191,1.205,2.018,2.018,0,0,1-1.138,1.035,4.372,4.372,0,0,1-2.587.574c-1.412-.228-2.463-1.614-3.9-1.718-1.164-.083-2.276.724-3.435.574a.776.776,0,0,1-.517-.222.9.9,0,0,1-.171-.393q-1.3-5.174-2.276-10.472a11.279,11.279,0,0,0-.776-2.856,3.694,3.694,0,0,0-2.07-2.007,3.64,3.64,0,0,0-3.818,1.464,8.961,8.961,0,0,0-1.459,4.061,17.519,17.519,0,0,1-.973,4.237,2.473,2.473,0,0,1-.942,1.211,2.026,2.026,0,0,1-2.416-.579,5.417,5.417,0,0,1-1.035-2.457,7.456,7.456,0,0,0-.874-2.535,6.027,6.027,0,0,0-3.741-2.121,11.8,11.8,0,0,1-4.139-1.438,8.484,8.484,0,0,1-2.266-2.814,8.239,8.239,0,0,1-1.418-4.315,5.565,5.565,0,0,1,.062-.59,10.167,10.167,0,0,0,1.355,3.337Z" transform="translate(-373.964 -182)"/>
      </g>
      <path id="Path_1499" data-name="Path 1499" d="M391.272,179.909a18.279,18.279,0,0,0-2.3,7.683c4.61-2.587,8.945-5.427,11.134-6.415,3.813-1.723,18.072-1.464,23.432-1.3a18.074,18.074,0,0,0-1.956-2.825,18.718,18.718,0,0,0-4.268-3.735,18.506,18.506,0,0,0-26.065,6.586Z" transform="translate(-199.948 -161.948)" opacity="0.1"/>
      <path id="Path_1500" data-name="Path 1500" d="M461.745,207.754c2.489.766,6.55-.714,10.761-2.835a20.293,20.293,0,0,0,1.588-2.339l-14.207,2.68C458.946,205.9,458.708,206.817,461.745,207.754Z" transform="translate(-286.874 -177.464)" opacity="0.1"/>
      <path id="Path_1501" data-name="Path 1501" d="M419.035,154.058s13.581-.776,17.4,6.6l.616,6.534,1.035-.114.207,4.444s-20.757-.905-25.481,1.226-19.4,12.872-25.284,11.061.517-3.492.517-3.492,8.1-3.43,8.1-6.12S398.148,157.292,419.035,154.058Z" transform="translate(-212.67 -154.035)" fill="#444053"/>
      <path id="Path_1502" data-name="Path 1502" d="M384.047,622.28s-8.666,8.407-12.417,7.761C371.63,630.041,382.236,629.135,384.047,622.28Z" transform="translate(-151.488 -380.023)" opacity="0.1"/>
      <g id="Group_317" data-name="Group 317" transform="translate(96.51 96.234)">
        <path id="Path_1285" data-name="Path 1285" d="M181.264,221.355v-.215a2.227,2.227,0,0,0,.008-.235c.008-.073.016-.15.02-.231s.02-.158.032-.231l.024-.235,0-.016v-.008c.016-.069.024-.142.049-.219a1.422,1.422,0,0,1,.045-.251c.024-.081.036-.166.057-.239.02-.093.045-.174.065-.259a.814.814,0,0,0,.053-.194l.016-.032.008-.02c.02-.089.057-.166.073-.255.028-.069.053-.158.093-.235a1.924,1.924,0,0,1,.081-.231c.028-.081.057-.158.093-.239a1.369,1.369,0,0,0,.081-.186v-.012l.012-.024c.036-.077.073-.154.113-.227a1.792,1.792,0,0,1,.117-.255c.049-.093.089-.182.15-.283s.105-.2.158-.291a.542.542,0,0,0,.057-.089l.008-.02c.121-.2.235-.393.36-.583.1-.146.194-.287.3-.425l.024-.02c.057-.093.13-.174.19-.267.057-.073.117-.142.174-.223s.126-.15.19-.215.125-.138.19-.206l.024-.032.04-.036a1.4,1.4,0,0,0,.13-.138c.069-.065.134-.134.2-.194s.138-.138.206-.194.15-.126.215-.186l.125-.1V213.8c.024-.024.061-.041.085-.065.073-.053.138-.109.207-.158a1.971,1.971,0,0,1,.211-.15c.057-.04.13-.085.2-.134s.134-.081.2-.121l.049-.028,35.964-20.771.158-.077c.061-.041.13-.073.19-.105a1.213,1.213,0,0,1,.2-.085,1.871,1.871,0,0,1,.194-.085l.186-.073.036-.008.016-.008.138-.048c.073-.024.13-.036.2-.053s.138-.028.2-.04.142-.024.21-.041c.045,0,.085-.008.138-.008l.016-.008h.061a1.95,1.95,0,0,1,.219-.008c.081,0,.166,0,.251.008s.182.024.271.04c.105.028.215.057.324.093a3.331,3.331,0,0,1,.389.174l49.287,28.649a2.145,2.145,0,0,0-.7-.263h-.008a2.654,2.654,0,0,0-.81-.049l-.008.008a3.235,3.235,0,0,0-.878.19l-.024.008a6.154,6.154,0,0,0-.959.433l-35.964,20.772a8.074,8.074,0,0,0-.955.66v0a9.558,9.558,0,0,0-.866.81l-.036.036a10.217,10.217,0,0,0-.777.943l-.012.012,0,.02a8.686,8.686,0,0,0-.68,1.028l-.041.057a10.643,10.643,0,0,0-1.267,3.461l-.008.028a7.6,7.6,0,0,0-.089,1.15,5.3,5.3,0,0,0,.089,1.016l.008.036a3.481,3.481,0,0,0,.555,1.271,2.509,2.509,0,0,0,.741.721l-49.291-28.649a2.387,2.387,0,0,1-.741-.712c-.024-.045-.069-.057-.089-.093-.061-.109-.126-.21-.182-.336a1.391,1.391,0,0,1-.113-.263q-.043-.121-.085-.255c-.028-.069-.036-.154-.061-.235l-.024-.1-.008-.024a.941.941,0,0,1-.012-.105c-.016-.077-.02-.15-.041-.231l-.02-.219a2.053,2.053,0,0,1-.008-.223,1.718,1.718,0,0,1-.008-.206Z" transform="translate(-181.264 -171.857)" fill="#3c3c3c"/>
        <g id="Group_195" data-name="Group 195" transform="translate(49.291 48.505)">
          <g id="Group_194" data-name="Group 194">
            <path id="Path_1286" data-name="Path 1286" d="M198.176,220.221a10.436,10.436,0,0,0-4.736,8.21c.008,3,2.158,4.23,4.769,2.72l35.969-20.759a10.476,10.476,0,0,0,4.736-8.214c-.008-3.028-2.137-4.247-4.773-2.729Z" transform="translate(-193.44 -198.797)" fill="#272727"/>
          </g>
        </g>
        <path id="Path_1289" data-name="Path 1289" d="M182.8,215.136c0-.057.008-.121.008-.182v-.2c.012-.069.016-.134.024-.194l.024-.206a1.7,1.7,0,0,1,.032-.206v-.016a1.015,1.015,0,0,0,.028-.2c.008-.065.036-.142.045-.206s.036-.146.057-.219a1.8,1.8,0,0,1,.057-.223c.016-.053.028-.113.045-.166l0-.032.008-.012c.024-.073.049-.146.077-.219a1.189,1.189,0,0,1,.069-.2,2.21,2.21,0,0,1,.077-.21c.024-.065.057-.134.081-.2a.69.69,0,0,1,.073-.158v-.008l.008-.028c.036-.065.065-.13.1-.2a2.169,2.169,0,0,1,.105-.223c.036-.081.077-.162.117-.239a1.7,1.7,0,0,1,.158-.259l.032-.077.008-.016c.105-.166.215-.344.316-.51.085-.125.17-.243.259-.36l.024-.024c.053-.081.105-.154.166-.231a1.616,1.616,0,0,0,.158-.2l.158-.178c.057-.065.109-.121.17-.182l.02-.024.028-.036a.986.986,0,0,0,.113-.113c.065-.061.117-.121.174-.174s.126-.113.186-.174.121-.109.182-.158l.105-.085h0a.461.461,0,0,1,.085-.061,1.128,1.128,0,0,1,.17-.142c.065-.041.121-.085.182-.121l.178-.121c.061-.041.105-.069.17-.105l.045-.02,31.236-18.039c.032-.024.085-.045.125-.077.061-.028.113-.053.17-.081s.117-.053.174-.081.109-.049.162-.073a1.46,1.46,0,0,1,.174-.057l.016-.012.028,0a.446.446,0,0,1,.117-.041c.053-.02.113-.036.166-.053s.121-.02.178-.036.113-.02.17-.028.085-.008.13-.008l0-.008h.057a1.571,1.571,0,0,1,.194-.008,1.95,1.95,0,0,1,.215.008c.085.008.158.024.231.036a2.788,2.788,0,0,1,.291.077,1.663,1.663,0,0,1,.332.158L263.9,214.562a1.953,1.953,0,0,0-.6-.235h-.008a2.337,2.337,0,0,0-.7-.036l-.024,0a3.453,3.453,0,0,0-.753.166l-.024.008a4.278,4.278,0,0,0-.826.38l-31.244,18.035a5.985,5.985,0,0,0-.814.579l-.02.008a8.477,8.477,0,0,0-.745.692l-.032.036a9.387,9.387,0,0,0-.672.81l-.012.016-.008.016a7.018,7.018,0,0,0-.583.891l-.044.053a9.341,9.341,0,0,0-1.093,3.008l-.008.028a6.379,6.379,0,0,0-.077,1,4.741,4.741,0,0,0,.085.886v.02a2.843,2.843,0,0,0,.486,1.109,2.1,2.1,0,0,0,.631.623l-42.8-24.876a2.242,2.242,0,0,1-.644-.623c-.016-.036-.061-.049-.077-.081a2.439,2.439,0,0,1-.162-.283c-.032-.073-.065-.158-.093-.235s-.049-.142-.077-.215a1.849,1.849,0,0,1-.049-.215l-.016-.081-.008-.028a.356.356,0,0,0-.02-.089c-.008-.061-.02-.125-.028-.194s-.016-.13-.02-.2a.982.982,0,0,1-.012-.19v-.174Z" transform="translate(-176.576 -178.917)" fill="#d1d0e1"/>
        <g id="Group_199" data-name="Group 199" transform="translate(49.04 35.366)">
          <g id="Group_198" data-name="Group 198">
            <path id="Path_1290" data-name="Path 1290" d="M197.487,214.152a9.054,9.054,0,0,0-4.109,7.133c0,2.607,1.87,3.668,4.145,2.356l31.228-18.027a9.071,9.071,0,0,0,4.117-7.137c0-2.619-1.858-3.676-4.137-2.36Z" transform="translate(-193.378 -195.551)" fill="#b9b8cb"/>
          </g>
        </g>
        <path id="Path_1293" data-name="Path 1293" d="M181.939,212.546c0-.061.008-.126.008-.19v-.194c.008-.073.012-.138.024-.2s.012-.133.02-.2a1.771,1.771,0,0,0,.02-.206l.008-.016h0c.016-.065.024-.13.036-.2a1.858,1.858,0,0,1,.04-.206c.024-.081.041-.146.057-.223a1.786,1.786,0,0,1,.057-.223l.049-.166,0-.024.008-.02c.024-.073.049-.146.069-.215a1.709,1.709,0,0,1,.077-.215c.024-.061.04-.126.077-.2.02-.065.053-.134.077-.2a.911.911,0,0,1,.073-.158v-.008l.008-.032c.032-.069.065-.13.1-.194a1.529,1.529,0,0,1,.1-.219,1.7,1.7,0,0,1,.122-.243,1.789,1.789,0,0,1,.154-.267l.036-.065,0-.024c.109-.174.21-.34.32-.506.081-.117.17-.247.259-.364l.012-.024c.065-.073.113-.15.178-.227s.105-.13.154-.194.109-.125.162-.19.105-.117.166-.174l.024-.028.028-.032c.04-.04.077-.073.113-.113a2.34,2.34,0,0,1,.174-.174,2.428,2.428,0,0,1,.186-.174l.178-.158c.036-.032.073-.053.105-.085h0l.077-.069c.061-.041.121-.093.182-.134s.122-.081.182-.13a1.9,1.9,0,0,1,.178-.113,1.751,1.751,0,0,1,.17-.105l.04-.024L217.3,187.382c.036-.024.085-.053.13-.077.061-.028.113-.061.17-.081s.117-.061.174-.085.109-.045.162-.069l.17-.065.016-.008h.024l.125-.045.166-.049c.061-.016.121-.02.178-.036l.17-.028a.782.782,0,0,0,.13-.02h.057c.069,0,.134,0,.194,0s.142,0,.219,0,.154.028.231.041a1.819,1.819,0,0,1,.291.077,1.906,1.906,0,0,1,.332.158l42.8,24.876a2.061,2.061,0,0,0-.6-.239h0a2.524,2.524,0,0,0-.7-.032l-.024,0a3.355,3.355,0,0,0-.757.166l-.02.008a4.029,4.029,0,0,0-.822.381l-31.244,18.031a5.844,5.844,0,0,0-.814.579l-.02.008a8.587,8.587,0,0,0-.749.7l-.032.028c-.231.259-.457.53-.672.818l-.016.016-.012,0c-.206.3-.4.6-.579.9l-.036.053a9.194,9.194,0,0,0-1.1,3.008l-.008.024a6.485,6.485,0,0,0-.073,1,4.685,4.685,0,0,0,.081.887v.024a2.944,2.944,0,0,0,.482,1.105,2,2,0,0,0,.64.624l-42.8-24.872a2.145,2.145,0,0,1-.644-.624c-.016-.032-.061-.049-.077-.081a1.8,1.8,0,0,1-.162-.287,1.9,1.9,0,0,1-.1-.227c-.02-.081-.053-.146-.077-.223l-.053-.21a.435.435,0,0,1-.012-.081l-.012-.024-.012-.093c-.008-.065-.024-.13-.032-.194s-.016-.13-.02-.194a1.521,1.521,0,0,1-.008-.19v-.178Z" transform="translate(-179.206 -186.815)" fill="#252577"/>
        <g id="Group_204" data-name="Group 204" transform="translate(45.547 24.877)">
          <g id="Group_203" data-name="Group 203">
            <g id="Group_202" data-name="Group 202">
              <path id="Path_1294" data-name="Path 1294" d="M196.624,211.557a9.066,9.066,0,0,0-4.109,7.133c0,2.611,1.862,3.668,4.141,2.364l31.228-18.035a9.062,9.062,0,0,0,4.121-7.133c-.008-2.623-1.858-3.676-4.137-2.36Z" transform="translate(-192.515 -192.96)" fill="#0f056b"/>
            </g>
          </g>
        </g>
      </g>
      <path id="Path_1503" data-name="Path 1503" d="M371.484,629.81s-.776,4.325-2.846,3.9S371.484,629.81,371.484,629.81Z" transform="translate(-137.115 -383.658)" opacity="0.1"/>
      <path id="Path_1504" data-name="Path 1504" d="M374.154,769.53s12.3,9.571,10.228,9.83S374.154,769.53,374.154,769.53Z" transform="translate(-153.366 -451.09)" opacity="0.1"/>
      <path id="Path_1519" data-name="Path 1519" d="M373.08,435.96v7.109l8.118-.828V435.96Z" transform="translate(-198.659 -261.629)" fill="#fff" opacity="0.1"/>
      <path id="Path_1520" data-name="Path 1520" d="M352.62,440.29v3.782l8.112-.833V440.29Z" transform="translate(-167.608 -263.719)" fill="#fff" opacity="0.1"/>
      <path id="Path_1521" data-name="Path 1521" d="M434.934,464.395c5.562,7.114,23.928,2.2,23.928,2.2l13.648-14.238,1.852-1.93-3.622-6.726s-1.035.341-2.763.942C458.832,447.839,430.252,458.409,434.934,464.395Z" transform="translate(-274.29 -293.835)" opacity="0.1"/>
      <path id="Path_1522" data-name="Path 1522" d="M433.934,462.395c5.562,7.114,23.928,2.2,23.928,2.2l13.648-14.238,1.852-1.93-3.622-6.726s-1.035.341-2.763.942C457.832,445.839,429.252,456.409,433.934,462.395Z" transform="translate(-272.773 -292.87)" fill="#f4bf87"/>
      <path id="Path_1523" data-name="Path 1523" d="M433.38,442.642a30.589,30.589,0,0,0,4.532,7.714l1.852-1.93-3.622-6.726S435.1,442.041,433.38,442.642Z" transform="translate(-239.153 -292.87)" opacity="0.1"/>
      <path id="Path_1524" data-name="Path 1524" d="M376.38,287.917s13.581,5.174,13.71,19.66a238.033,238.033,0,0,1-1.552,27.938s3.88,21.6-7.114,27.809-21.212,11.382-21.212,11.382-17.565,2.846-19.722,3.751-9.654-10.735-8.49-12.676,17.156-6.726,19.055-9.959,6.576-5.412,6.576-5.412,4.77-3.254,4.962-5.97-1.216-4.656-1.614-5.82-1.842-12.546-1.842-12.546S351.416,285.693,376.38,287.917Z" transform="translate(-136.966 -218.608)" fill="#dce6f2"/>
      <path id="Path_1525" data-name="Path 1525" d="M337.478,380.7s18.367,2.069,16.944,8.537A38.639,38.639,0,0,0,337.478,380.7Z" transform="translate(-104.273 -263.43)" opacity="0.1"/>
      <path id="Path_1526" data-name="Path 1526" d="M353.476,385.7s10.425,7.631,8.511,8.149S353.476,385.7,353.476,385.7Z" transform="translate(-120.271 -265.843)" opacity="0.1"/>
      <path id="Path_1527" data-name="Path 1527" d="M375.923,391.7s2.975,5.35,1.293,5.07S375.923,391.7,375.923,391.7Z" transform="translate(-147.374 -268.739)" opacity="0.1"/>
      <ellipse id="Ellipse_122" data-name="Ellipse 122" cx="13.933" cy="2.354" rx="13.933" ry="2.354" transform="translate(0 317.017)" fill="#6c63ff" opacity="0.1"/>
      <ellipse id="Ellipse_123" data-name="Ellipse 123" cx="13.933" cy="2.354" rx="13.933" ry="2.354" transform="translate(50.79 352.757)" fill="#6c63ff" opacity="0.1"/>
    </g>
    <path id="Path_3527" data-name="Path 3527" d="M563.841,71.829c-3.106,5.405-10.362,8.36-17.176,7.888a27.386,27.386,0,0,1-17.487-8.57c-3.872-4.034-6.593-9.6-4.67-14.614,2.259-5.893,10.259-8.753,17.215-7.98C553.132,49.823,570.917,59.514,563.841,71.829Z" transform="translate(-283.814 332.619)" fill="#e9ecff"/>
    <path id="Path_3528" data-name="Path 3528" d="M148.41,49.095a10.424,10.424,0,0,1,8.064,9c.27,3.958-1.959,7.912-5.288,10.951-2.909,2.654-7.17,4.812-11.434,4.248a9.341,9.341,0,0,1-8.143-9.017C131.544,57.6,137.716,46.36,148.41,49.095Z" transform="translate(529.365 332.598)" fill="#e9ecff"/>
    <path id="Path_3529" data-name="Path 3529" d="M281.265,92.535a10.423,10.423,0,0,1,8.064,9c.271,3.958-1.958,7.912-5.288,10.95-2.908,2.654-7.169,4.812-11.434,4.248a9.341,9.341,0,0,1-8.143-9.016C264.4,101.04,270.57,89.8,281.265,92.535Z" transform="translate(259.607 328.906)" fill="#e9ecff" style="mix-blend-mode: multiply;isolation: isolate"/>
  </g>
</svg>
