<svg xmlns="http://www.w3.org/2000/svg" width="274.627" height="610" viewBox="0 0 274.627 610">
  <g id="Group_174" data-name="Group 174" transform="translate(-319.087 -24.427)">
    <g id="Group_153" data-name="Group 153" transform="translate(463.578 215.072)">
      <path id="Path_1242" data-name="Path 1242" d="M342.393,206.017c-.1,12.572,5.941,25.093,18.143,34.654,24.309,19,63.846,18.9,88.329-.225,9.1-7.117,14.828-15.9,17.193-25.1,0,0,.13-.457.3-1.422q.043-.283.109-.566c.2-1.385.5-3.5.783-6.558.856-9.38,3.344-3.591.733-33.813-4.236-49.634-13.645-68.118-19.246-85.493-1.161-7.443-5.383-14.654-12.645-20.334-17.432-13.631-45.775-13.544-63.3.181A34.694,34.694,0,0,0,361.4,82.229c-7.98,12.332-13.159,30.592-17.084,41.125C335.719,146.466,339.462,170.152,342.393,206.017Z" transform="translate(-339.005 -11.387)" fill="#456372"/>
      <path id="Path_1243" data-name="Path 1243" d="M356.779,81.24a32.586,32.586,0,0,0,.783-6.558C357.294,77.729,356.975,79.854,356.779,81.24Z" transform="translate(-227.84 99.244)" fill="#4f6b7a"/>
      <path id="Path_1244" data-name="Path 1244" d="M384.1,51.67h3.533l-8.662,15.6,4.338,17.7s-4.969,15.51-9.445,17.824-16.416,0-16.416,0L346.891,79.5l3.315-1.756-4.911-20.784,10.018,2.22,27.712-7.508Z" transform="translate(-299.665 -44.682)" fill="#4f6b7a"/>
      <path id="Path_1245" data-name="Path 1245" d="M379.337,52.4s11.367-2.314,7.951,7.7c-3.4,10.011.711,8.466.653,15.4-.08,6.935-3.482,23.105-12.586,15.4s-4.541-6.159-13.638-3.076-18.194-.776-13.646-6.166,3.272-7.7-1.2-15.4,1.291-12.028,6.4-9.489,9.772,7.175,11.679-1.291S379.337,52.4,379.337,52.4Z" transform="translate(-299.887 -50.707)" fill="#688693"/>
      <path id="Path_1246" data-name="Path 1246" d="M370.412,79.878s8.952-4.048,2.126-13.283-23.011-7.646-23.011-7.646,16.62,5.093,17.9,10.41S370.412,79.878,370.412,79.878Z" transform="translate(-273.197 0.183)" fill="#355566"/>
      <path id="Path_1247" data-name="Path 1247" d="M350.2,59.991s9.329,15.6,1.944,17.331C344.735,79.055,349.269,68.21,350.2,59.991Z" transform="translate(-282.906 7.361)" fill="#355566"/>
      <path id="Path_1248" data-name="Path 1248" d="M364.775,57.86s-17.911.682-20.893,7.276,0,13.522,3.417,8.321S353.69,57.28,364.775,57.86Z" transform="translate(-316.156 -6.105)" fill="#355566"/>
      <path id="Path_1249" data-name="Path 1249" d="M352.69,51.216l-.7,32.3-2.372.37-1.639-26.312S350,49.678,352.69,51.216Z" transform="translate(-282.903 -48.762)" fill="#4f6b7a"/>
      <path id="Path_1250" data-name="Path 1250" d="M353.9,65.064l-4.708-10.78s-1.313,4.853-3.112,5.39S350.624,66.225,353.9,65.064Z" transform="translate(-296.745 -28.333)" fill="#7da4b2"/>
      <path id="Path_1251" data-name="Path 1251" d="M358.71,53.274s-1.414-3.656-2.844-1.153c-1.414,2.5-6.536,32.108-6.536,32.108l2.133,1.393Z" transform="translate(-274.429 -47.344)" fill="#4f6b7a"/>
    </g>
    <g id="Group_173" data-name="Group 173" transform="translate(319.087 24.427)">
      <g id="Group_164" data-name="Group 164" transform="translate(0 77.531)">
        <g id="Group_154" data-name="Group 154" transform="translate(41.054 449.647)">
          <path id="Path_1252" data-name="Path 1252" d="M379.767,108.6s-3.62,4.077-14.821,10.548-16.656,12.463-16.656,12.463-11.193,5.274-19.347-2.88S327.02,108.6,327.02,108.6L348.29,97.1s10.337,4.8,14.211,4.8S385.52,94.217,379.767,108.6Z" transform="translate(-324.747 -97.097)" fill="#272727"/>
        </g>
        <g id="Group_155" data-name="Group 155" transform="translate(18.589 11.002)">
          <path id="Path_1253" data-name="Path 1253" d="M395.639,115.684s12.079,7.03,7.24,13.965-4.41,11.89-4.41,11.89-32.812,4.2-49.061-5.187S321.883,77.787,321.883,70.12s-4.157-40.4,22.583-32.173,19.812,65.021,19.812,65.021Z" transform="translate(-321.65 -36.631)" fill="#f1efe8"/>
        </g>
        <g id="Group_156" data-name="Group 156" transform="translate(10.838 171.174)">
          <path id="Path_1254" data-name="Path 1254" d="M365.846,120.394,354.421,78.848,338.12,58.71s-20.131,18.216-17.258,45.064S349.248,226.83,343.5,264.226s13.421,80.545,13.421,80.545,31.636-8.633,39.319-23.018C403.9,307.368,391,265.184,391,237.37S365.846,120.394,365.846,120.394Z" transform="translate(-320.581 -58.71)" fill="#16166b"/>
        </g>
        <g id="Group_157" data-name="Group 157" transform="translate(180.855 148.781)">
          <path id="Path_1255" data-name="Path 1255" d="M344.23,75.288s-2.205-8.734,7.61-17.055c4.831-4.091,2.611-3.8,6.391,3.961,3.874,7.929,14.494,3.373,14.494,3.373s16.2-5.194,19.906-7.334,13.261,30.9-10.076,33.958-35.829.675-35.829.675Z" transform="translate(-344.018 -55.623)" fill="#fad873"/>
        </g>
        <g id="Group_158" data-name="Group 158" transform="translate(41.054 445.723)">
          <path id="Path_1256" data-name="Path 1256" d="M379.767,108.069s-3.62,4.07-14.821,10.548S348.29,131.08,348.29,131.08s-11.193,5.274-19.347-2.88-1.923-20.131-1.923-20.131l21.27-11.513s10.337,4.8,14.211,4.8S385.52,93.676,379.767,108.069Z" transform="translate(-324.747 -96.556)" fill="#3c3c3c"/>
        </g>
        <g id="Group_159" data-name="Group 159" transform="translate(10.203 481.47)">
          <path id="Path_1257" data-name="Path 1257" d="M342.121,101.936s-16.729-3.692-21.422,10.033c-.682,2.031-.022,7.842,7.646,7.842s13.16,29.721,21.19,29.721,25.26,0,22.365-12.006c-.8-3.3-12.528-2.749-12.528-2.749s-5.753-27.806-2.873-27.806-11.592-5.035-11.592-5.035Z" transform="translate(-320.494 -101.484)" fill="#3c3c3c"/>
        </g>
        <g id="Group_160" data-name="Group 160" transform="translate(21.282 207.925)">
          <path id="Path_1258" data-name="Path 1258" d="M415.036,66.656S392.018,75.281,372.83,72.4c-7.907-1.182-12.876-2.865-15.988-4.425-4.432-2.22-5.1-4.2-5.1-4.2s-20.7,21.741-17.824,39.957S371.88,229.661,371.88,229.661s-32.021,47.944-32.021,63.287-17.839,45.064-17.839,45.064l27.61,15.938s67.32-89.773,74.023-119.494,13.689-158.907-6.7-170.681Z" transform="translate(-322.021 -63.776)" fill="#252577"/>
        </g>
        <g id="Group_161" data-name="Group 161" transform="translate(0 9.428)">
          <path id="Path_1259" data-name="Path 1259" d="M444.883,91.078s15.343,7.675,7.675,26.848,9.583,24.933-5.76,40.276,4.237,51.426,12.869,66.769-17.294,44.2-17.294,44.2-58.216,15.314-78.84-5.3-44.092-43.708-44.092-43.708-2.858-58.746,7.682-80.059c5.919-11.977-1.139-69.736,6.536-88.917s28.3-15.626,37.135-11.571C391.295,49.01,444.883,91.078,444.883,91.078Z" transform="translate(-319.087 -36.414)" fill="#d1d0e1"/>
        </g>
        <g id="Group_162" data-name="Group 162" transform="translate(99.748 62.647)">
          <path id="Path_1260" data-name="Path 1260" d="M414.918,145.342s6.492,5.542,7.254,13.957a14.554,14.554,0,0,1-4.4,11.9s-32.812,4.186-49.061-5.187S333,102.729,333,95.062s-3.62-58.637,23.12-50.418,27.465,87.981,27.465,87.981Z" transform="translate(-332.837 -43.75)" fill="#252577"/>
        </g>
        <g id="Group_163" data-name="Group 163" transform="translate(56.381)">
          <path id="Path_1261" data-name="Path 1261" d="M364.631,55.042s-3.184,3.286-3.184,11.252,10.475,14.4,10.475,14.4-15.807,7.545-24.665,2.43-22.894-10.6-20.015-22.1,6.145-25.905,6.145-25.905Z" transform="translate(-326.859 -35.114)" fill="#e2a56d"/>
        </g>
      </g>
      <g id="Group_172" data-name="Group 172" transform="translate(34.537)">
        <g id="Group_165" data-name="Group 165" transform="translate(18.768 24.109)">
          <path id="Path_1262" data-name="Path 1262" d="M390.743,67.164c2.46,11.97.588,22.822-2.481,25.891-2.191,2.191,2.22,13.834-10.845,11.505-2.655-.457-4.89-.783-6.848-1.11-6.21-.914-9.6-1.436-14.044-4.12a32.754,32.754,0,0,1-3.678-2.445c-2.046-1.538-5.129-5.5-8.451-10.758-9.982-15.756-22.3-43.316-16.446-52.863,4.382-7.131,22.677-6.086,38.02-3.823,12.1,1.828,22.292,4.447,22.292,4.447l1.081-.624a29.272,29.272,0,0,1,1.923,19.485C388.589,63.7,388.263,55.231,390.743,67.164Z" transform="translate(-326.435 -27.75)" fill="#f4bf87"/>
        </g>
        <g id="Group_166" data-name="Group 166">
          <path id="Path_1263" data-name="Path 1263" d="M404.1,40.542c-11.31-6.529-22.938-21.582-47.161-14.059,0,0-12.811,2.068-19.151,8.408a46.011,46.011,0,0,0-13.87,30.331c-1.03,18.506,9.249,35.974,17.991,44.716s6.159,10.381,6.159,10.381,15.9-2.126,18.76-2.126S385.6,105.831,385.6,105.831s-7.312-21.516-4.984-21.959c2.757-.515,3.707,6.072,12.311,6.79,0,0,5.745-22.358,13.689-26.95S415.426,47.078,404.1,40.542Z" transform="translate(-323.848 -24.427)" fill="#6e290a"/>
        </g>
        <g id="Group_171" data-name="Group 171" transform="translate(53.305 52.83)">
          <g id="Group_167" data-name="Group 167">
            <path id="Path_1264" data-name="Path 1264" d="M342.041,37.4c-.044-.232-2.183-7.073-5.412-5.434-3.207,1.639-5.687,5.252-5.412,10.664s2.118,12.267,5.724,12.688,4.635,1.059,6.95-1.473a7.167,7.167,0,0,0,1.589-5.9Z" transform="translate(-331.196 -31.709)" fill="#f8e8e0"/>
          </g>
          <g id="Group_168" data-name="Group 168" transform="translate(1.387 0.698)">
            <path id="Path_1265" data-name="Path 1265" d="M342.252,37.49c-.073-.225-2.213-7.066-5.419-5.434s-5.695,5.259-5.426,10.664,2.132,12.274,5.731,12.7,4.628,1.052,6.943-1.473a7.188,7.188,0,0,0,1.6-5.9Z" transform="translate(-331.387 -31.805)" fill="#f4bf87"/>
          </g>
          <g id="Group_169" data-name="Group 169" transform="translate(3.195 2.824)">
            <path id="Path_1266" data-name="Path 1266" d="M337.661,36.891s-1.545,3.011-2.14,4.324-1.335,3.54-.733,4.73a15.843,15.843,0,0,0,1.19,2.009,49.427,49.427,0,0,1,1.3-7.61c.747-2.031,1.146-3.867.428-5.535s-1.2-3.751-2.873-2.118a9.136,9.136,0,0,0-3.185,6.87c-.1,3.381.508,7.058,1.843,8.771a10.892,10.892,0,0,0,3.279,2.706s-3.866-2.263-4.171-6.181.116-9.83,1.407-10.693,1.472-1.052,1.4.392-1.146,3.482-.029,2.916,1.48-2.539,2-1.647S337.661,36.891,337.661,36.891Z" transform="translate(-331.636 -32.098)" fill="#d5a980"/>
          </g>
          <g id="Group_170" data-name="Group 170" transform="translate(8.62 11.171)">
            <path id="Path_1267" data-name="Path 1267" d="M332.984,36.129s.914-3.047,1.552-2.873.762.21,1.045,1.32.3,1.509,1.32,1.342,1.807-.929.776.377-1.074-.218-2.612.573-1.248,2.184-2.227,2.155-.138-2.089.24-2.655Z" transform="translate(-332.384 -33.249)" fill="#d5a980"/>
          </g>
        </g>
      </g>
      <path id="Path_1268" data-name="Path 1268" d="M321.456,55.827l72.224,41.7V85.464l-72.224-41.7Z" transform="translate(-304.272 96.506)" fill="#252577"/>
      <path id="Path_1269" data-name="Path 1269" d="M328.464,104.464s9.01.595,10.453,11.9,11.36,26.043,17.193,25.282,13.783-1.7,16.286-4.483c2.532-2.8,2.241-7.436,2.241-7.436a5.72,5.72,0,0,1,.015,7.254c-2.916,4.062-21.038,9.735-24.694,6.971-13.065-9.88-14.813-21.306-17.135-26.239s-5.47-7.98-6.964-8.611-5.8-1.93-5.8-1.93l3.38-4.447Z" transform="translate(-313.029 465.312)" fill="#272727"/>
      <path id="Path_1270" data-name="Path 1270" d="M330.21,131.211l19.754,10.163s-6.159-7.385-8.713-12.2c-4.977-9.373-8.241-19.681-9.583-21.437-2.038-2.662-11.9-6.819-11.607-3.141S330.21,131.211,330.21,131.211Z" transform="translate(-313.034 467.895)" fill="#646464"/>
    </g>
  </g>
</svg>
