<svg xmlns="http://www.w3.org/2000/svg" width="657.818" height="717.878" viewBox="0 0 657.818 717.878">
  <g id="Group_238" data-name="Group 238" transform="translate(-164.021 -142.421)">
    <path id="Path_1271" data-name="Path 1271" d="M164.021,504.468l127.454,70.544L821.839,268.8,697.445,196.517Z" transform="translate(0 285.288)" fill="none"/>
    <g id="Group_179" data-name="Group 179" transform="translate(692.482 142.421)" style="isolation: isolate">
      <g id="Group_176" data-name="Group 176" transform="translate(0 8.731)">
        <g id="Group_175" data-name="Group 175">
          <path id="Path_1272" data-name="Path 1272" d="M248.254,143.813l1.183,420.766,15.029,8.712-1.2-420.753Z" transform="translate(-248.254 -143.813)" fill="#646464"/>
        </g>
      </g>
      <g id="Group_177" data-name="Group 177" transform="translate(15.016 8.731)">
        <path id="Path_1273" data-name="Path 1273" d="M250.648,152.537l1.2,420.753,15.117-8.712-1.2-420.766Z" transform="translate(-250.648 -143.813)" fill="#d1d0e1"/>
      </g>
      <g id="Group_178" data-name="Group 178">
        <path id="Path_1274" data-name="Path 1274" d="M248.254,151.152l15.016,8.724,15.112-8.724-15.007-8.731Z" transform="translate(-248.254 -142.421)" fill="#def6ff"/>
      </g>
    </g>
    <g id="Group_183" data-name="Group 183" transform="translate(235.452 407.387)" style="isolation: isolate">
      <g id="Group_180" data-name="Group 180" transform="translate(0 249.336)">
        <path id="Path_1275" data-name="Path 1275" d="M175.407,224.4l.061,15.011,83.06,48.276-.031-15.011Z" transform="translate(-175.407 -224.398)" fill="#646464"/>
      </g>
      <g id="Group_181" data-name="Group 181" transform="translate(83.091 48.282)">
        <path id="Path_1276" data-name="Path 1276" d="M188.651,441.682l.031,15.011,431.876-249.33-.049-15.011Z" transform="translate(-188.651 -192.351)" fill="#d1d0e1"/>
      </g>
      <g id="Group_182" data-name="Group 182">
        <path id="Path_1277" data-name="Path 1277" d="M175.407,433.991,258.5,482.267l431.858-249.33-83.087-48.282Z" transform="translate(-175.407 -184.655)" fill="#e6ebff"/>
      </g>
    </g>
    <path id="Path_1278" data-name="Path 1278" d="M188.522,251.074c0-.094.012-.195.012-.289s.013-.2.013-.307.012-.213.019-.314.019-.2.031-.314.038-.207.05-.307v-.031c.019-.1.031-.2.056-.295.013-.119.044-.226.057-.345a1.943,1.943,0,0,0,.088-.326,2.638,2.638,0,0,1,.088-.339l.075-.27.012-.038.013-.031c.031-.113.069-.22.107-.333a1.55,1.55,0,0,1,.113-.326l.119-.314c.031-.094.081-.207.125-.307.025-.081.075-.169.107-.257v-.013l.031-.031c.038-.113.088-.213.132-.314a2.457,2.457,0,0,1,.169-.339c.05-.119.126-.257.188-.383s.151-.27.232-.4l.057-.107.025-.031c.144-.27.314-.521.477-.784.132-.194.263-.389.408-.571l.031-.038c.082-.119.157-.232.251-.345s.169-.207.251-.308.163-.194.245-.288a3.511,3.511,0,0,1,.257-.27l.038-.05a.078.078,0,0,0,.05-.05l.169-.182c.094-.094.182-.182.276-.27s.182-.176.282-.257.188-.163.276-.245c.063-.05.107-.1.163-.138V240.9l.132-.082c.088-.075.169-.144.264-.22s.188-.126.289-.2c.088-.057.182-.107.27-.169a1.228,1.228,0,0,1,.276-.163l.063-.044,48.408-27.943a1.006,1.006,0,0,1,.2-.119,2.025,2.025,0,0,1,.257-.138l.27-.119c.082-.038.176-.075.251-.113s.176-.057.263-.094l.031-.013.031-.013c.063-.025.125-.038.194-.063.094-.019.17-.05.257-.069a1.168,1.168,0,0,1,.276-.05,2.058,2.058,0,0,1,.27-.05l.2-.025h.019l.063-.006c.1-.006.2-.019.307-.019s.226.013.333.025c.125.013.238.025.383.05a3.478,3.478,0,0,1,.427.126,2.673,2.673,0,0,1,.508.232L314.2,250.176a2.753,2.753,0,0,0-.935-.351l-.013-.006a3.594,3.594,0,0,0-1.079-.057h-.038a5.522,5.522,0,0,0-1.167.257l-.038.013a7.769,7.769,0,0,0-1.28.6l-48.408,27.95a8.925,8.925,0,0,0-1.274.885l-.013.006a11.216,11.216,0,0,0-1.173,1.092l-.044.044c-.358.4-.722.822-1.048,1.261l-.025.031-.012.013a13.468,13.468,0,0,0-.9,1.393l-.063.088a14.365,14.365,0,0,0-1.7,4.636l-.013.05a10.069,10.069,0,0,0-.113,1.55,7.379,7.379,0,0,0,.126,1.38v.019a4.33,4.33,0,0,0,.759,1.719,3.459,3.459,0,0,0,.979.979L190.4,255.176a3.139,3.139,0,0,1-.991-.979c-.031-.044-.107-.069-.125-.119a3.285,3.285,0,0,1-.245-.439,2.68,2.68,0,0,1-.151-.37c-.038-.1-.075-.213-.126-.32a1.967,1.967,0,0,0-.082-.333l-.025-.132-.006-.038a1.15,1.15,0,0,0-.019-.144c-.019-.1-.031-.2-.056-.3-.006-.107-.013-.2-.025-.3a2.558,2.558,0,0,0-.013-.307v-.27Z" transform="translate(129.213 362.675)" fill="#d1d0e1"/>
    <g id="Group_185" data-name="Group 185" transform="translate(384.08 612.423)">
      <g id="Group_184" data-name="Group 184">
        <path id="Path_1279" data-name="Path 1279" d="M205.471,246.173a14.052,14.052,0,0,0-6.374,11.048c0,4.034,2.892,5.69,6.418,3.658l48.4-27.949a14.027,14.027,0,0,0,6.387-11.055c-.013-4.072-2.88-5.7-6.418-3.651Z" transform="translate(-199.097 -217.337)" fill="#b9b8cb"/>
      </g>
    </g>
    <path id="Path_1280" data-name="Path 1280" d="M187.658,248.488l.006-.282c0-.113.019-.213.019-.307s.012-.207.019-.32.019-.207.031-.32.038-.207.05-.314v-.019c.025-.107.038-.207.063-.3.006-.113.044-.226.056-.333a3.346,3.346,0,0,0,.082-.339,2.5,2.5,0,0,1,.094-.339c.025-.082.05-.182.069-.263l.013-.038.019-.031a2.572,2.572,0,0,1,.1-.332,2.276,2.276,0,0,1,.119-.326c.031-.107.075-.213.107-.314a2.676,2.676,0,0,1,.138-.307,1,1,0,0,1,.1-.257v-.012l.012-.038c.057-.107.107-.207.157-.314a2.366,2.366,0,0,1,.163-.339q.085-.188.188-.377a4.556,4.556,0,0,1,.238-.408c.019-.025.025-.069.05-.1l.019-.031c.157-.27.32-.533.483-.784.138-.195.264-.4.4-.565l.044-.05a3.118,3.118,0,0,1,.251-.339l.245-.307c.094-.1.163-.2.251-.289s.163-.188.257-.282l.038-.031.05-.063c.044-.056.113-.119.163-.176.1-.094.176-.176.276-.264a3.825,3.825,0,0,1,.282-.27q.141-.113.282-.245a1.659,1.659,0,0,0,.157-.138h0c.044-.025.081-.063.138-.094a2.253,2.253,0,0,1,.264-.207,2.152,2.152,0,0,1,.289-.2c.088-.057.182-.126.27-.182s.176-.113.263-.163a.257.257,0,0,0,.069-.044l48.4-27.937a1.346,1.346,0,0,1,.207-.119c.088-.044.169-.094.251-.138s.195-.088.27-.125c.094-.038.188-.075.257-.107.088-.031.182-.063.263-.1l.031-.012.038-.006a1.7,1.7,0,0,1,.188-.063c.082-.031.176-.05.257-.075s.188-.038.27-.057.195-.031.264-.044.138-.013.207-.019h.013l.075-.019c.107,0,.2-.012.307-.012a1.916,1.916,0,0,1,.333.031,2.15,2.15,0,0,1,.358.044c.163.038.307.075.458.119a3.454,3.454,0,0,1,.508.245L313.34,247.59a2.934,2.934,0,0,0-.941-.357l-.006-.006a4.086,4.086,0,0,0-1.079-.05l-.038.006a4.3,4.3,0,0,0-1.173.257l-.038.013a7.389,7.389,0,0,0-1.28.59l-48.415,27.95a10.068,10.068,0,0,0-1.267.885l-.025.013a13.316,13.316,0,0,0-1.154,1.092l-.056.05a15.7,15.7,0,0,0-1.035,1.255l-.025.031-.013.012a13.273,13.273,0,0,0-.9,1.38l-.069.088a14.609,14.609,0,0,0-1.7,4.655l-.013.05a10.647,10.647,0,0,0-.113,1.543,7.664,7.664,0,0,0,.125,1.362v.05a4.578,4.578,0,0,0,.759,1.706,3.186,3.186,0,0,0,.979.966l-66.339-38.552a3.14,3.14,0,0,1-.985-.966c-.038-.05-.1-.069-.125-.126a1.945,1.945,0,0,1-.238-.433,2.28,2.28,0,0,1-.157-.364c-.038-.107-.075-.226-.119-.339-.025-.1-.05-.213-.082-.326l-.025-.132-.013-.038a.4.4,0,0,0-.031-.144c-.006-.094-.031-.194-.044-.307l-.025-.3a1.613,1.613,0,0,0-.019-.295v-.27Z" transform="translate(124.656 349.006)" fill="#252577"/>
    <g id="Group_188" data-name="Group 188" transform="translate(378.659 596.166)">
      <g id="Group_187" data-name="Group 187">
        <g id="Group_186" data-name="Group 186">
          <path id="Path_1281" data-name="Path 1281" d="M204.6,243.577a14.047,14.047,0,0,0-6.368,11.054c0,4.034,2.9,5.684,6.418,3.658l48.4-27.95a14.079,14.079,0,0,0,6.387-11.054c-.013-4.072-2.88-5.7-6.424-3.658Z" transform="translate(-198.233 -214.745)" fill="#0f056b"/>
        </g>
      </g>
    </g>
    <g id="Group_193" data-name="Group 193" transform="translate(235.452 276.627)" style="isolation: isolate">
      <g id="Group_190" data-name="Group 190" transform="translate(0 249.34)">
        <g id="Group_189" data-name="Group 189">
          <path id="Path_1282" data-name="Path 1282" d="M175.407,203.556l.061,15.01,83.06,48.279-.031-15.016Z" transform="translate(-175.407 -203.556)" fill="#646464"/>
        </g>
      </g>
      <g id="Group_191" data-name="Group 191" transform="translate(83.091 48.279)">
        <path id="Path_1283" data-name="Path 1283" d="M188.651,420.842l.031,15.016L620.557,186.516l-.049-15.007Z" transform="translate(-188.651 -171.508)" fill="#d1d0e1"/>
      </g>
      <g id="Group_192" data-name="Group 192">
        <path id="Path_1284" data-name="Path 1284" d="M175.407,413.153,258.5,461.425,690.356,212.092l-83.087-48.279Z" transform="translate(-175.407 -163.813)" fill="#e6ebff"/>
      </g>
    </g>
    <path id="Path_1285" data-name="Path 1285" d="M181.264,237.646v-.333a3.451,3.451,0,0,0,.013-.364c.013-.113.025-.232.031-.358s.031-.245.05-.358l.038-.364.006-.025v-.013c.025-.107.038-.22.075-.339a2.2,2.2,0,0,1,.069-.389c.038-.125.056-.257.088-.37.031-.144.069-.27.1-.4a1.262,1.262,0,0,0,.081-.3l.025-.05.012-.031c.031-.138.088-.257.113-.4.044-.107.082-.245.144-.364a2.987,2.987,0,0,1,.126-.358c.044-.125.088-.245.144-.37a2.117,2.117,0,0,0,.126-.289v-.019l.019-.038c.056-.119.113-.238.176-.351a2.78,2.78,0,0,1,.182-.4c.075-.144.138-.282.232-.439.075-.151.163-.307.245-.452a.839.839,0,0,0,.088-.138l.013-.031c.188-.307.364-.609.558-.9.157-.226.3-.445.471-.659l.038-.031c.088-.144.2-.27.295-.414.088-.113.182-.219.27-.345s.195-.232.295-.332.194-.213.295-.32l.038-.05.063-.056a2.183,2.183,0,0,0,.2-.213c.107-.1.207-.207.307-.3s.213-.213.32-.3.232-.195.333-.289l.194-.151v-.012c.038-.038.094-.063.132-.1.113-.082.213-.169.32-.245a3.057,3.057,0,0,1,.326-.232c.088-.063.2-.132.307-.207s.207-.125.307-.188l.075-.044,55.736-32.191.245-.119c.094-.063.2-.113.3-.163a1.883,1.883,0,0,1,.307-.132,2.907,2.907,0,0,1,.3-.132l.288-.113.057-.012.025-.013.213-.075c.113-.038.2-.057.307-.082s.213-.044.307-.063c.113-.025.22-.038.326-.063.069,0,.132-.013.213-.013l.025-.012h.094a3.018,3.018,0,0,1,.339-.012c.126,0,.257,0,.389.012s.282.038.42.063c.163.044.333.088.5.144a5.158,5.158,0,0,1,.6.27l76.383,44.4a3.323,3.323,0,0,0-1.085-.408h-.013a4.115,4.115,0,0,0-1.255-.075l-.013.012a5.012,5.012,0,0,0-1.361.295l-.038.012a9.537,9.537,0,0,0-1.487.671L264.994,269.31a12.518,12.518,0,0,0-1.481,1.022v.006a14.823,14.823,0,0,0-1.343,1.255l-.057.057a15.837,15.837,0,0,0-1.2,1.462l-.019.019-.006.031a13.462,13.462,0,0,0-1.054,1.593l-.063.088a16.493,16.493,0,0,0-1.964,5.364l-.013.044a11.779,11.779,0,0,0-.138,1.782,8.217,8.217,0,0,0,.138,1.575l.013.056a5.394,5.394,0,0,0,.859,1.97,3.889,3.889,0,0,0,1.148,1.117l-76.39-44.4a3.7,3.7,0,0,1-1.148-1.1c-.038-.069-.107-.088-.138-.144-.094-.169-.195-.326-.282-.521a2.157,2.157,0,0,1-.176-.408q-.066-.188-.132-.4c-.044-.107-.056-.238-.094-.364l-.038-.157-.013-.038a1.462,1.462,0,0,1-.019-.163c-.025-.119-.031-.232-.063-.358l-.031-.339a3.181,3.181,0,0,1-.013-.345,2.663,2.663,0,0,1-.013-.32Z" transform="translate(90.936 260)" fill="#3c3c3c"/>
    <g id="Group_195" data-name="Group 195" transform="translate(348.589 496.107)">
      <g id="Group_194" data-name="Group 194">
        <path id="Path_1286" data-name="Path 1286" d="M200.78,232a16.173,16.173,0,0,0-7.34,12.723c.013,4.655,3.344,6.556,7.39,4.216l55.743-32.172a16.235,16.235,0,0,0,7.34-12.729c-.013-4.693-3.313-6.581-7.4-4.229Z" transform="translate(-193.44 -198.797)" fill="#272727"/>
      </g>
    </g>
    <path id="Path_1287" data-name="Path 1287" d="M207.088,240.644v-.276a2.557,2.557,0,0,0,.013-.314l.025-.295a2.573,2.573,0,0,1,.044-.307c.006-.1.025-.213.038-.308l.006-.019v-.012a1.608,1.608,0,0,1,.057-.282c.019-.113.031-.22.057-.333s.044-.22.069-.32c.031-.119.069-.232.094-.339a.819.819,0,0,0,.063-.251l.019-.044.019-.025c.025-.119.069-.219.088-.332.05-.1.075-.207.132-.32a1.487,1.487,0,0,1,.1-.295c.044-.094.082-.207.125-.3a2.109,2.109,0,0,0,.1-.251v-.013l.019-.038c.05-.1.094-.2.151-.3s.094-.219.144-.332c.069-.119.132-.245.2-.37s.144-.263.213-.389a.255.255,0,0,0,.063-.113l.012-.025c.169-.251.32-.508.477-.765.132-.188.257-.376.408-.552l.025-.031c.082-.119.169-.226.257-.351.069-.1.144-.182.226-.282s.151-.2.251-.295c.075-.082.157-.176.245-.27l.031-.038.056-.044c.05-.063.119-.125.157-.182l.27-.257c.094-.088.182-.182.276-.263s.188-.157.276-.232l.163-.132v-.006a.522.522,0,0,0,.107-.094c.1-.069.182-.132.282-.207a2.379,2.379,0,0,1,.276-.188c.069-.056.163-.119.251-.182s.176-.107.27-.157l.063-.038,47.147-27.235c.075-.044.151-.063.213-.1a1.98,1.98,0,0,1,.245-.138,1.381,1.381,0,0,1,.27-.113c.081-.044.176-.082.251-.113l.251-.1.038-.006.019-.013.194-.056c.082-.031.169-.05.257-.075s.182-.038.263-.057.176-.031.27-.05c.057,0,.113-.019.182-.019h.1c.094-.006.188-.006.282-.006s.22,0,.333.006a2.543,2.543,0,0,1,.358.044c.132.044.282.082.427.138a2.8,2.8,0,0,1,.5.226l64.639,37.561a3.013,3.013,0,0,0-.922-.345h-.013a3.859,3.859,0,0,0-1.054-.063l-.012.012a4.538,4.538,0,0,0-1.161.251l-.019.006a6.575,6.575,0,0,0-1.261.577l-47.166,27.228a11.486,11.486,0,0,0-1.249.866v.013a13.907,13.907,0,0,0-1.148,1.06l-.038.05a12.024,12.024,0,0,0-1.016,1.23l-.019.025-.012.013a12.8,12.8,0,0,0-.885,1.349l-.057.088a13.616,13.616,0,0,0-1.656,4.53l-.013.038a8.991,8.991,0,0,0-.119,1.506,6.3,6.3,0,0,0,.119,1.336l.013.05a4.509,4.509,0,0,0,.728,1.669,3.26,3.26,0,0,0,.96.941l-64.632-37.561a3.247,3.247,0,0,1-.973-.947c-.031-.056-.094-.069-.113-.119a3.611,3.611,0,0,1-.238-.439,2.3,2.3,0,0,1-.151-.339,3.388,3.388,0,0,1-.113-.332c-.025-.1-.05-.207-.082-.32l-.031-.126v-.031l-.019-.138c-.025-.094-.038-.2-.057-.3s-.019-.2-.031-.295-.006-.188-.006-.289a1.887,1.887,0,0,1-.013-.264Z" transform="translate(227.126 313.102)" fill="#d1d0e1"/>
    <g id="Group_197" data-name="Group 197" transform="translate(498.852 552.451)">
      <g id="Group_196" data-name="Group 196">
        <path id="Path_1288" data-name="Path 1288" d="M223.6,235.862a13.736,13.736,0,0,0-6.211,10.766c.012,3.946,2.823,5.552,6.249,3.57l47.173-27.222a13.732,13.732,0,0,0,6.211-10.766c-.013-3.971-2.811-5.565-6.255-3.576Z" transform="translate(-217.391 -207.778)" fill="#b9b8cb"/>
      </g>
    </g>
    <path id="Path_1289" data-name="Path 1289" d="M182.8,229.282c0-.088.013-.188.013-.282v-.314c.019-.107.025-.207.038-.3l.038-.32a2.642,2.642,0,0,1,.05-.32v-.025a1.572,1.572,0,0,0,.044-.308c.013-.1.056-.22.069-.32.031-.119.056-.226.088-.339a2.79,2.79,0,0,1,.088-.345c.025-.082.044-.176.069-.257l.006-.05.012-.019c.038-.113.075-.226.119-.339a1.843,1.843,0,0,1,.107-.314,3.426,3.426,0,0,1,.119-.326c.038-.1.088-.207.125-.314a1.069,1.069,0,0,1,.113-.245v-.012l.012-.044c.057-.1.1-.2.151-.307a3.364,3.364,0,0,1,.163-.345c.056-.126.119-.251.182-.37a2.639,2.639,0,0,1,.245-.4l.05-.119.013-.025c.163-.257.333-.533.489-.791.132-.194.263-.376.4-.558l.038-.038c.081-.125.163-.238.257-.358a2.509,2.509,0,0,0,.245-.307l.245-.276c.088-.1.169-.188.263-.282l.031-.038.044-.057a1.53,1.53,0,0,0,.176-.176c.1-.094.182-.188.27-.27s.195-.176.289-.27.188-.17.282-.245l.163-.132h0a.712.712,0,0,1,.132-.094,1.746,1.746,0,0,1,.264-.22c.1-.063.188-.132.282-.188l.276-.188c.094-.063.163-.107.263-.163l.069-.031L237.6,190.284c.05-.038.132-.069.194-.119.094-.044.176-.081.264-.125s.182-.082.27-.126.169-.075.251-.113a2.262,2.262,0,0,1,.27-.088l.025-.019.044-.006a.688.688,0,0,1,.182-.063c.081-.031.176-.056.257-.081s.188-.031.276-.056.176-.031.264-.044.132-.012.2-.012l.006-.013h.088a2.431,2.431,0,0,1,.3-.012,3.018,3.018,0,0,1,.333.012c.132.013.245.038.358.057a4.316,4.316,0,0,1,.452.119,2.576,2.576,0,0,1,.514.245l66.339,38.552a3.028,3.028,0,0,0-.935-.364h-.012a3.622,3.622,0,0,0-1.079-.056l-.038.006a5.353,5.353,0,0,0-1.167.257l-.038.013a6.63,6.63,0,0,0-1.28.59l-48.421,27.95a9.277,9.277,0,0,0-1.261.9l-.031.013a13.134,13.134,0,0,0-1.154,1.073l-.05.056a14.54,14.54,0,0,0-1.041,1.255l-.019.025-.012.025a10.879,10.879,0,0,0-.9,1.38l-.069.082a14.476,14.476,0,0,0-1.694,4.661l-.012.044a9.888,9.888,0,0,0-.119,1.543,7.346,7.346,0,0,0,.132,1.374v.031a4.407,4.407,0,0,0,.753,1.719,3.259,3.259,0,0,0,.979.966l-66.333-38.552a3.474,3.474,0,0,1-1-.966c-.025-.057-.094-.075-.119-.126a3.781,3.781,0,0,1-.251-.439c-.05-.113-.1-.245-.144-.364s-.075-.22-.119-.333a2.868,2.868,0,0,1-.075-.332l-.025-.125-.013-.044a.551.551,0,0,0-.031-.138c-.012-.094-.031-.194-.044-.3s-.025-.2-.031-.307a1.521,1.521,0,0,1-.019-.295v-.27Z" transform="translate(99.047 247.786)" fill="#d1d0e1"/>
    <g id="Group_199" data-name="Group 199" transform="translate(348.2 475.746)">
      <g id="Group_198" data-name="Group 198">
        <path id="Path_1290" data-name="Path 1290" d="M199.746,224.378a14.031,14.031,0,0,0-6.368,11.055c0,4.04,2.9,5.684,6.424,3.651l48.4-27.937a14.058,14.058,0,0,0,6.38-11.061c-.006-4.059-2.88-5.7-6.412-3.658Z" transform="translate(-193.378 -195.551)" fill="#b9b8cb"/>
      </g>
    </g>
    <path id="Path_1291" data-name="Path 1291" d="M221.735,231.6c0-.094.013-.188.013-.282V231a2.345,2.345,0,0,1,.038-.3l.031-.32c.006-.107.031-.213.044-.32v-.019a2.629,2.629,0,0,0,.057-.307c.013-.1.05-.22.069-.326a3.421,3.421,0,0,0,.075-.345c.025-.1.057-.22.094-.333.031-.088.05-.182.069-.257l.013-.05.012-.025c.038-.119.075-.219.107-.345.031-.1.069-.207.113-.314s.075-.213.125-.314a2.006,2.006,0,0,1,.126-.32.783.783,0,0,1,.113-.245v-.006l.006-.05c.057-.1.1-.2.151-.307s.113-.22.157-.345c.063-.119.125-.257.195-.37a2.212,2.212,0,0,1,.245-.4.47.47,0,0,1,.05-.113l.013-.038c.163-.251.32-.533.489-.784.126-.188.264-.376.4-.565l.038-.038c.088-.113.163-.238.263-.345.082-.1.163-.207.238-.307s.163-.188.251-.282.163-.182.263-.282l.025-.038.05-.063a2.18,2.18,0,0,0,.176-.169c.094-.094.176-.182.27-.27s.188-.169.282-.27c.1-.081.182-.163.282-.245a1.567,1.567,0,0,0,.163-.138h0c.031-.019.082-.056.132-.081a1.119,1.119,0,0,1,.27-.22c.088-.063.188-.138.282-.2s.188-.119.264-.182c.094-.063.176-.107.276-.163l.063-.038,48.408-27.943a1.7,1.7,0,0,0,.194-.126c.1-.05.182-.075.264-.125a2.052,2.052,0,0,0,.263-.132c.082-.038.182-.069.257-.1.094-.031.188-.069.263-.094l.031-.013.038-.012a1.1,1.1,0,0,1,.188-.063,1.423,1.423,0,0,1,.257-.069c.1-.031.195-.044.264-.069.1-.006.195-.031.276-.044s.132-.013.2-.013l.012-.012h.082a2.531,2.531,0,0,1,.307-.012,2.9,2.9,0,0,1,.326.012,2.62,2.62,0,0,1,.358.063c.163.031.308.075.445.113a3.1,3.1,0,0,1,.527.245l66.333,38.552a2.9,2.9,0,0,0-.929-.364h-.012a4.1,4.1,0,0,0-1.079-.057l-.044.013a4.879,4.879,0,0,0-1.173.257l-.031.013a6.4,6.4,0,0,0-1.28.583L294.454,259.1a9.475,9.475,0,0,0-1.267.891l-.025.013a12.444,12.444,0,0,0-1.154,1.085l-.057.05a14.834,14.834,0,0,0-1.041,1.261l-.019.025-.019.025a11.58,11.58,0,0,0-.9,1.38l-.063.075a14.225,14.225,0,0,0-1.7,4.655l-.006.05a9.875,9.875,0,0,0-.119,1.537,7.814,7.814,0,0,0,.125,1.374v.044a4.421,4.421,0,0,0,.753,1.713,3.379,3.379,0,0,0,.985.972l-66.339-38.565a3.349,3.349,0,0,1-1-.954c-.019-.063-.094-.075-.113-.138a2.93,2.93,0,0,1-.251-.427c-.05-.125-.107-.245-.151-.37-.038-.107-.069-.22-.113-.332s-.056-.22-.088-.326c-.006-.038-.006-.088-.019-.138l-.019-.038a.544.544,0,0,0-.025-.132c-.013-.1-.025-.194-.038-.307s-.031-.195-.044-.307c-.006-.088-.006-.195-.006-.295v-.27Z" transform="translate(304.371 260)" fill="#d1d0e1"/>
    <g id="Group_201" data-name="Group 201" transform="translate(592.457 490.272)">
      <g id="Group_200" data-name="Group 200">
        <path id="Path_1292" data-name="Path 1292" d="M238.679,226.7a14.041,14.041,0,0,0-6.368,11.048c0,4.053,2.892,5.69,6.412,3.658l48.4-27.937a14.049,14.049,0,0,0,6.38-11.061c0-4.065-2.873-5.7-6.412-3.658Z" transform="translate(-232.311 -197.867)" fill="#b9b8cb"/>
      </g>
    </g>
    <path id="Path_1293" data-name="Path 1293" d="M181.939,226.691c0-.094.012-.195.012-.3v-.3c.013-.113.019-.213.038-.307s.019-.207.031-.314a2.747,2.747,0,0,0,.031-.32l.013-.025h0c.025-.1.038-.2.056-.307a2.877,2.877,0,0,1,.063-.32c.038-.125.063-.226.088-.345a2.769,2.769,0,0,1,.088-.345l.075-.257.006-.038.013-.031c.038-.113.075-.226.107-.333a2.654,2.654,0,0,1,.119-.332c.038-.094.063-.195.119-.307.031-.1.081-.207.119-.314a1.413,1.413,0,0,1,.113-.245v-.012l.013-.05c.05-.107.1-.2.157-.3a2.366,2.366,0,0,1,.157-.339,2.632,2.632,0,0,1,.188-.376,2.774,2.774,0,0,1,.238-.414l.056-.1.006-.038c.169-.27.326-.527.5-.784.125-.182.263-.383.4-.565l.019-.038c.1-.113.176-.232.276-.351.082-.1.163-.2.238-.3s.17-.195.251-.295c.082-.081.163-.182.257-.27l.038-.044.044-.05c.063-.063.119-.113.176-.176a3.635,3.635,0,0,1,.27-.27,3.773,3.773,0,0,1,.289-.27l.276-.245c.057-.05.113-.081.163-.132h0l.119-.107c.094-.063.188-.144.282-.207s.188-.125.282-.2a2.941,2.941,0,0,1,.276-.176,2.713,2.713,0,0,1,.264-.163l.063-.038,48.408-27.95c.056-.038.132-.082.2-.119.094-.044.176-.094.263-.126s.182-.094.27-.132c.069-.031.169-.069.251-.107l.264-.1.025-.012h.038l.194-.069.257-.075c.094-.025.188-.031.276-.057l.264-.044a1.214,1.214,0,0,0,.2-.031h.088c.107-.006.207-.006.3-.006s.22,0,.339.006.238.044.358.063a2.822,2.822,0,0,1,.452.119,2.954,2.954,0,0,1,.515.245L307.622,225.8a3.2,3.2,0,0,0-.935-.37h-.006a3.911,3.911,0,0,0-1.085-.05l-.038.006a5.2,5.2,0,0,0-1.173.257l-.031.013a6.245,6.245,0,0,0-1.273.59l-48.421,27.943a9.06,9.06,0,0,0-1.261.9l-.031.013a13.311,13.311,0,0,0-1.161,1.079l-.05.044c-.358.4-.709.822-1.041,1.267l-.025.025-.019.006c-.32.458-.627.922-.9,1.4l-.056.081a14.248,14.248,0,0,0-1.7,4.661l-.012.038a10.049,10.049,0,0,0-.113,1.543,7.259,7.259,0,0,0,.125,1.374v.038a4.562,4.562,0,0,0,.747,1.713,3.1,3.1,0,0,0,.991.966l-66.333-38.546a3.325,3.325,0,0,1-1-.966c-.025-.05-.094-.075-.119-.125a2.791,2.791,0,0,1-.251-.445,2.941,2.941,0,0,1-.151-.351c-.031-.125-.082-.226-.119-.345l-.082-.326a.672.672,0,0,1-.019-.126l-.019-.038-.019-.144c-.012-.1-.038-.2-.05-.3s-.025-.2-.031-.3a2.356,2.356,0,0,1-.013-.295v-.276Z" transform="translate(94.495 234.122)" fill="#252577"/>
    <g id="Group_204" data-name="Group 204" transform="translate(342.786 459.489)">
      <g id="Group_203" data-name="Group 203">
        <g id="Group_202" data-name="Group 202">
          <path id="Path_1294" data-name="Path 1294" d="M198.883,221.782a14.05,14.05,0,0,0-6.368,11.054c0,4.047,2.886,5.684,6.418,3.664l48.4-27.95a14.044,14.044,0,0,0,6.387-11.055c-.013-4.065-2.88-5.7-6.412-3.658Z" transform="translate(-192.515 -192.96)" fill="#0f056b"/>
        </g>
      </g>
    </g>
    <path id="Path_1295" data-name="Path 1295" d="M206.281,239.354c0-.094.013-.194.013-.295v-.3c.013-.113.025-.213.044-.307,0-.113.013-.213.019-.32a2.6,2.6,0,0,0,.038-.32l.012-.019h0c.019-.107.038-.2.063-.307s.038-.22.05-.326a1.8,1.8,0,0,0,.088-.339,22.606,22.606,0,0,1,.169-.6l.012-.05.013-.038c.025-.1.063-.207.094-.326.044-.1.082-.213.119-.326.044-.094.075-.207.119-.3a1.786,1.786,0,0,1,.132-.32.711.711,0,0,1,.107-.245v-.012l.006-.05.163-.307c.044-.113.1-.22.157-.345a2.038,2.038,0,0,1,.194-.364,2.751,2.751,0,0,1,.226-.42l.063-.094.006-.038c.176-.27.326-.533.5-.79.132-.188.263-.377.4-.559l.025-.038c.094-.113.176-.232.27-.351s.163-.2.238-.307.163-.188.251-.3c.082-.081.157-.169.251-.27l.044-.05.05-.044.169-.176c.088-.088.176-.182.276-.27s.182-.182.282-.27.182-.163.276-.245c.063-.05.1-.088.163-.132h0a.593.593,0,0,0,.119-.1,2.7,2.7,0,0,1,.282-.207c.094-.075.188-.138.289-.207.075-.05.176-.113.264-.176a2.316,2.316,0,0,1,.27-.157l.069-.038,48.4-27.95c.063-.038.125-.088.2-.125l.257-.119c.094-.05.194-.1.264-.132.088-.038.182-.069.263-.1l.257-.113.038-.013h.031l.188-.075.264-.056c.094-.025.188-.038.263-.063.094-.013.195-.038.27-.05a1.175,1.175,0,0,0,.207-.025h.088a2.534,2.534,0,0,1,.3-.012,2.64,2.64,0,0,1,.7.075c.151.025.307.075.445.113a2.879,2.879,0,0,1,.527.251l66.326,38.546a3.113,3.113,0,0,0-.935-.364h-.013a3.631,3.631,0,0,0-1.079-.05l-.038.006a5.269,5.269,0,0,0-1.173.257l-.038.012a7.115,7.115,0,0,0-1.28.583L279,266.852a9.808,9.808,0,0,0-1.273.9l-.025.013a13.24,13.24,0,0,0-1.154,1.079l-.05.05a16.123,16.123,0,0,0-1.041,1.261l-.031.025-.013.013a14.189,14.189,0,0,0-.9,1.393c-.019.031-.031.063-.056.075a14.364,14.364,0,0,0-1.706,4.662l-.006.038a10.088,10.088,0,0,0-.119,1.55,7.932,7.932,0,0,0,.125,1.374v.031a4.455,4.455,0,0,0,.759,1.706,3.139,3.139,0,0,0,.985.985l-66.333-38.559a3.477,3.477,0,0,1-1-.96c-.025-.063-.088-.088-.113-.132a2.183,2.183,0,0,1-.245-.445,2.048,2.048,0,0,1-.157-.358c-.038-.107-.082-.22-.126-.326a1.505,1.505,0,0,0-.075-.333.451.451,0,0,1-.025-.132l-.013-.044-.025-.132c-.012-.107-.031-.195-.044-.307a2.556,2.556,0,0,0-.031-.307,2.12,2.12,0,0,1-.013-.289V239.4Z" transform="translate(222.87 300.872)" fill="#3c3c3c"/>
    <g id="Group_207" data-name="Group 207" transform="translate(495.496 538.898)">
      <g id="Group_206" data-name="Group 206">
        <g id="Group_205" data-name="Group 205">
          <path id="Path_1296" data-name="Path 1296" d="M223.23,234.444a14.083,14.083,0,0,0-6.374,11.054c0,4.047,2.9,5.684,6.418,3.651l48.4-27.943a14.023,14.023,0,0,0,6.387-11.048c-.019-4.065-2.88-5.7-6.424-3.664Z" transform="translate(-216.856 -205.617)" fill="#272727"/>
        </g>
      </g>
    </g>
    <path id="Path_1297" data-name="Path 1297" d="M231.449,204.485c0-.1.013-.2.013-.295s.012-.2.012-.307.013-.207.019-.314a2.637,2.637,0,0,1,.025-.314c.013-.107.044-.213.056-.314v-.025c.019-.1.031-.2.057-.295.019-.125.044-.226.057-.345a1.528,1.528,0,0,0,.082-.332,2.561,2.561,0,0,1,.094-.333c.025-.088.05-.182.081-.276l.006-.031.006-.038.107-.326a2.044,2.044,0,0,1,.119-.326c.038-.107.075-.207.113-.307s.088-.22.126-.314.081-.169.113-.257v-.012l.025-.038c.038-.107.094-.213.138-.308.05-.113.107-.226.169-.345s.125-.251.188-.376a2.563,2.563,0,0,1,.232-.4.311.311,0,0,0,.05-.113l.025-.025c.151-.276.32-.527.483-.79.132-.194.264-.383.408-.565l.025-.038a3.526,3.526,0,0,1,.257-.345l.251-.307.245-.295a3.472,3.472,0,0,1,.257-.27l.038-.044a.1.1,0,0,0,.044-.05,1.651,1.651,0,0,1,.182-.182,2.769,2.769,0,0,1,.27-.27,3.629,3.629,0,0,1,.282-.257c.088-.082.182-.169.276-.251a1.738,1.738,0,0,1,.169-.132v-.006l.125-.094c.082-.069.169-.138.264-.213l.282-.194c.094-.063.188-.119.276-.182s.176-.113.27-.163l.069-.044,48.408-27.943a1.137,1.137,0,0,1,.195-.113,2.5,2.5,0,0,0,.257-.144,2.153,2.153,0,0,0,.27-.119,1.878,1.878,0,0,0,.251-.107c.088-.038.182-.063.264-.1l.038-.013.031-.013.188-.056c.094-.025.176-.05.257-.069l.276-.063c.094-.019.188-.031.27-.044l.2-.019h.012l.082-.006c.1-.006.195-.025.3-.025s.226.019.333.031a2.7,2.7,0,0,1,.37.044c.145.038.295.075.439.125a2.9,2.9,0,0,1,.508.239l66.333,38.552a2.754,2.754,0,0,0-.928-.358h-.013a3.609,3.609,0,0,0-1.079-.05h-.038a5.319,5.319,0,0,0-1.173.251l-.038.012a8.217,8.217,0,0,0-1.28.6l-48.4,27.956a9.278,9.278,0,0,0-1.28.878l-.019.013a11.737,11.737,0,0,0-1.161,1.092l-.044.044c-.37.4-.715.822-1.048,1.255l-.025.038-.012.013a13.476,13.476,0,0,0-.9,1.393l-.063.082a14.468,14.468,0,0,0-1.707,4.643l-.012.05a10.879,10.879,0,0,0-.107,1.543,8.576,8.576,0,0,0,.119,1.38v.031a4.618,4.618,0,0,0,.759,1.713,3.453,3.453,0,0,0,.985.972l-66.333-38.546a3.294,3.294,0,0,1-1-.979c-.031-.05-.1-.069-.119-.126a2.967,2.967,0,0,1-.251-.439c-.056-.119-.1-.232-.157-.364a2.916,2.916,0,0,0-.113-.326,1.468,1.468,0,0,0-.082-.326l-.025-.132-.006-.038a.633.633,0,0,0-.025-.151c-.019-.094-.031-.195-.057-.3a14.245,14.245,0,0,1-.031-.6v-.27Z" transform="translate(355.6 116.912)" fill="#d1d0e1"/>
    <g id="Group_209" data-name="Group 209" transform="translate(653.394 320.06)">
      <g id="Group_208" data-name="Group 208">
        <path id="Path_1298" data-name="Path 1298" d="M248.4,199.578a14.051,14.051,0,0,0-6.374,11.042c0,4.034,2.892,5.7,6.412,3.664l48.4-27.95a14.063,14.063,0,0,0,6.387-11.054c-.013-4.078-2.88-5.709-6.424-3.658Z" transform="translate(-242.024 -170.736)" fill="#b9b8cb"/>
      </g>
    </g>
    <path id="Path_1299" data-name="Path 1299" d="M230.584,201.881c0-.094.013-.188.013-.282s.012-.207.012-.308a2.951,2.951,0,0,1,.025-.32c.006-.1.019-.207.031-.307s.038-.213.05-.32v-.019c.025-.107.038-.2.063-.3.006-.113.044-.22.05-.339.038-.107.056-.22.088-.332a1.874,1.874,0,0,1,.094-.333c.025-.094.05-.188.069-.276l.013-.031.006-.038c.038-.107.069-.22.113-.326a1.845,1.845,0,0,1,.119-.326,3.194,3.194,0,0,1,.107-.32c.038-.1.088-.207.132-.3a1.01,1.01,0,0,1,.107-.257v-.019l.013-.031c.057-.107.113-.213.157-.32a2.023,2.023,0,0,1,.163-.332c.056-.125.119-.251.176-.376.075-.138.163-.276.245-.4l.056-.107.013-.031c.163-.276.326-.533.489-.791.132-.194.264-.383.4-.565l.038-.044a3.276,3.276,0,0,1,.257-.345l.245-.3c.088-.1.163-.195.251-.289a3.5,3.5,0,0,1,.257-.282l.038-.038.038-.057c.056-.063.125-.119.176-.176.094-.094.176-.182.276-.27a2.833,2.833,0,0,1,.282-.264c.088-.082.188-.157.282-.245.056-.044.1-.094.157-.138h0c.044-.031.081-.063.132-.094.088-.075.176-.138.263-.213s.195-.138.282-.2a2.361,2.361,0,0,0,.276-.182c.094-.044.182-.113.27-.163l.069-.038,48.408-27.943a1.425,1.425,0,0,1,.194-.113c.1-.05.169-.1.257-.138l.27-.125c.094-.038.182-.075.257-.107s.176-.069.263-.1l.031-.013.038-.013.188-.057c.082-.025.17-.056.251-.075l.276-.056c.094-.019.188-.038.264-.05l.207-.019h.013l.075-.006c.107-.006.2-.019.307-.019s.232.019.326.025a2.125,2.125,0,0,1,.364.05,3.4,3.4,0,0,1,.452.126,2.522,2.522,0,0,1,.508.238l66.345,38.546a2.922,2.922,0,0,0-.941-.351l-.013-.006a3.6,3.6,0,0,0-1.079-.05h-.031a5.14,5.14,0,0,0-1.173.257l-.038.013a7.675,7.675,0,0,0-1.28.59L303.3,229.392a11.234,11.234,0,0,0-1.261.885l-.025.006a13.341,13.341,0,0,0-1.154,1.092l-.05.05a14.551,14.551,0,0,0-1.041,1.255l-.025.031-.013.019a12.464,12.464,0,0,0-.9,1.38l-.063.088a14.573,14.573,0,0,0-1.7,4.649l-.013.044a10.093,10.093,0,0,0-.113,1.55,7.153,7.153,0,0,0,.125,1.368v.044a4.659,4.659,0,0,0,.753,1.713,3.35,3.35,0,0,0,.985.966L232.46,205.978a3.21,3.21,0,0,1-.985-.966c-.038-.05-.107-.075-.125-.132a2.388,2.388,0,0,1-.251-.427c-.05-.126-.107-.245-.151-.37-.031-.107-.075-.22-.119-.333a3.052,3.052,0,0,0-.075-.326l-.025-.132-.013-.031a.4.4,0,0,0-.031-.151c-.006-.094-.031-.2-.044-.307-.006-.088-.019-.194-.031-.3a2.378,2.378,0,0,0-.012-.295v-.27Z" transform="translate(351.038 103.248)" fill="#252577"/>
    <g id="Group_212" data-name="Group 212" transform="translate(647.973 303.802)">
      <g id="Group_211" data-name="Group 211">
        <g id="Group_210" data-name="Group 210">
          <path id="Path_1300" data-name="Path 1300" d="M247.522,196.982a14.046,14.046,0,0,0-6.362,11.048c0,4.034,2.9,5.69,6.418,3.658l48.4-27.95a14.068,14.068,0,0,0,6.38-11.048c-.006-4.078-2.88-5.709-6.418-3.664Z" transform="translate(-241.16 -168.144)" fill="#0f056b"/>
        </g>
      </g>
    </g>
    <path id="Path_1301" data-name="Path 1301" d="M220.418,211.092c0-.094.013-.2.013-.295s.013-.195.013-.3l.038-.32a2.737,2.737,0,0,1,.025-.314c.019-.107.031-.213.044-.314l.012-.012h0a1.394,1.394,0,0,1,.063-.307c.012-.119.031-.226.044-.345a3.072,3.072,0,0,0,.081-.326c.031-.113.069-.232.1-.339a2.183,2.183,0,0,1,.075-.27l.013-.031.013-.044a8.517,8.517,0,0,1,.219-.652,1.723,1.723,0,0,1,.113-.314c.038-.094.088-.2.132-.307.025-.082.057-.163.088-.257h0l.031-.05c.044-.1.094-.213.144-.3a1.544,1.544,0,0,1,.163-.339c.063-.132.125-.264.194-.389s.144-.27.22-.4l.075-.107.006-.031c.15-.27.32-.527.483-.784.144-.188.27-.389.42-.565l.019-.05c.088-.107.176-.22.276-.339a1.918,1.918,0,0,1,.238-.3c.082-.107.163-.2.232-.295l.263-.282.05-.038.038-.044a1.3,1.3,0,0,1,.182-.188c.082-.094.169-.176.257-.27a3.131,3.131,0,0,1,.295-.257l.276-.251a.986.986,0,0,1,.157-.126v-.013a.593.593,0,0,0,.126-.094c.088-.069.194-.138.282-.207s.195-.138.276-.207.182-.113.276-.169a2.475,2.475,0,0,1,.257-.163l.088-.038,48.39-27.95a.99.99,0,0,1,.213-.119l.251-.138c.094-.044.176-.081.257-.125l.263-.1a1.887,1.887,0,0,1,.264-.1l.044-.019.019-.006.188-.063.264-.069a2.483,2.483,0,0,1,.263-.057c.107-.025.188-.038.282-.056a1.017,1.017,0,0,0,.188-.013h.025l.069-.013c.1,0,.2-.012.308-.012s.219.012.32.025c.132.013.251.019.383.044s.295.075.439.125a2.7,2.7,0,0,1,.508.239l66.351,38.552a3.439,3.439,0,0,0-.96-.351h0a3.582,3.582,0,0,0-1.079-.056h-.025a4.862,4.862,0,0,0-1.18.257l-.031.013a7.3,7.3,0,0,0-1.292.6l-48.4,27.95a9.872,9.872,0,0,0-1.28.878l-.013.013a11.767,11.767,0,0,0-1.161,1.092l-.044.044c-.376.4-.715.822-1.048,1.255l-.025.038-.013.012c-.326.446-.633.91-.916,1.38a.442.442,0,0,1-.044.094,14.625,14.625,0,0,0-1.719,4.649v.044a11.025,11.025,0,0,0-.119,1.55,7.9,7.9,0,0,0,.119,1.374l.013.038a4.489,4.489,0,0,0,.759,1.707,3.193,3.193,0,0,0,.972.972l-66.326-38.552a3.25,3.25,0,0,1-.991-.972c-.031-.044-.094-.069-.132-.113a5,5,0,0,1-.232-.445,3.241,3.241,0,0,1-.157-.37c-.044-.1-.082-.22-.126-.326a2.045,2.045,0,0,0-.075-.326l-.019-.132-.013-.031-.038-.157c0-.088-.031-.194-.044-.3a2.57,2.57,0,0,0-.025-.295c-.013-.1-.013-.2-.025-.307v-.27Z" transform="translate(297.425 151.788)" fill="#252577"/>
    <g id="Group_215" data-name="Group 215" transform="translate(584.194 361.548)">
      <g id="Group_214" data-name="Group 214">
        <g id="Group_213" data-name="Group 213">
          <path id="Path_1302" data-name="Path 1302" d="M237.375,206.184a14.056,14.056,0,0,0-6.38,11.048c.012,4.034,2.9,5.69,6.424,3.658l48.39-27.95a14.068,14.068,0,0,0,6.393-11.048c-.013-4.078-2.886-5.709-6.424-3.658Z" transform="translate(-230.994 -177.349)" fill="#0f056b"/>
        </g>
      </g>
    </g>
    <g id="Group_220" data-name="Group 220" transform="translate(235.452 145.864)" style="isolation: isolate">
      <g id="Group_216" data-name="Group 216" transform="translate(0 249.34)">
        <path id="Path_1303" data-name="Path 1303" d="M175.407,182.713l.061,15.013,83.06,48.282-.031-15.019Z" transform="translate(-175.407 -182.713)" fill="#646464"/>
      </g>
      <g id="Group_217" data-name="Group 217" transform="translate(83.091 48.282)">
        <path id="Path_1304" data-name="Path 1304" d="M188.651,400l.031,15.02L620.557,165.674l-.049-15.007Z" transform="translate(-188.651 -150.666)" fill="#d1d0e1"/>
      </g>
      <g id="Group_219" data-name="Group 219">
        <g id="Group_218" data-name="Group 218">
          <path id="Path_1305" data-name="Path 1305" d="M175.407,392.31,258.5,440.586,690.356,191.252,607.268,142.97Z" transform="translate(-175.407 -142.97)" fill="#e6ebff"/>
        </g>
      </g>
    </g>
    <g id="Group_224" data-name="Group 224" transform="translate(255.989 389.387)" style="isolation: isolate">
      <g id="Group_221" data-name="Group 221" transform="translate(0 8.725)">
        <path id="Path_1306" data-name="Path 1306" d="M178.68,183.177l1.2,420.759,15.011,8.712L193.709,191.9Z" transform="translate(-178.68 -183.177)" fill="#646464"/>
      </g>
      <g id="Group_222" data-name="Group 222" transform="translate(15.029 8.725)">
        <path id="Path_1307" data-name="Path 1307" d="M181.076,191.9l1.183,420.747,15.114-8.712L196.19,183.177Z" transform="translate(-181.076 -183.177)" fill="#d1d0e1"/>
      </g>
      <g id="Group_223" data-name="Group 223">
        <path id="Path_1308" data-name="Path 1308" d="M178.68,190.511l15.029,8.724,15.115-8.724L193.8,181.786Z" transform="translate(-178.68 -181.786)" fill="#def6ff"/>
      </g>
    </g>
    <g id="Group_237" data-name="Group 237" transform="translate(457.828 348.225)">
      <g id="Group_225" data-name="Group 225" transform="translate(71.85 54.003)">
        <path id="Path_1309" data-name="Path 1309" d="M242.41,207.215s.358-3.9-2.754-10.364c-3.093-6.456-5.559-7.089-9.135-9.743-3.551-2.66-6.506-4.316-7.817-2.528s.728,11.556,4.925,15.609c2.591,2.522,3.137,12.523,4.222,14.223S242.554,209.655,242.41,207.215Z" transform="translate(-222.304 -183.833)" fill="#ffaa83"/>
        <path id="Path_1310" data-name="Path 1310" d="M337.6,210.491c1.211-3.921,1.675-21.274-11.243-20.333-12.911.972-54.965,27.466-60.805,26.456-2.9-.489-28.445-29.976-28.445-29.976s-.264,8.187-13.708,10.2c0,0,22.68,48.133,36.1,47.141C282.495,242.249,331.907,228.823,337.6,210.491Z" transform="translate(-216.547 -169.041)" fill="#0f0f42"/>
      </g>
      <path id="Path_1311" data-name="Path 1311" d="M262.843,216.321s-10.439,15.321-20.929,13.42c-10.509-1.876-11.914-3.984-7.46-6.619s16.161-10.095,13.934-10.785c-2.246-.7-7.165.333-6.65-1.675.514-1.989,15.371-4.643,15.371-4.643l10.314,4.668Z" transform="translate(-98.954 -12.821)" fill="#ffaa83"/>
      <g id="Group_226" data-name="Group 226" transform="translate(49.326 376.792)">
        <path id="Path_1312" data-name="Path 1312" d="M369.434,250.293c34.656,19.995,34.851,52.418.433,72.431-34.443,19.995-90.424,19.995-125.049,0-34.65-20.013-34.826-52.424-.4-72.431S334.8,230.28,369.434,250.293Z" transform="translate(-218.714 -235.284)" fill="none"/>
      </g>
      <path id="Path_1313" data-name="Path 1313" d="M261.406,240.592c-.652.22-35.974,3.689-26.532,14.9,6.123,7.253,13.319,7.742,18.614,7.2,5.27-.54,14.518-4.643,17.077-3.526,2.578,1.11,15.477,7.24,21.306-1.349,1.167-1.757,1.5-6.4.2-9.141C290.812,245.906,265.177,239.388,261.406,240.592Z" transform="translate(-92.617 168.732)" fill="#7569df"/>
      <path id="Path_1314" data-name="Path 1314" d="M234.862,249.51c6.123,7.253,13.319,7.742,18.614,7.2,5.27-.539,14.518-4.643,17.077-3.526,2.578,1.11,15.477,7.24,21.306-1.349a9.225,9.225,0,0,0,1.016-4.617c-3.9,7.152-15.81,6.882-19.361,5.132a19.582,19.582,0,0,0-13.972-1c-4.486,1.481-14.612,1.713-20.176-2.146a7.418,7.418,0,0,1-3.319-7.623C233.187,243.638,232.127,246.235,234.862,249.51Z" transform="translate(-92.604 174.715)" fill="#5649ce"/>
      <path id="Path_1315" data-name="Path 1315" d="M271.6,202.8s26.45,32.592,9.128,77.638c0,0-13.3,38.044-10.352,50.767,3.52,15.277,8.689,10.954,12.416,61.508,3.319,44.632,2.729,34.957,3.821,53.045.3,5.176-20.089,10.577-23.163,2.547C249.99,413.338,231.295,340.029,235.1,299.6s6.23-78.221,6.23-78.221S258.309,214.322,271.6,202.8Z" transform="translate(-85.63 -29.786)" fill="#0f056b"/>
      <path id="Path_1316" data-name="Path 1316" d="M253.975,244.789c-.7,0-36.018-7.315-30.24,6.412,3.727,8.884,10.565,11.544,15.866,12.617,5.264,1.066,15.484-.119,17.636,1.744s12.83,11.713,21.049,5.119c1.694-1.336,3.394-5.734,2.993-8.8S258.009,244.751,253.975,244.789Z" transform="translate(-146.274 181.368)" fill="#7569df"/>
      <path id="Path_1317" data-name="Path 1317" d="M223.735,250.323c3.727,8.884,10.565,11.544,15.866,12.617,5.264,1.066,15.484-.119,17.636,1.744s12.83,11.713,21.048,5.119a8.946,8.946,0,0,0,2.4-4.153c-5.941,5.759-17.429,1.9-20.333-.866a19.862,19.862,0,0,0-13.231-5.214c-4.812.088-14.706-2.754-18.934-8.181a7.512,7.512,0,0,1-.916-8.382C223.86,244.119,222.053,246.327,223.735,250.323Z" transform="translate(-146.272 182.246)" fill="#5649ce"/>
      <path id="Path_1318" data-name="Path 1318" d="M304.181,206s6.443,44.236-18.351,85.624c0,0-19.65,35.2-18.953,48.233.828,15.647,6.669,12.29,1.656,62.75-4.423,44.519-4.053,50.767-7.742,54.475-3.89,3.934-23.363.113-24.016-7.779-3.664-43.415-15.44-107.965-6.738-147.6a383.755,383.755,0,0,0,8.4-84.514S289.118,215.057,304.181,206Z" transform="translate(-126.213 -12.905)" fill="#0f056b"/>
      <path id="Path_1319" data-name="Path 1319" d="M228.518,228.5s-5.032-19.361,29.016-32.166,55.234-13.037,56.244,5.17c1.029,18.2-7.121,42.793-8.1,51.037-.759,6.518-3.488,22.322,5.439,40.949,8.821,18.457,13.25,36.149-41.137,40.918-9.517.834-44.945,1.775-40.585-19.336C234.836,288.687,233.179,250.06,228.518,228.5Z" transform="translate(-119.066 -111.994)" fill="#252577"/>
      <g id="Group_227" data-name="Group 227" transform="translate(112.865 2.833)">
        <path id="Path_1320" data-name="Path 1320" d="M232.49,198.253s7.365,12.039,2.654,22.372c-5.038,11.017,32.2,3.664,28.464-4.668-4.743-10.609-8.432-22.435-1.267-33.119Z" transform="translate(-209.603 -137.91)" fill="#ffaa83"/>
        <path id="Path_1321" data-name="Path 1321" d="M233.076,193.387s8.633-3.9,13.206-7.874l.665.163,3.595.05,1.412.151s1.154,14.662-18.708,17.272A28.1,28.1,0,0,0,233.076,193.387Z" transform="translate(-206.513 -123.803)" fill="#f79f7c"/>
        <path id="Path_1322" data-name="Path 1322" d="M239.6,181.8s-3.99,10.283-8.708,27.234c-4.147,14.944-1.976,35.19,6.236,39.035,5.019,2.353,39.456-.91,46.05-36.846C287.4,188.333,266.071,164.041,239.6,181.8Z" transform="translate(-228.842 -175.677)" fill="#ffaa83"/>
      </g>
      <path id="Path_1323" data-name="Path 1323" d="M237.217,186.234c-4.844.47-18.947,2.064,2.233,16.092,4.718,3.112,11.148,15.572,11.4,18.765s1.437,7.761,9.241,0c0,0,6.656-4.429,8.281,1.882,1.713,6.619-7.221,19.668-3.394,21.293s6.518,4.191,21.952-11.707c12.378-12.748,18.376-38.465-5.9-53.315C261.653,167.381,245.021,185.481,237.217,186.234Z" transform="translate(-119.79 -175.225)" fill="#6e290a"/>
      <g id="Group_235" data-name="Group 235" transform="translate(0 43.576)">
        <path id="Path_1324" data-name="Path 1324" d="M210.852,220.711v-.527c.013-.082.019-.176.025-.27l.038-.264c.013-.094.019-.2.031-.276l.006-.019v-.013c.019-.081.031-.169.057-.257a1.629,1.629,0,0,1,.056-.295,2.826,2.826,0,0,0,.056-.282c.025-.113.057-.207.082-.307a.712.712,0,0,0,.063-.226l.019-.038.012-.025c.019-.1.063-.194.082-.3a2.332,2.332,0,0,1,.113-.276,1.382,1.382,0,0,1,.094-.27c.038-.094.063-.188.107-.282l.1-.213v-.019l.013-.031.126-.264a3.185,3.185,0,0,1,.144-.295,2.847,2.847,0,0,1,.176-.333c.056-.119.126-.232.182-.351l.069-.1.006-.025c.151-.232.282-.464.427-.684.119-.169.232-.339.358-.5l.025-.031c.075-.1.151-.2.226-.308l.207-.257a3.1,3.1,0,0,1,.226-.264c.069-.075.144-.157.226-.238l.025-.025.044-.05.157-.169c.082-.075.157-.157.232-.226s.157-.157.238-.232.176-.138.257-.213l.138-.119v-.006a.646.646,0,0,0,.107-.075c.088-.063.163-.132.238-.188s.163-.113.251-.169c.069-.056.157-.107.232-.157s.157-.1.232-.15l.057-.031,42.273-24.4.182-.094a3.767,3.767,0,0,1,.452-.226c.082-.038.163-.075.232-.1s.151-.057.22-.082l.044-.012.019-.006.163-.056a1.63,1.63,0,0,1,.232-.069,2.212,2.212,0,0,0,.232-.044l.245-.05.163-.006.019-.006h.075a1.686,1.686,0,0,1,.257-.013,2.327,2.327,0,0,1,.289.013,2.631,2.631,0,0,1,.32.044,2.936,2.936,0,0,1,.383.113,3.245,3.245,0,0,1,.452.2l57.932,33.665a2.617,2.617,0,0,0-.828-.3h-.012a2.92,2.92,0,0,0-.941-.056l-.019.006a3.5,3.5,0,0,0-1.029.226l-.031.006a6.771,6.771,0,0,0-1.129.508l-42.26,24.411a9.671,9.671,0,0,0-1.123.772v.012a11.069,11.069,0,0,0-1.023.947l-.044.044a10.462,10.462,0,0,0-.91,1.11h-.006l-.013.031a10.314,10.314,0,0,0-.8,1.211l-.05.069a12.573,12.573,0,0,0-1.493,4.065v.038a8.38,8.38,0,0,0-.113,1.349,5.869,5.869,0,0,0,.113,1.192v.044a4.289,4.289,0,0,0,.652,1.493,3.023,3.023,0,0,0,.872.847l-57.926-33.665a2.76,2.76,0,0,1-.866-.841c-.031-.056-.088-.069-.107-.113a3.845,3.845,0,0,1-.213-.389,1.759,1.759,0,0,1-.138-.314c-.038-.094-.063-.194-.094-.295a2.6,2.6,0,0,1-.075-.282l-.031-.113-.006-.025-.019-.132c-.019-.081-.019-.176-.044-.27s-.019-.176-.025-.257a1.858,1.858,0,0,1-.013-.264v-.282Z" transform="translate(-210.852 -162.547)" fill="#3c3c3c"/>
        <g id="Group_229" data-name="Group 229" transform="translate(57.919 57.003)">
          <g id="Group_228" data-name="Group 228">
            <path id="Path_1325" data-name="Path 1325" d="M225.655,216.434a12.276,12.276,0,0,0-5.571,9.649c.013,3.526,2.535,4.969,5.6,3.193l42.279-24.392a12.322,12.322,0,0,0,5.559-9.649c0-3.564-2.51-4.994-5.609-3.212Z" transform="translate(-220.084 -191.257)" fill="#252577"/>
          </g>
        </g>
        <path id="Path_1326" data-name="Path 1326" d="M212.018,214.37c0-.075.006-.144.006-.213v-.238c.013-.088.019-.163.025-.232l.031-.238c.006-.088.025-.169.038-.245v-.019c.019-.082.025-.151.038-.232s.044-.169.05-.251l.069-.257a1.17,1.17,0,0,1,.063-.257l.057-.195v-.038l.013-.019c.025-.082.056-.163.088-.257a1.7,1.7,0,0,1,.081-.232c.031-.082.05-.163.088-.251l.1-.232a.72.72,0,0,1,.082-.188v-.006l.006-.038c.044-.075.082-.151.119-.232s.082-.163.119-.264.094-.188.144-.276a2.214,2.214,0,0,1,.182-.307l.038-.088.013-.025c.125-.195.251-.4.37-.6.1-.151.2-.282.3-.427l.031-.025a2.747,2.747,0,0,1,.2-.27c.056-.069.119-.151.182-.232l.188-.213c.063-.075.125-.138.195-.213l.025-.031.031-.044a.915.915,0,0,0,.138-.132c.069-.069.132-.138.207-.2s.138-.132.213-.207c.075-.056.138-.125.213-.188l.125-.1h0c.031-.012.057-.044.1-.063a.849.849,0,0,1,.2-.169l.213-.144.207-.138c.075-.05.125-.081.2-.126l.05-.031L253.569,184.8a1.627,1.627,0,0,1,.15-.082c.075-.038.132-.069.195-.107a1.563,1.563,0,0,0,.207-.094c.057-.031.132-.05.195-.081l.2-.069.019-.019h.031a.507.507,0,0,1,.138-.044,1.471,1.471,0,0,1,.195-.069c.075-.019.151-.025.213-.044l.2-.031.15-.006.006-.013h.546c.1.013.182.031.27.044a2.5,2.5,0,0,1,.345.088,2.241,2.241,0,0,1,.389.194l50.309,29.23a2.378,2.378,0,0,0-.709-.276h-.012a2.7,2.7,0,0,0-.816-.044l-.031.006a4.287,4.287,0,0,0-.891.194l-.025.006a5.535,5.535,0,0,0-.972.445l-36.708,21.2a6.557,6.557,0,0,0-.966.678l-.019.013a9.686,9.686,0,0,0-.872.816l-.044.038a10.923,10.923,0,0,0-.791.96l-.012.019-.013.019a8.215,8.215,0,0,0-.678,1.041l-.05.056a10.722,10.722,0,0,0-1.286,3.538l-.012.031a7.44,7.44,0,0,0-.088,1.173,5.371,5.371,0,0,0,.1,1.035v.031a3.157,3.157,0,0,0,.565,1.3,2.444,2.444,0,0,0,.747.734l-50.3-29.236a2.462,2.462,0,0,1-.759-.728c-.019-.05-.069-.056-.088-.1a2.754,2.754,0,0,1-.188-.326c-.038-.088-.082-.188-.113-.276a1.191,1.191,0,0,0-.088-.251c-.025-.088-.044-.169-.063-.251l-.019-.1-.006-.031a.235.235,0,0,0-.025-.1c-.006-.075-.025-.151-.031-.238a2.194,2.194,0,0,1-.025-.232,1.214,1.214,0,0,1-.013-.22v-.207Z" transform="translate(-204.703 -171.803)" fill="#d1d0e1"/>
        <g id="Group_231" data-name="Group 231" transform="translate(57.631 41.558)">
          <g id="Group_230" data-name="Group 230">
            <path id="Path_1327" data-name="Path 1327" d="M224.869,210.658a10.634,10.634,0,0,0-4.831,8.382c0,3.068,2.2,4.31,4.862,2.767l36.7-21.18a10.66,10.66,0,0,0,4.843-8.388c0-3.087-2.183-4.323-4.868-2.779Z" transform="translate(-220.038 -188.795)" fill="#b9b8cb"/>
          </g>
        </g>
        <path id="Path_1328" data-name="Path 1328" d="M211.363,212.41l.006-.226v-.232l.031-.226c.006-.081.012-.163.025-.238s.025-.169.025-.245l.012-.019h0c.019-.075.025-.157.044-.226a1.608,1.608,0,0,1,.044-.251c.025-.094.044-.176.063-.257a2.33,2.33,0,0,1,.069-.264l.056-.194.006-.038.013-.025a1.587,1.587,0,0,0,.069-.245l.1-.251a1.341,1.341,0,0,1,.088-.232c.025-.075.063-.157.088-.245a1.548,1.548,0,0,1,.088-.182V208.8l.006-.038c.038-.075.081-.144.125-.226a1.176,1.176,0,0,1,.119-.257,2.056,2.056,0,0,1,.144-.289,1.926,1.926,0,0,1,.176-.307l.044-.075.006-.031c.126-.2.251-.4.37-.6.1-.138.2-.289.307-.427l.012-.025c.082-.088.138-.182.213-.264.056-.081.125-.157.182-.232l.188-.226c.063-.063.119-.138.194-.207l.031-.031.031-.038c.044-.044.088-.088.132-.138.069-.069.138-.138.207-.2a2.187,2.187,0,0,1,.22-.2l.207-.195.125-.088h0l.088-.088c.069-.05.144-.113.213-.157s.144-.094.213-.151a1.216,1.216,0,0,1,.213-.132c.063-.05.119-.081.195-.132l.056-.025,36.7-21.193.151-.088.2-.1.2-.094c.056-.031.138-.05.188-.082l.207-.082.025-.006h.019l.151-.057.195-.05c.075-.019.144-.025.207-.044l.2-.031a.626.626,0,0,0,.15-.025h.075c.075-.006.151-.006.226-.006s.163,0,.257.006.176.031.27.044c.113.025.232.056.345.088a2.794,2.794,0,0,1,.389.195l50.3,29.229a2.422,2.422,0,0,0-.715-.276h-.006a2.722,2.722,0,0,0-.816-.044l-.031.006a4.477,4.477,0,0,0-.891.195l-.025.012a4.858,4.858,0,0,0-.966.439l-36.72,21.2a7.361,7.361,0,0,0-.954.678l-.025.006a9.822,9.822,0,0,0-.878.822l-.031.031a11.9,11.9,0,0,0-.79.96l-.019.025-.013.006a11.208,11.208,0,0,0-.69,1.054l-.044.057a11.279,11.279,0,0,0-1.292,3.538l-.006.031a8.291,8.291,0,0,0-.082,1.167,6.589,6.589,0,0,0,.088,1.042v.025a3.562,3.562,0,0,0,.571,1.3,2.4,2.4,0,0,0,.753.734l-50.3-29.236a2.463,2.463,0,0,1-.759-.728c-.019-.044-.069-.063-.088-.094a2.555,2.555,0,0,1-.188-.339c-.044-.081-.082-.182-.119-.263s-.063-.176-.088-.263l-.063-.251-.013-.094-.012-.025-.019-.113c-.013-.075-.031-.15-.038-.232l-.025-.226a1.294,1.294,0,0,1-.012-.22v-.207Z" transform="translate(-208.157 -182.171)" fill="#252577"/>
        <g id="Group_234" data-name="Group 234" transform="translate(53.521 29.231)">
          <g id="Group_233" data-name="Group 233">
            <g id="Group_232" data-name="Group 232">
              <path id="Path_1329" data-name="Path 1329" d="M224.208,208.692a10.626,10.626,0,0,0-4.824,8.375c0,3.074,2.183,4.316,4.862,2.786l36.708-21.2a10.665,10.665,0,0,0,4.837-8.382c-.013-3.08-2.177-4.323-4.862-2.779Z" transform="translate(-219.383 -186.83)" fill="#0f056b"/>
            </g>
          </g>
        </g>
      </g>
      <g id="Group_236" data-name="Group 236" transform="translate(13.287 94.18)">
        <path id="Path_1330" data-name="Path 1330" d="M238.628,206.308c-1.506-1.33-11.305-3.413-13.4-6.355-2.4-3.419-7.886-6.2-11.525-7.114a.99.99,0,0,0-.081.295c-.119,1.468,2.71,2.792,3.821,4.429s5.822,5.207,8.263,8.2c2.415,2.98,10.477,4.348,10.477,4.348l.79.1C238.365,208.46,239.243,206.822,238.628,206.308Z" transform="translate(-209.555 -176.519)" fill="#f29c79"/>
        <path id="Path_1331" data-name="Path 1331" d="M233.316,215.915s-3.915-.238-9.825-4.31c-5.9-4.047-6.142-6.587-8.219-10.534-2.083-3.921-3.269-7.083-1.292-8.106s11.305,2.5,14.662,7.271c2.1,2.942,11.9,5.025,13.4,6.355C243.58,207.916,235.707,216.435,233.316,215.915Z" transform="translate(-212.97 -176.804)" fill="#ffaa83"/>
        <path id="Path_1332" data-name="Path 1332" d="M328.4,206.819c-.107-4.1-5.251-20.685-17.178-15.634-11.914,5.069-43.207,43.691-49.055,44.613-2.911.471-36.576-19.229-36.576-19.229s2.378,7.842-9.7,14.066c0,0,36.959,38.283,49.343,33.025C286.456,254.619,328.923,226.01,328.4,206.819Z" transform="translate(-197.575 -190.237)" fill="#252577"/>
      </g>
    </g>
  </g>
</svg>
