<svg xmlns="http://www.w3.org/2000/svg" xmlns:xlink="http://www.w3.org/1999/xlink" width="658.904" height="616.651" viewBox="0 0 658.904 616.651">
  <defs>
    <clipPath id="clip-path">
      <path id="Path_781" data-name="Path 781" d="M97.456,165.87s6.613,10.441,34.422,2.75l42.6,23.319A6.648,6.648,0,0,1,171,204.19l-69.609-.209A13.469,13.469,0,0,1,89.1,185.152Z" transform="translate(-87.99 -165.87)" fill="#726cea"/>
    </clipPath>
    <clipPath id="clip-path-2">
      <path id="Path_786" data-name="Path 786" d="M124.324,203.469,109.01,175c-24.12,5.638-26.591-17.089-26.591-17.089s-22.971,12.147-25.547,17.716h0a11.277,11.277,0,0,0,5.847,14.618L95.436,217.7a38.286,38.286,0,0,0,19.7,6.648l19.943.661a5.917,5.917,0,0,0,6.126-5.534h0a5.951,5.951,0,0,0-2.436-5.186Z" transform="translate(-56.013 -157.91)" fill="#fff"/>
    </clipPath>
  </defs>
  <g id="Group_99" data-name="Group 99" transform="translate(-4826.545 -3190.069)">
    <g id="Group_104" data-name="Group 104" transform="translate(4826.545 3190.069)">
      <g id="Layer_2" data-name="Layer 2" transform="translate(0 0)">
        <g id="OBJECTS" transform="translate(0 0)">
          <rect id="Rectangle_82" data-name="Rectangle 82" width="251.359" height="340.703" transform="translate(345.696 275.804)" fill="#fff"/>
          <rect id="Rectangle_83" data-name="Rectangle 83" width="61.848" height="340.703" transform="translate(597.056 275.804)" fill="#c9d0f4"/>
          <line id="Line_213" data-name="Line 213" x1="251.359" transform="translate(345.696 348.442)" fill="none" stroke="#d3d3d3" stroke-miterlimit="10" stroke-width="1"/>
          <rect id="Rectangle_84" data-name="Rectangle 84" width="48.622" height="23.876" transform="translate(362.646 576.83)" fill="none" stroke="#c3c7cc" stroke-miterlimit="10" stroke-width="0.98"/>
          <path id="Path_762" data-name="Path 762" d="M193.987,98.754a11.8,11.8,0,1,1-3.443-8.366A11.834,11.834,0,0,1,193.987,98.754Z" transform="translate(277.946 215.545)" fill="#726cea"/>
          <path id="Path_763" data-name="Path 763" d="M205.167,98.754a11.8,11.8,0,1,1-3.443-8.366,11.834,11.834,0,0,1,3.443,8.366Z" transform="translate(305.677 215.545)" fill="#726cea"/>
          <rect id="Rectangle_85" data-name="Rectangle 85" width="50.536" height="27.913" transform="translate(529.082 300.342)" fill="none" stroke="#c3c7cc" stroke-miterlimit="10" stroke-width="0.98"/>
          <rect id="Rectangle_86" data-name="Rectangle 86" width="73.681" height="38.807" transform="translate(355.685 294.877)" fill="#c9d0f4"/>
          <circle id="Ellipse_23" data-name="Ellipse 23" cx="89.1" cy="89.1" r="89.1" transform="translate(379.039 378.826)" fill="#d1d0e1"/>
          <circle id="Ellipse_24" data-name="Ellipse 24" cx="65.711" cy="65.711" r="65.711" transform="translate(382.472 431.954) rotate(-22.23)" fill="#252577"/>
          <circle id="Ellipse_25" data-name="Ellipse 25" cx="89.1" cy="89.1" r="89.1" transform="translate(199.865 378.826)" fill="#c9d0f4"/>
          <circle id="Ellipse_26" data-name="Ellipse 26" cx="65.711" cy="65.711" r="65.711" transform="translate(209.817 516.612) rotate(-76.61)" fill="#fff"/>
          <rect id="Rectangle_87" data-name="Rectangle 87" width="61.361" height="70.375" transform="translate(546.276 205.429)" fill="#3f3d56"/>
          <rect id="Rectangle_88" data-name="Rectangle 88" width="61.361" height="70.375" transform="translate(528.386 205.429)" fill="#726cea"/>
          <path id="Path_764" data-name="Path 764" d="M195.02,80.61V107.2l49.631-16.08V62.72Z" transform="translate(339.213 155.517)" fill="#fff"/>
          <rect id="Rectangle_89" data-name="Rectangle 89" width="131.388" height="19.143" rx="2.52" transform="translate(365.674 256.662)" fill="#3f3d56"/>
          <rect id="Rectangle_90" data-name="Rectangle 90" width="99.959" height="14.548" rx="1.92" transform="translate(381.963 242.114)" fill="#fff"/>
          <rect id="Rectangle_91" data-name="Rectangle 91" width="99.959" height="14.548" rx="1.92" transform="translate(389.202 227.565)" fill="#fff"/>
          <circle id="Ellipse_27" data-name="Ellipse 27" cx="26.765" cy="26.765" r="26.765" transform="translate(117.9 180.892)" fill="#0f056b"/>
          <path id="Path_765" data-name="Path 765" d="M107.925,74.043s-5.882-14.131-16.115-10.65-10.685,16.184-5.325,19.56,19.665-7.692,19.665-7.692Z" transform="translate(61.59 155.819)" fill="#fbc55c"/>
          <path id="Path_766" data-name="Path 766" d="M130,116.614l-24.468,33.621L76.89,128.657,113.713,78.19Z" transform="translate(46.196 193.89)" fill="#b86658"/>
          <path id="Path_767" data-name="Path 767" d="M91.719,112.075c.418-.592-4.559-24.955-4.559-24.955l13.713,12.356Z" transform="translate(71.67 216.041)" fill="#9b493c"/>
          <path id="Path_768" data-name="Path 768" d="M145.758,72.3s16.915,8.6,10.789,31.324c0,0-4.594,16.463-11.381,40.06a20.361,20.361,0,0,1-29.132,12.565A60.455,60.455,0,0,1,96.2,138.635l-7.309-12.878C73.294,91.2,108.934,55,143.252,71.114Z" transform="translate(66.602 166.545)" fill="#b86658"/>
          <path id="Path_769" data-name="Path 769" d="M106.12,83.33l5.673,11.59c1.218,1.879-.209,4.768-1.81,4.455L101.63,97.67Z" transform="translate(107.562 206.64)" fill="#b86658"/>
          <path id="Path_772" data-name="Path 772" d="M120.513,115.086s6.578-57.88,46.673-20.883c0,0-8.875-35.57-55.966-30.593A38.007,38.007,0,0,0,84.49,81.256c-7.379,14.235-3.028,29.758,2.924,57.706L108.958,125.6A67.729,67.729,0,0,1,120.513,115.086Z" transform="translate(55.406 156.541)" fill="#0f056b"/>
          <path id="Path_773" data-name="Path 773" d="M89.16,87.608l2.367,25.442c66.129,0,47.613-36.754,47.613-36.754S94.938,46.469,89.16,87.608Z" transform="translate(76.631 163.276)" fill="#0f056b"/>
          <path id="Path_774" data-name="Path 774" d="M110.022,83.724,97.6,93.678,91.61,75.58Z" transform="translate(82.708 187.416)" fill="#0f056b"/>
          <path id="Path_775" data-name="Path 775" d="M102.755,72.77S122.315,82.724,120.784,98c0,0,20.883-16.149-8.632-27.844C92.175,62.607,102.755,72.77,102.755,72.77Z" transform="translate(103.409 167.046)" fill="#0f056b"/>
          <path id="Path_776" data-name="Path 776" d="M87.565,83.169a12.495,12.495,0,1,0,6.7-6.866,12.5,12.5,0,0,0-6.7,6.866Z" transform="translate(70.465 186.718)" fill="#b86658"/>
          <path id="Path_777" data-name="Path 777" d="M95.131,87.621S98.612,79.2,89.98,77.18" transform="translate(78.665 191.385)" fill="none" stroke="#1d0a03" stroke-linecap="round" stroke-linejoin="round" stroke-width="0.61"/>
          <path id="Path_778" data-name="Path 778" d="M88.56,217.916,110.1,159.305l41.07-6.2-28.957,65.259-27.739,5.917Z" transform="translate(75.143 379.727)" fill="#b86658"/>
          <path id="Path_779" data-name="Path 779" d="M97.456,165.87s6.613,10.441,34.422,2.75l42.6,23.319A6.648,6.648,0,0,1,171,204.19l-69.609-.209A13.469,13.469,0,0,1,89.1,185.152Z" transform="translate(73.73 411.378)" fill="#c9d0f4"/>
          <g id="Group_97" data-name="Group 97" transform="translate(161.72 577.248)" clip-path="url(#clip-path)">
            <circle id="Ellipse_28" data-name="Ellipse 28" cx="13.957" cy="13.957" r="13.957" transform="translate(-11.87 15.697)" fill="#726cea"/>
            <path id="Path_780" data-name="Path 780" d="M137.134,185.922A13.922,13.922,0,1,1,123.212,172,13.922,13.922,0,0,1,137.134,185.922Z" transform="translate(-35.157 -150.665)" fill="#726cea"/>
          </g>
          <path id="Path_782" data-name="Path 782" d="M62.2,196.9l38.529-52.033,34.8,13.261L87.4,214.236l-23.284-9.223Z" transform="translate(9.758 359.288)" fill="#b86658"/>
          <path id="Path_783" data-name="Path 783" d="M124.324,203.469,109.01,175c-24.12,5.638-26.591-17.089-26.591-17.089s-22.971,12.147-25.547,17.716h0a11.277,11.277,0,0,0,5.847,14.618L95.436,217.7a38.286,38.286,0,0,0,19.7,6.648l19.943.661a5.917,5.917,0,0,0,6.126-5.534h0a5.951,5.951,0,0,0-2.436-5.186Z" transform="translate(-5.589 391.633)" fill="#c9d0f4"/>
          <g id="Group_98" data-name="Group 98" transform="translate(50.425 549.543)" clip-path="url(#clip-path-2)">
            <path id="Path_784" data-name="Path 784" d="M82.282,175.441A14.931,14.931,0,1,1,67.351,160.51a14.931,14.931,0,0,1,14.931,14.931Z" transform="translate(-64.926 -151.461)" fill="#726cea"/>
            <path id="Path_785" data-name="Path 785" d="M105.742,186.8A14.931,14.931,0,1,1,90.811,171.87,14.931,14.931,0,0,1,105.742,186.8Z" transform="translate(-6.734 -123.283)" fill="#726cea"/>
          </g>
          <path id="Path_787" data-name="Path 787" d="M132.574,171.874l104.414-54.643a41.766,41.766,0,0,1,58.228,52.451l-42.427,105.6-59.829-3.933L221.5,201.18,185.964,236.4s-48.727,44.306-90.666,28.47S48.59,203.094,48.59,203.094Z" transform="translate(-24.002 278.824)" fill="#252577"/>
          <line id="Line_215" data-name="Line 215" y1="16.637" x2="6.056" transform="translate(197.533 463.367)" fill="none" stroke="#012943" stroke-miterlimit="10" stroke-width="0.75"/>
          <path id="Path_788" data-name="Path 788" d="M190.978,102.724l-24.642-8.945a31.324,31.324,0,0,0-18.794-.835c-17.82,4.8-53.947,20.326-77.266,69.018C35.471,234.564,46.5,274.1,46.5,274.1s84.854-5.6,106.781-57.393c0,0-4.977-17.4,3.481-24.92,0,0,24.12-3.863,36.58-37.345l1.392-46.255A5.5,5.5,0,0,0,190.978,102.724Z" transform="translate(-33.296 227.863)" fill="#d1d0e1"/>
          <path id="Path_789" data-name="Path 789" d="M134.98,156.667s-8.7-50.884,33.412-43.3,33.621,28.366,54.713,54.852c0,0,46.429,40.339-20.256,54.608S169.472,174.7,134.98,156.667Z" transform="translate(188.441 279.239)" fill="#9eaeef"/>
          <path id="Path_790" data-name="Path 790" d="M148.664,163.2a21.509,21.509,0,1,1,23.006-19.908A21.509,21.509,0,0,1,148.664,163.2Z" transform="translate(174.723 298.184)" fill="#b86658"/>
          <path id="Path_791" data-name="Path 791" d="M166.04,130.191s3.481-9.119-7.587-10.789-26.486,2.332-29.723,23.7Z" transform="translate(174.783 295.274)" fill="#b86658"/>
          <path id="Path_792" data-name="Path 792" d="M226.018,124.984,111.162,118.65c-13.574-.418-18.725,8.91-17.75,22.484h0a22.867,22.867,0,0,0,24.363,21.127l103.648-3.481Z" transform="translate(86.892 294.216)" fill="#d1d0e1"/>
          <path id="Path_793" data-name="Path 793" d="M118.918,99.241l56.14,82.452c9.537,11.242,13.435,27.6,1.392,36.058h0a24.99,24.99,0,0,1-33.865-4.768L83.417,145.392c-8.91-11-12.53-38.285-1.079-46.429h0C92.64,91.41,114.393,94.647,118.918,99.241Z" transform="translate(41.861 234.235)" fill="#d1d0e1"/>
          <line id="Line_216" data-name="Line 216" x1="27.008" y1="32.96" transform="translate(119.918 371.517)" fill="none" stroke="#ebac41" stroke-miterlimit="10" stroke-width="0.75"/>
          <rect id="Rectangle_92" data-name="Rectangle 92" width="315.261" height="18.272" transform="translate(0 109.032) rotate(-0.12)" fill="#eecace"/>
          <path id="Path_794" data-name="Path 794" d="M82.99,102.821V32.446L119.674,2.27,126.7,12.816v90Z" transform="translate(61.327 5.573)" fill="#c9d0f4"/>
          <path id="Path_795" data-name="Path 795" d="M106.694,11.445,99.176,1A2.436,2.436,0,0,0,95.7.551L87.413,7.164a2.436,2.436,0,0,0-.383,3.48l8.04,10.441Z" transform="translate(69.956 -0.017)" fill="#726cea"/>
          <path id="Path_796" data-name="Path 796" d="M98.144,5.26H83.213c-1.253.418-15.07,9.606-20.082,20.883S52.69,58.755,58.084,95.369h48.03S117.914,58.372,98.144,5.26Zm-18.62,31.6s-1.671,3.759-2.854,24.085c0,0-.627,7.657-6.2,5.847S64,53.708,66.437,43.336,73.4,29.414,76.5,29.414s3.794,4.7,3.132,7.448Z" transform="translate(-6 12.99)" fill="#252577"/>
          <path id="Path_797" data-name="Path 797" d="M66.668,1.05h9.084a2.993,2.993,0,0,1,2.993,2.993V15.7H63.71V4.043A2.993,2.993,0,0,1,66.669,1.05Z" transform="translate(13.503 2.547)" fill="#d1d0e1"/>
          <path id="Path_798" data-name="Path 798" d="M118.18,5.26,105.72,95.4h41.313L136.7,5.26Z" transform="translate(117.707 12.99)" fill="#0f056b"/>
          <path id="Path_799" data-name="Path 799" d="M112.618,2.17H119.3a2.193,2.193,0,0,1,2.193,2.193v8.562H110.46V4.363a2.193,2.193,0,0,1,2.158-2.193Z" transform="translate(129.465 5.325)" fill="#d1d0e1"/>
        </g>
      </g>
    </g>
  </g>
</svg>
