<svg xmlns="http://www.w3.org/2000/svg" xmlns:xlink="http://www.w3.org/1999/xlink" width="801.086" height="664.354" viewBox="0 0 801.086 664.354">
  <defs>
    <linearGradient id="linear-gradient" x1="0.5" y1="1" x2="0.5" gradientUnits="objectBoundingBox">
      <stop offset="0" stop-color="gray" stop-opacity="0.251"/>
      <stop offset="0.54" stop-color="gray" stop-opacity="0.122"/>
      <stop offset="1" stop-color="gray" stop-opacity="0.102"/>
    </linearGradient>
    <linearGradient id="linear-gradient-2" x1="6.341" y1="1" x2="6.341" y2="0" xlink:href="#linear-gradient"/>
  </defs>
  <g id="undraw_events_2p66" transform="translate(0 0)">
    <path id="Path_1180" data-name="Path 1180" d="M865.348,416.674c-30.769,49.774-25,117.583-11.49,171.048,4.521,17.9,9.731,36.8,5.865,56.834-4.728,24.5-21.967,43.735-39.413,54.751-31.806,20.034-68.124,19.478-94.57-1.468-22.838-18.093-37.878-49.649-61.2-66.772-38.99-28.661-92.53-11.29-139.019,15.5-32.876,18.906-69.061,42.963-99.448,29.342-21.378-9.565-34.709-36.551-40.931-65.917-3-14.177-4.82-29.665-11.705-40.466-4.1-6.421-9.731-10.718-15.571-14.244-53.3-32.137-125.414-5.268-176.814-41.661-34.717-24.572-54.453-75.324-60.94-129.595s-1.153-112.34,5.525-169.513c4.753-40.649,11.183-84.135,32.519-117.193,22.572-34.966,58.153-50.6,89.079-47.285s57.779,22.913,80.924,46.862c28.927,29.931,55.017,68.157,92.455,77.813,25.5,6.578,53.349-1.037,80.468-5.342,45.278-7.2,89.925-5.135,134.257-2.431,42.441,2.588,85.138,5.807,124.684,20.739,27.981,10.577,49.459,32.594,75.573,46.912,17.023,9.333,36.227,10.519,52.088,22.962,19.536,15.33,36.443,43.627,28.62,79.4C908.85,370.973,881.674,390.26,865.348,416.674Z" transform="translate(-117.177 -49.595)" fill="#6c63ff" opacity="0.1"/>
    <path id="Path_1181" data-name="Path 1181" d="M781.67,321.234s83.786-70.206,102.418-105.6,42.349-65.9,42.349-65.9" transform="translate(-230.43 -66.661)" fill="none" stroke="#535461" stroke-miterlimit="10" stroke-width="2"/>
    <path id="Path_1182" data-name="Path 1182" d="M935.454,243.441,899.21,235.27S907.763,273.5,935.454,243.441Z" transform="translate(-250.462 -81.24)" fill="#6c63ff"/>
    <path id="Path_1183" data-name="Path 1183" d="M875.014,198.08l20.855,31.233S855.1,232.258,875.014,198.08Z" transform="translate(-245.404 -74.902)" fill="#6c63ff"/>
    <path id="Path_1184" data-name="Path 1184" d="M953.285,208.537,920.16,202.73S940.966,234.378,953.285,208.537Z" transform="translate(-254.033 -75.694)" fill="#6c63ff"/>
    <path id="Path_1185" data-name="Path 1185" d="M900.349,176.08l16.318,21.37S887.781,200.187,900.349,176.08Z" transform="translate(-250.117 -71.152)" fill="#6c63ff"/>
    <path id="Path_1186" data-name="Path 1186" d="M940.81,170.95s28.205,1.344,31.524,4.04-4.206,18.5-14.932,15.919S940.81,170.95,940.81,170.95Z" transform="translate(-257.553 -70.278)" fill="#6c63ff"/>
    <path id="Path_1187" data-name="Path 1187" d="M925.063,140.56s11.523,21,11.091,24.995-17.562,8.486-21.021-6.637S925.063,140.56,925.063,140.56Z" transform="translate(-253.079 -65.098)" fill="#6c63ff"/>
    <circle id="Ellipse_85" data-name="Ellipse 85" cx="7.843" cy="7.843" r="7.843" transform="translate(690.497 94.253) rotate(-72.474)" fill="#d1d0e1"/>
    <circle id="Ellipse_86" data-name="Ellipse 86" cx="7.843" cy="7.843" r="7.843" transform="translate(678.219 86.182) rotate(-72.474)" fill="#d1d0e1"/>
    <path id="Path_1188" data-name="Path 1188" d="M424.479,647.1s13.447-40-71.8-88.224c0,0-86.557-25.244-77.705-111.933,0,0-99.78,73.1-32.262,166.22s125.8,72.794,125.8,72.794Z" transform="translate(-134.577 -117.316)" fill="#6c63ff"/>
    <path id="Path_1189" data-name="Path 1189" d="M407.591,665.165S366,620.211,326.128,602.832a79.4,79.4,0,0,1-21.66-14.426c-25.418-23.228-36.5-58.277-29.947-92.082L284.1,446.94" transform="translate(-143.679 -117.316)" fill="none" stroke="#535461" stroke-miterlimit="10" stroke-width="2"/>
    <rect id="Rectangle_148" data-name="Rectangle 148" width="473.358" height="549.612" transform="translate(160.167 27.538)" fill="url(#linear-gradient)"/>
    <rect id="Rectangle_149" data-name="Rectangle 149" width="462.333" height="536.803" transform="translate(165.683 33.933)" fill="#f7f7fd"/>
    <rect id="Rectangle_150" data-name="Rectangle 150" width="116.877" height="9.308" transform="translate(193.607 94.442)" fill="#e2e2ec"/>
    <rect id="Rectangle_151" data-name="Rectangle 151" width="199.618" height="9.308" transform="translate(193.607 117.197)" fill="#e2e2ec"/>
    <rect id="Rectangle_152" data-name="Rectangle 152" width="82.948" height="71.575" transform="translate(522.927 85.549)" fill="#fff"/>
    <path id="Path_1190" data-name="Path 1190" d="M829.957,153.05v70.745H747.83V153.05h82.127m.83-.83H747v72.4h83.786Z" transform="translate(-224.521 -67.086)" fill="#e2e2ec"/>
    <rect id="Rectangle_153" data-name="Rectangle 153" width="82.948" height="71.575" transform="translate(439.15 85.549)" fill="#fff"/>
    <path id="Path_1191" data-name="Path 1191" d="M728.957,153.05v70.745H646.83V153.05h82.127m.83-.83H646v72.4h83.786Z" transform="translate(-207.307 -67.086)" fill="#e2e2ec"/>
    <rect id="Rectangle_154" data-name="Rectangle 154" width="82.948" height="71.575" transform="translate(522.927 157.954)" fill="#fff"/>
    <path id="Path_1192" data-name="Path 1192" d="M829.957,240.33v70.745H747.83V240.33h82.127m.83-.83H747v72.4h83.786Z" transform="translate(-224.521 -81.961)" fill="#e2e2ec"/>
    <rect id="Rectangle_155" data-name="Rectangle 155" width="82.948" height="71.575" transform="translate(439.15 157.954)" fill="#fff"/>
    <path id="Path_1193" data-name="Path 1193" d="M728.957,240.33v70.745H646.83V240.33h82.127m.83-.83H646v72.4h83.786Z" transform="translate(-207.307 -81.961)" fill="#e2e2ec"/>
    <rect id="Rectangle_156" data-name="Rectangle 156" width="82.948" height="71.575" transform="translate(355.372 157.954)" fill="#fff"/>
    <path id="Path_1194" data-name="Path 1194" d="M628.006,240.33v70.745H545.88V240.33h82.127m.83-.83H545.05v72.4h83.786Z" transform="translate(-190.101 -81.961)" fill="#e2e2ec"/>
    <rect id="Rectangle_157" data-name="Rectangle 157" width="82.948" height="71.575" transform="translate(271.594 157.954)" fill="#fff"/>
    <path id="Path_1195" data-name="Path 1195" d="M527.017,240.33v70.745H444.89V240.33h82.127m.829-.83H444.06v72.4h83.786Z" transform="translate(-172.889 -81.961)" fill="#e2e2ec"/>
    <rect id="Rectangle_158" data-name="Rectangle 158" width="82.948" height="71.575" transform="translate(187.816 157.954)" fill="#fff"/>
    <path id="Path_1196" data-name="Path 1196" d="M426.027,240.33v70.745H343.9V240.33h82.127m.83-.83H343.07v72.4h83.786Z" transform="translate(-155.677 -81.961)" fill="#e2e2ec"/>
    <rect id="Rectangle_159" data-name="Rectangle 159" width="82.948" height="71.575" transform="translate(522.927 230.35)" fill="#fff"/>
    <path id="Path_1197" data-name="Path 1197" d="M829.957,327.61v70.745H747.83V327.61h82.127m.83-.83H747v72.4h83.786Z" transform="translate(-224.521 -96.837)" fill="#e2e2ec"/>
    <rect id="Rectangle_160" data-name="Rectangle 160" width="82.948" height="71.575" transform="translate(439.15 230.35)" fill="#fff"/>
    <path id="Path_1198" data-name="Path 1198" d="M728.957,327.61v70.745H646.83V327.61h82.127m.83-.83H646v72.4h83.786Z" transform="translate(-207.307 -96.837)" fill="#e2e2ec"/>
    <rect id="Rectangle_161" data-name="Rectangle 161" width="82.948" height="71.575" transform="translate(355.372 230.35)" fill="#fff"/>
    <path id="Path_1199" data-name="Path 1199" d="M628.006,327.61v70.745H545.88V327.61h82.127m.83-.83H545.05v72.4h83.786Z" transform="translate(-190.101 -96.837)" fill="#e2e2ec"/>
    <rect id="Rectangle_162" data-name="Rectangle 162" width="82.948" height="71.575" transform="translate(271.594 230.35)" fill="#fff"/>
    <path id="Path_1200" data-name="Path 1200" d="M527.017,327.61v70.745H444.89V327.61h82.127m.829-.83H444.06v72.4h83.786Z" transform="translate(-172.889 -96.837)" fill="#e2e2ec"/>
    <rect id="Rectangle_163" data-name="Rectangle 163" width="82.948" height="71.575" transform="translate(187.816 230.35)" fill="#fff"/>
    <path id="Path_1201" data-name="Path 1201" d="M426.027,327.61v70.745H343.9V327.61h82.127m.83-.83H343.07v72.4h83.786Z" transform="translate(-155.677 -96.837)" fill="#e2e2ec"/>
    <rect id="Rectangle_164" data-name="Rectangle 164" width="82.948" height="71.575" transform="translate(522.927 302.754)" fill="#fff"/>
    <path id="Path_1202" data-name="Path 1202" d="M829.957,414.88v70.745H747.83V414.88h82.127m.83-.83H747v72.4h83.786Z" transform="translate(-224.521 -111.711)" fill="#e2e2ec"/>
    <rect id="Rectangle_165" data-name="Rectangle 165" width="82.948" height="71.575" transform="translate(439.15 302.754)" fill="#fff"/>
    <path id="Path_1203" data-name="Path 1203" d="M728.957,414.88v70.745H646.83V414.88h82.127m.83-.83H646v72.4h83.786Z" transform="translate(-207.307 -111.711)" fill="#e2e2ec"/>
    <rect id="Rectangle_166" data-name="Rectangle 166" width="82.948" height="71.575" transform="translate(355.372 302.754)" fill="#fff"/>
    <path id="Path_1204" data-name="Path 1204" d="M628.006,414.88v70.745H545.88V414.88h82.127m.83-.83H545.05v72.4h83.786Z" transform="translate(-190.101 -111.711)" fill="#e2e2ec"/>
    <rect id="Rectangle_167" data-name="Rectangle 167" width="82.948" height="71.575" transform="translate(271.594 302.754)" fill="#fff"/>
    <path id="Path_1205" data-name="Path 1205" d="M527.017,414.88v70.745H444.89V414.88h82.127m.829-.83H444.06v72.4h83.786Z" transform="translate(-172.889 -111.711)" fill="#e2e2ec"/>
    <rect id="Rectangle_168" data-name="Rectangle 168" width="82.948" height="71.575" transform="translate(187.816 302.754)" fill="#fff"/>
    <path id="Path_1206" data-name="Path 1206" d="M426.027,414.88v70.745H343.9V414.88h82.127m.83-.83H343.07v72.4h83.786Z" transform="translate(-155.677 -111.711)" fill="#e2e2ec"/>
    <rect id="Rectangle_169" data-name="Rectangle 169" width="82.948" height="71.575" transform="translate(522.927 375.15)" fill="#fff"/>
    <path id="Path_1207" data-name="Path 1207" d="M829.957,502.16V572.9H747.83V502.16h82.127m.83-.83H747v72.4h83.786Z" transform="translate(-224.521 -126.586)" fill="#e2e2ec"/>
    <rect id="Rectangle_170" data-name="Rectangle 170" width="82.948" height="71.575" transform="translate(439.15 375.15)" fill="#fff"/>
    <path id="Path_1208" data-name="Path 1208" d="M728.957,502.16V572.9H646.83V502.16h82.127m.83-.83H646v72.4h83.786Z" transform="translate(-207.307 -126.586)" fill="#e2e2ec"/>
    <rect id="Rectangle_171" data-name="Rectangle 171" width="82.948" height="71.575" transform="translate(355.372 375.15)" fill="#fff"/>
    <path id="Path_1209" data-name="Path 1209" d="M628.006,502.16V572.9H545.88V502.16h82.127m.83-.83H545.05v72.4h83.786Z" transform="translate(-190.101 -126.586)" fill="#e2e2ec"/>
    <rect id="Rectangle_172" data-name="Rectangle 172" width="82.948" height="71.575" transform="translate(271.594 375.15)" fill="#fff"/>
    <path id="Path_1210" data-name="Path 1210" d="M527.017,502.16V572.9H444.89V502.16h82.127m.829-.83H444.06v72.4h83.786Z" transform="translate(-172.889 -126.586)" fill="#e2e2ec"/>
    <rect id="Rectangle_173" data-name="Rectangle 173" width="82.948" height="71.575" transform="translate(187.816 375.15)" fill="#fff"/>
    <path id="Path_1211" data-name="Path 1211" d="M426.027,502.16V572.9H343.9V502.16h82.127m.83-.83H343.07v72.4h83.786Z" transform="translate(-155.677 -126.586)" fill="#e2e2ec"/>
    <rect id="Rectangle_174" data-name="Rectangle 174" width="82.948" height="71.575" transform="translate(522.927 447.555)" fill="#fff"/>
    <path id="Path_1212" data-name="Path 1212" d="M829.957,589.43v70.745H747.83V589.43h82.127m.83-.83H747V661h83.786Z" transform="translate(-224.521 -141.46)" fill="#e2e2ec"/>
    <rect id="Rectangle_175" data-name="Rectangle 175" width="82.948" height="71.575" transform="translate(439.15 447.555)" fill="#fff"/>
    <path id="Path_1213" data-name="Path 1213" d="M728.957,589.43v70.745H646.83V589.43h82.127m.83-.83H646V661h83.786Z" transform="translate(-207.307 -141.46)" fill="#e2e2ec"/>
    <rect id="Rectangle_176" data-name="Rectangle 176" width="82.948" height="71.575" transform="translate(355.372 447.555)" fill="#fff"/>
    <path id="Path_1214" data-name="Path 1214" d="M628.006,589.43v70.745H545.88V589.43h82.127m.83-.83H545.05V661h83.786Z" transform="translate(-190.101 -141.46)" fill="#e2e2ec"/>
    <rect id="Rectangle_177" data-name="Rectangle 177" width="82.948" height="71.575" transform="translate(271.594 447.555)" fill="#fff"/>
    <path id="Path_1215" data-name="Path 1215" d="M527.017,589.43v70.745H444.89V589.43h82.127m.829-.83H444.06V661h83.786Z" transform="translate(-172.889 -141.46)" fill="#e2e2ec"/>
    <rect id="Rectangle_178" data-name="Rectangle 178" width="82.948" height="71.575" transform="translate(187.816 447.555)" fill="#fff"/>
    <path id="Path_1216" data-name="Path 1216" d="M426.027,589.43v70.745H343.9V589.43h82.127m.83-.83H343.07V661h83.786Z" transform="translate(-155.677 -141.46)" fill="#e2e2ec"/>
    <path id="Path_1217" data-name="Path 1217" d="M543.053,750.195c2.372-1.8,4.6-3.924,5.293-6.512a5.508,5.508,0,0,0-3.7-6.636c-3.393-1.062-7.018.83-9.772,2.8s-5.9,4.148-9.5,3.741c3.725-2.7,5.5-7.068,4.471-11.042a4.28,4.28,0,0,0-1.244-2.24c-1.883-1.659-5.3-.937-7.557.357-7.176,4.148-9.175,12.07-9.216,19.229-.722-2.58-.116-5.268-.133-7.922s-.9-5.583-3.642-7.01a13.031,13.031,0,0,0-5.558-1.07c-3.227-.1-6.819.166-9.017,2.091-2.737,2.389-2.024,6.4.357,9.034s6.006,4.28,9.333,6.1c2.539,1.385,5.11,3,6.637,5.193a4.718,4.718,0,0,1,.5.929h20.216A58.119,58.119,0,0,0,543.053,750.195Z" transform="translate(-181.011 -165.447)" fill="#6c63ff"/>
    <circle id="Ellipse_87" data-name="Ellipse 87" cx="4.729" cy="4.729" r="4.729" transform="translate(194.03 164.109)" fill="#7569df"/>
    <circle id="Ellipse_88" data-name="Ellipse 88" cx="4.729" cy="4.729" r="4.729" transform="translate(205.843 164.109)" fill="#d1d0e1"/>
    <circle id="Ellipse_89" data-name="Ellipse 89" cx="4.729" cy="4.729" r="4.729" transform="translate(361.005 234.207)" fill="#6c63ff"/>
    <circle id="Ellipse_90" data-name="Ellipse 90" cx="4.729" cy="4.729" r="4.729" transform="translate(372.826 234.207)" fill="#6c63ff"/>
    <circle id="Ellipse_91" data-name="Ellipse 91" cx="4.729" cy="4.729" r="4.729" transform="translate(613.831 369.675)" fill="#6c63ff"/>
    <circle id="Ellipse_92" data-name="Ellipse 92" cx="4.729" cy="4.729" r="4.729" transform="translate(616.195 364.167)" fill="#6c63ff"/>
    <circle id="Ellipse_93" data-name="Ellipse 93" cx="4.729" cy="4.729" r="4.729" transform="translate(618.56 359.438)" fill="#6c63ff"/>
    <circle id="Ellipse_94" data-name="Ellipse 94" cx="4.729" cy="4.729" r="4.729" transform="translate(530.344 164.109)" fill="#6c63ff"/>
    <circle id="Ellipse_95" data-name="Ellipse 95" cx="4.729" cy="4.729" r="4.729" transform="translate(542.157 164.109)" fill="#6c63ff"/>
    <circle id="Ellipse_96" data-name="Ellipse 96" cx="4.729" cy="4.729" r="4.729" transform="translate(553.978 164.109)" fill="#6c63ff"/>
    <circle id="Ellipse_97" data-name="Ellipse 97" cx="4.729" cy="4.729" r="4.729" transform="translate(565.791 164.109)" fill="#6c63ff"/>
    <circle id="Ellipse_98" data-name="Ellipse 98" cx="4.729" cy="4.729" r="4.729" transform="translate(530.344 310.602)" fill="#6c63ff"/>
    <circle id="Ellipse_99" data-name="Ellipse 99" cx="4.729" cy="4.729" r="4.729" transform="translate(542.157 310.602)" fill="#6c63ff"/>
    <circle id="Ellipse_100" data-name="Ellipse 100" cx="4.729" cy="4.729" r="4.729" transform="translate(553.978 310.602)" fill="#6c63ff"/>
    <circle id="Ellipse_101" data-name="Ellipse 101" cx="4.729" cy="4.729" r="4.729" transform="translate(565.791 310.602)" fill="#6c63ff"/>
    <circle id="Ellipse_102" data-name="Ellipse 102" cx="4.729" cy="4.729" r="4.729" transform="translate(277.517 234.207)" fill="#d1d0e1"/>
    <circle id="Ellipse_103" data-name="Ellipse 103" cx="4.729" cy="4.729" r="4.729" transform="translate(194.03 305.882)" fill="#7569df"/>
    <path id="Path_1218" data-name="Path 1218" d="M857.323,460.641c5.185,3.061,13.273,5.052,23.518-1.526l-.1,14.567c.73,9.955,13.082,46.381,13.082,46.381l8.71,29.947a234.318,234.318,0,0,1,9.573,65.146c0,7.308.68,14.841,2.779,20.507,4.637,12.535-1.825,28.686-4.629,34.7a145.788,145.788,0,0,1-14.376,4.048,9.818,9.818,0,0,0-1.286.39l-.058-.083s-13.074,5.185-18.881,4.471c-4.33-.531-7.043,4.87-3.65,8.843-3.2.83-6.487,1.419-8.7,1.145-5.807-.713-8.719,9.275,2.182,12.128s72.662,0,72.662,0a8.76,8.76,0,0,0,4.646-9.673c4.745-.183,7.707-.324,7.707-.324s10.9-4.977,0-18.557l-.581.44-2.331-6.861v-9.266s13.8-66.365,9.449-74.213-6.537-47.808-6.537-47.808l1.477-43.527c3.94-8.13,5.956-20.872,6.976-30.835a65.418,65.418,0,0,0,2.787-14.625c.174-2.339.315-4.795.406-7.342a49.217,49.217,0,0,0-2.7-16.417c4.148-5.973,10.892-15.206,16.458-20.664,8.719-8.561,6.537-18.557,6.537-18.557L978.8,358.812l-8.719-41.387c1.1-11.481-1.3-18.093-3.949-21.826.63-3.708,1.219-7.416,1.659-11.141a142.581,142.581,0,0,0-2.547-48.513c-1.261-5.55-2.978-11.241-6.869-15.447-4.405-4.762-11.556-7.665-13.2-13.9a40.4,40.4,0,0,0-1.012-4.7c-1.593-4.081-6.637-5.566-11.05-6.1-7.864-.954-19.238-1.659-26.8,1.41-5.276,2.157-12.543,8.1-15.43,14.468-1.659,2.928-2.431,6.006-1.726,8.9a12.2,12.2,0,0,0,1.253,3.045,27.376,27.376,0,0,0-1.693,9.532A27.84,27.84,0,0,0,906.5,258.982c.174.548.332,1.087.465,1.618a27.755,27.755,0,0,1,.713,3.891c-.141,2.489-.3,5.052-.415,7.582q-.125.523-.266,1.029a186.938,186.938,0,0,0-18.25,9.308c4.363,6.421-.73,33.539-.73,33.539-10.9,6.421-21.8,22.838-10.17,39.96s5.085,35.671,5.085,35.671l-1.817,27.9h0v.05l-.365,5.583h.141l-.141,2.115.315.058v2.273c-5.1,1.875-12.56,5.658-17.006,12.651a44.642,44.642,0,0,1-7.607,9.333,5.608,5.608,0,0,0,.871,9.1Zm87.735-74.13a26.546,26.546,0,0,1,2.58-14.036q2.563.05,5.135.058c.174,1.2.382,2.348.63,3.393,1.477,6.288-4.422,9.3-8.354,10.577Z" transform="translate(-242.845 -74.375)" fill="url(#linear-gradient-2)"/>
    <path id="Path_1219" data-name="Path 1219" d="M953.46,758.108l2.8,8.387-9.125,9.125-30.063,6.993-21.677-2.1,1.4-7.69h0a9.274,9.274,0,0,1,6.885-6.778c8.91-2.09,25.9-6.869,29.466-13.5Z" transform="translate(-249.811 -169.403)" fill="#db8b8b"/>
    <path id="Path_1220" data-name="Path 1220" d="M953.46,758.108l2.8,8.387-9.125,9.125-30.063,6.993-21.677-2.1,1.4-7.69h0a9.274,9.274,0,0,1,6.885-6.778c8.91-2.09,25.9-6.869,29.466-13.5Z" transform="translate(-249.811 -169.403)" opacity="0.1"/>
    <path id="Path_1221" data-name="Path 1221" d="M899.1,780.818l4.2-5.591-4.2-6.479s-12.584,5.077-18.176,4.38-8.387,9.125,2.1,11.888,69.916,0,69.916,0,10.486-4.895,0-18.176l-9.125,6.993s-15.38,8.387-23.07,6.993Z" transform="translate(-246.497 -171.838)" fill="#2e3037"/>
    <path id="Path_1222" data-name="Path 1222" d="M881.1,792.249l21.677,2.1,30.063-6.993,9.125-9.125-.738-2.223-1.045-3.119-1.045-3.036-20.275-5.591a12.562,12.562,0,0,1-4.148,4.148c-6.587,4.5-18.416,7.756-25.36,9.382a7.267,7.267,0,0,0-.83.257,9.241,9.241,0,0,0-6.023,6.52Z" transform="translate(-247.376 -171.399)" fill="#db8b8b"/>
    <path id="Path_1223" data-name="Path 1223" d="M881.1,794.663l21.677,2.1,30.063-6.993,9.125-9.125-.738-2.223-8.345,6.421s-15.38,8.387-23.07,6.993H888.093l4.2-5.591-3.766-5.807a9.242,9.242,0,0,0-6.023,6.52Z" transform="translate(-247.376 -173.812)" opacity="0.1"/>
    <path id="Path_1224" data-name="Path 1224" d="M884.772,792.618l4.2-5.591-4.2-6.479s-12.584,5.077-18.176,4.38-8.387,9.125,2.1,11.888,69.916,0,69.916,0,10.486-4.894,0-18.176l-9.125,6.993s-15.38,8.387-23.07,6.993Z" transform="translate(-244.055 -173.849)" fill="#2e3037"/>
    <path id="Path_1225" data-name="Path 1225" d="M910.6,299.048s33.564,3.492,28.67-10.486a25.167,25.167,0,0,1-1.037-12.344A34.218,34.218,0,0,1,944.164,262L912.7,266.894a39.4,39.4,0,0,1,4.264,10.1C920.712,291.823,910.6,299.048,910.6,299.048Z" transform="translate(-252.404 -85.796)" fill="#db8b8b"/>
    <path id="Path_1226" data-name="Path 1226" d="M971.371,498.82s-.7,30.064-7.69,44.747l-1.4,42.648s2.1,39.156,6.3,46.846-9.125,72.711-9.125,72.711v11.191s-22.4,8.387-28.67-1.4l6.3-83.205L934.281,517Z" transform="translate(-255.843 -126.158)" fill="#474463"/>
    <path id="Path_1227" data-name="Path 1227" d="M971.371,498.82s-.7,30.064-7.69,44.747l-1.4,42.648s2.1,39.156,6.3,46.846-9.125,72.711-9.125,72.711v11.191s-22.4,8.387-28.67-1.4l6.3-83.205L934.281,517Z" transform="translate(-255.843 -126.158)" opacity="0.1"/>
    <path id="Path_1228" data-name="Path 1228" d="M990.107,382.51l4.2,11.191,3.492,23.775a21.029,21.029,0,0,1-6.3,18.176c-8.387,8.387-19.578,25.866-19.578,25.866L958.65,421.7s13.273-2.1,11.191-11.191-1.41-25.932-1.41-25.932Z" transform="translate(-260.593 -106.335)" fill="#e6ebff"/>
    <path id="Path_1229" data-name="Path 1229" d="M990.107,382.51l4.2,11.191,3.492,23.775a21.029,21.029,0,0,1-6.3,18.176c-8.387,8.387-19.578,25.866-19.578,25.866L958.65,421.7s13.273-2.1,11.191-11.191-1.41-25.932-1.41-25.932Z" transform="translate(-260.593 -106.335)" opacity="0.05"/>
    <path id="Path_1230" data-name="Path 1230" d="M921.66,768.416c8.968,14.1,22.929,6.114,25.4,4.521l-1.012-3.086-20.275-5.591a12.561,12.561,0,0,1-4.115,4.156Z" transform="translate(-254.289 -171.399)" opacity="0.1"/>
    <path id="Path_1231" data-name="Path 1231" d="M887.85,515.739c.7,9.789,12.584,45.444,12.584,45.444l8.387,29.342a233.484,233.484,0,0,1,9.216,63.827c0,7.159.655,14.542,2.679,20.092,5.591,15.38-5.591,36.36-5.591,36.36,9.789,17.479,26.546,5.591,26.546,5.591V705.212s13.273-60.832,9.789-72.711-4.895-44.05-4.895-44.05v-58.07a65.851,65.851,0,0,0,19.188-41.744c.166-2.29.3-4.7.39-7.192.564-15.762-10.22-34.269-14.434-40.856-1.012-1.593-1.659-2.489-1.659-2.489l-61.736,24.489-.141.058v7.674Z" transform="translate(-248.526 -115.81)" fill="#474463"/>
    <path id="Path_1232" data-name="Path 1232" d="M913.13,266.886a39.4,39.4,0,0,1,4.264,10.1,27.376,27.376,0,0,0,21.27-.78A34.22,34.22,0,0,1,944.6,262Z" transform="translate(-252.835 -85.796)" opacity="0.1"/>
    <circle id="Ellipse_104" data-name="Ellipse 104" cx="27.268" cy="27.268" r="27.268" transform="translate(647.014 137.032)" fill="#db8b8b"/>
    <path id="Path_1233" data-name="Path 1233" d="M887.85,470.3l.3.058c29.317,6.031,66.125-24.53,66.125-24.53a36.228,36.228,0,0,1-2.547-5.2c-1.012-1.593-1.659-2.489-1.659-2.489l-61.736,24.489-.157,2.447Z" transform="translate(-248.526 -115.816)" opacity="0.1"/>
    <path id="Path_1234" data-name="Path 1234" d="M893.979,302.451s39.156-23.775,51.74-13.987l17.479,22.4s11.191,3.492,9.125,25.866l8.354,40.541-25.169,6.3s-14.683,13.987-2.8,34.261c0,0-37.057,30.76-66.423,24.472l2.1-32.859s6.3-18.176-4.894-34.958-.7-32.859,9.789-39.156C893.282,335.318,898.168,308.747,893.979,302.451Z" transform="translate(-246.965 -89.904)" fill="#e6ebff"/>
    <path id="Path_1235" data-name="Path 1235" d="M888.259,477.75s-14.683,2.8-21.677,13.987a43.573,43.573,0,0,1-7.317,9.125,5.55,5.55,0,0,0,.83,8.843c5.55,3.318,14.6,5.384,26.032-4.007C905.738,489.638,888.259,477.75,888.259,477.75Z" transform="translate(-243.344 -122.567)" fill="#db8b8b"/>
    <path id="Path_1236" data-name="Path 1236" d="M915.844,321.722s13.986-1.4,17.479,34.958,9.125,44.747,9.125,44.747,3.492,18.881-4.895,30.063-24.472,34.958-24.472,34.958-17.479,4.894-20.971-12.585l21.677-40.549s3.492-13.987-4.895-23.775S894.167,314.729,915.844,321.722Z" transform="translate(-249.252 -95.885)" opacity="0.1"/>
    <path id="Path_1237" data-name="Path 1237" d="M914.124,319.192s13.986-1.4,17.479,34.958,9.125,44.747,9.125,44.747,3.492,18.881-4.895,30.063-24.472,34.958-24.472,34.958-17.479,4.894-20.971-12.585l21.677-40.549s3.492-13.986-4.895-23.775S892.472,312.2,914.124,319.192Z" transform="translate(-248.959 -95.454)" fill="#e6ebff"/>
    <path id="Path_1238" data-name="Path 1238" d="M905.093,350.9s-1.394,21.652,4.878,33.564,6.3,27.268,0,35.671" transform="translate(-251.443 -100.948)" opacity="0.1"/>
    <path id="Path_1239" data-name="Path 1239" d="M900.91,316.438s5.591-5.591,21.677-6.3,23.07-5.591,23.07-5.591" transform="translate(-250.752 -93.048)" opacity="0.1"/>
    <path id="Path_1240" data-name="Path 1240" d="M939.214,205.015c4.247.523,9.125,1.983,10.635,5.973a40.871,40.871,0,0,1,.971,4.6c1.584,6.106,8.462,8.951,12.7,13.621,3.741,4.148,5.392,9.7,6.637,15.131a142.19,142.19,0,0,1,2.489,47.5c-1.361,11.614-4.148,23.012-4.928,34.659s.647,23.9,7.01,33.689c2.738,4.206,6.354,7.906,8.3,12.535-4.007,3.252-9.54,3.716-14.708,3.891q-9.017.307-18.043,0c-3.152-.108-6.446-.315-9.167-1.908a14.154,14.154,0,0,1-4.811-5.168c-3.443-5.807-4.305-12.858-4.148-19.627s1.219-13.505,1.344-20.283c.066-3.692-.224-7.615-2.348-10.635-1.535-2.182-3.866-3.65-5.857-5.417-7.466-6.636-10.054-17.272-10.3-27.268s1.4-20.009.556-29.972c-.332-3.9-1.792-8.586-5.625-9.341-1.211-.241-2.489,0-3.65-.465-3.078-1.186-2.779-5.525-3.658-8.7-.987-3.567-4.032-6.321-4.886-9.955-2.016-8.462,8.752-18.557,15.812-21.5C920.706,203.372,931.648,204.086,939.214,205.015Z" transform="translate(-250.166 -75.947)" opacity="0.1"/>
    <path id="Path_1241" data-name="Path 1241" d="M940.054,203.333c4.247.523,9.125,1.983,10.635,5.973a40.9,40.9,0,0,1,.971,4.6c1.584,6.106,8.461,8.951,12.7,13.621,3.741,4.148,5.392,9.7,6.637,15.131a142.186,142.186,0,0,1,2.489,47.5c-1.36,11.614-4.148,23.012-4.927,34.659s.647,23.9,7.01,33.689c2.738,4.206,6.355,7.906,8.3,12.535-4.007,3.252-9.54,3.716-14.708,3.891q-9.017.307-18.043,0c-3.152-.108-6.446-.315-9.167-1.908a14.153,14.153,0,0,1-4.811-5.168c-3.443-5.807-4.306-12.858-4.148-19.628s1.219-13.505,1.344-20.283c.066-3.692-.224-7.615-2.348-10.635-1.535-2.182-3.866-3.65-5.857-5.417-7.466-6.636-10.054-17.272-10.3-27.268s1.4-20.009.556-29.972c-.332-3.9-1.792-8.586-5.624-9.341-1.211-.241-2.489,0-3.65-.465-3.078-1.186-2.779-5.525-3.658-8.7-.987-3.567-4.032-6.321-4.886-9.955-2.016-8.462,8.752-18.557,15.811-21.5C921.547,201.683,932.488,202.4,940.054,203.333Z" transform="translate(-250.309 -75.659)" fill="#472727"/>
  </g>
</svg>
