<svg xmlns="http://www.w3.org/2000/svg" width="600.564" height="360.85" viewBox="0 0 600.564 360.85">
  <g id="Group_688" data-name="Group 688" transform="translate(-45.065 -48.428)">
    <g id="Group_664" data-name="Group 664" transform="translate(45.065 48.428)">
      <path id="Path_3454" data-name="Path 3454" d="M245.153,65.585c-45.931-.949-88.633,18.888-102.03,56.171-7.919,22.036-6.731,48.434-21.756,66.1-14.864,17.48-40.706,20.265-57.584,35.678-13.306,12.15-19.49,31.264-18.642,49.572s8.115,35.82,18.086,50.992c31.461,47.875,92.191,73.158,147.061,61.224,36.552-7.949,70.69-30.755,107.963-28.182,31.549,2.177,58.889,22.177,88.3,34.139,55.314,22.493,121.153,15.122,170.5-19.089,19.589-13.582,37.028-31.739,45.488-54.466s6.557-50.433-8.7-69.011c-15.492-18.87-43.592-36.357-79.756-30.537-23.687,3.812-70.681,30.639-113.268,23.6-23.672-3.914-80.345-10.61-84.522-98.649C334.58,106.873,307.449,66.871,245.153,65.585Z" transform="translate(-45.065 -49.884)" fill="#f3f6ff"/>
      <path id="Path_3455" data-name="Path 3455" d="M93.754,163.628c2.758,5.405,9.2,8.36,15.252,7.887s11.592-3.952,15.528-8.571c3.437-4.034,5.854-9.6,4.146-14.614-2-5.893-9.11-8.753-15.286-7.979C103.262,141.621,87.47,151.312,93.754,163.628Z" transform="translate(-49.081 -56.229)" fill="#e9ecff"/>
      <path id="Path_3456" data-name="Path 3456" d="M525.31,71.829c2.758,5.405,9.2,8.36,15.252,7.887s11.592-3.951,15.528-8.57c3.438-4.034,5.854-9.6,4.147-14.614-2.006-5.893-9.11-8.753-15.286-7.98C534.819,49.823,519.026,59.514,525.31,71.829Z" transform="translate(-85.754 -48.428)" fill="#e9ecff"/>
      <path id="Path_3457" data-name="Path 3457" d="M671.1,322.937c-6.261,3.16-9.707,10.594-9.191,17.588s4.51,13.418,9.829,17.989c4.646,3.993,11.063,6.814,16.871,4.865,6.821-2.289,10.161-10.486,9.3-17.629C696.493,334.035,685.369,315.734,671.1,322.937Z" transform="translate(-97.48 -71.617)" fill="#e9ecff" style="mix-blend-mode: multiply;isolation: isolate"/>
      <path id="Path_3458" data-name="Path 3458" d="M138.789,49.095a10.1,10.1,0,0,0-7.161,9c-.24,3.958,1.739,7.912,4.7,10.951,2.583,2.654,6.367,4.812,10.153,4.248,4.448-.662,7.2-4.944,7.23-9.017C153.765,57.6,148.285,46.36,138.789,49.095Z" transform="translate(-52.42 -48.449)" fill="#e9ecff"/>
      <path id="Path_3459" data-name="Path 3459" d="M60.368,205.851a6.126,6.126,0,0,0-4.915,5.459c-.117,2.438,1.326,4.9,3.444,6.815,1.85,1.671,4.539,3.052,7.193,2.753a5.5,5.5,0,0,0,4.964-5.465C71.006,211.294,67.007,204.288,60.368,205.851Z" transform="translate(-45.947 -61.787)" fill="#e9ecff"/>
      <path id="Path_3460" data-name="Path 3460" d="M78.859,97.381A6.127,6.127,0,0,0,80.4,90.2c-1.115-2.171-3.594-3.589-6.384-4.19-2.437-.526-5.455-.382-7.607,1.2a5.5,5.5,0,0,0-1.578,7.213C66.924,97.969,73.883,102.046,78.859,97.381Z" transform="translate(-46.683 -51.599)" fill="#e9ecff"/>
      <path id="Path_3461" data-name="Path 3461" d="M271.644,92.535a10.1,10.1,0,0,0-7.161,9c-.241,3.958,1.739,7.912,4.7,10.95,2.582,2.654,6.366,4.812,10.153,4.248,4.447-.662,7.2-4.944,7.23-9.016C286.619,101.04,281.14,89.8,271.644,92.535Z" transform="translate(-63.71 -52.141)" fill="#e9ecff" style="mix-blend-mode: multiply;isolation: isolate"/>
      <path id="Path_3462" data-name="Path 3462" d="M75.357,351.947a6.335,6.335,0,0,0-5.227-4.969,9.373,9.373,0,0,0-7.1,2.327c-1.8,1.467-3.357,3.71-3.214,6.107a5.662,5.662,0,0,0,5.231,5.013C69.217,360.83,76.541,358.03,75.357,351.947Z" transform="translate(-46.318 -73.793)" fill="#e9ecff" style="mix-blend-mode: multiply;isolation: isolate"/>
      <path id="Path_3463" data-name="Path 3463" d="M461.468,232.544a10.1,10.1,0,0,0,1.8,11.363c2.755,2.851,7.008,4.064,11.246,3.936,3.7-.111,7.849-1.442,9.992-4.614,2.516-3.727,1.217-8.645-1.761-11.422C477.857,227.251,465.868,223.7,461.468,232.544Z" transform="translate(-80.365 -63.611)" fill="#e9ecff" style="mix-blend-mode: multiply;isolation: isolate"/>
    </g>
    <g id="Group_687" data-name="Group 687" transform="translate(63.805 68.167)">
      <g id="Group_686" data-name="Group 686">
        <path id="Path_3464" data-name="Path 3464" d="M646.81,70H473.921V298.991H654.095V70Zm-60.058,7.285v37.056H541.265V77.285Zm0,81.4H541.265V121.626h45.487Zm0,44.341H541.265V165.967h45.487Zm0,44.341H541.265V210.309h45.487ZM481.206,77.285h52.773v37.056H481.206Zm0,44.341h52.773v37.056H481.206Zm0,44.341h52.773v37.056H481.206Zm0,44.342h52.773v37.055H481.206Zm0,81.4V254.65h52.773v37.056Zm60.058,0V254.65h45.487v37.056Zm105.545,0H594.037V254.65H646.81Zm0-44.342H594.037V210.309H646.81Zm0-44.341H594.037V165.967H646.81Zm0-44.341H594.037V121.626H646.81Zm0-44.341H594.037V77.285H646.81Z" transform="translate(-100.249 -70)" fill="#f3f4ff"/>
        <g id="Group_674" data-name="Group 674" transform="translate(373.896 35.769)">
          <ellipse id="Ellipse_161" data-name="Ellipse 161" cx="65.735" cy="13.364" rx="65.735" ry="13.364" transform="translate(12.755 267.09)" fill="#dfe4f2"/>
          <g id="Group_673" data-name="Group 673">
            <g id="Group_668" data-name="Group 668">
              <path id="Path_3465" data-name="Path 3465" d="M658.037,109.091s-10.507,14.307-8.086,26.69c2.614,13.368,11.887,29.424-6,41.5s-22.63,18.237-22.63,18.237S606.394,166.1,614,151.344s12.094-10.276,22.356-18.779C644.177,126.081,648.2,109.538,658.037,109.091Z" transform="translate(-540.865 -109.091)" fill="#9eb4b1"/>
              <path id="Path_3466" data-name="Path 3466" d="M649.559,135.814c-3.2,2.205-4.945,6.507-6.7,9.8-2.939,5.509-5.915,10.98-8.347,16.738-2.441,5.781-4.786,12.061-5.705,18.3-.369,2.5-.36,5.065-.494,7.593,1.047-1.179,5.021-5.271,15.253-12.178,12.3-8.3,5.922-19.34,4.124-28.53C646.905,143.537,648.087,139.242,649.559,135.814Z" transform="translate(-542.264 -111.362)" fill="#9eb4b1" opacity="0.3" style="mix-blend-mode: screen;isolation: isolate"/>
              <path id="Path_3467" data-name="Path 3467" d="M677.385,171.394s-6.921,14.812-7.6,26.381c-.8,13.6,4.248,25.933-13.637,38.005s-21.239,15.426-21.239,15.426-6.261-24.369-1.341-37.112c5.976-15.484,10.347-14.059,20.61-22.563C662,185.048,667.548,171.841,677.385,171.394Z" transform="translate(-542.551 -114.385)" fill="#9eb4b1"/>
              <path id="Path_3468" data-name="Path 3468" d="M664.172,209.506c.526-5.543,5.2-18.764,6.789-22.307-5.036,5.822-14.535,20.947-19.406,31.42-3.878,8.337-7.867,17.708-9.664,24.769,2.271-1.587,5.95-4.038,11.807-7.693C666.486,227.716,663.271,218.978,664.172,209.506Z" transform="translate(-543.418 -115.729)" fill="#9eb4b1" opacity="0.3" style="mix-blend-mode: screen;isolation: isolate"/>
              <path id="Path_3469" data-name="Path 3469" d="M541.271,168.908s6.161,14.015,19.551,20.7c13.881,6.924,27.27,18.888,30.622,37.359-11.669-6.92-21.793-1.362-38.776-7.844C535.959,212.739,527.256,183.576,541.271,168.908Z" transform="translate(-534.273 -114.174)" fill="#9eb4b1"/>
              <path id="Path_3470" data-name="Path 3470" d="M564.981,206.272c6.13,2.9,13.078,5.229,18.888,8.937-4.848-9.69-13.356-16.458-22.1-20.821a35.8,35.8,0,0,1-12.778-11.32C548.771,193.945,555.324,201.707,564.981,206.272Z" transform="translate(-535.523 -115.378)" fill="#9eb4b1" opacity="0.3" style="mix-blend-mode: screen;isolation: isolate"/>
              <g id="Group_665" data-name="Group 665" transform="translate(8.947 74.949)">
                <path id="Path_3471" data-name="Path 3471" d="M610.245,287.172a.617.617,0,0,1-.614-.569c-4.133-54.709-23.751-63.869-33.18-68.272-19.655-9.176-25.587-11.946-32.343-26.454a.616.616,0,0,1,1.117-.52c6.567,14.1,11.9,16.593,31.748,25.858,14.686,6.859,30.2,20.454,33.888,69.294a.618.618,0,0,1-.568.662A.422.422,0,0,1,610.245,287.172Z" transform="translate(-544.051 -191)" fill="#7a9984"/>
              </g>
              <g id="Group_666" data-name="Group 666" transform="translate(78.49 29.192)">
                <path id="Path_3472" data-name="Path 3472" d="M622.019,282.923a.616.616,0,0,1-.612-.56c-1.4-15.1-2.173-52.748,0-84.178s19.657-56.676,19.834-56.928a.616.616,0,0,1,1.008.707c-.175.25-17.467,25.232-19.613,56.3-2.168,31.366-1.393,68.926,0,83.982a.616.616,0,0,1-.557.67Z" transform="translate(-620.053 -140.994)" fill="#7a9984"/>
              </g>
              <g id="Group_667" data-name="Group 667" transform="translate(86.744 76.886)">
                <path id="Path_3473" data-name="Path 3473" d="M629.692,287.35a.615.615,0,0,1-.614-.581c-.012-.221-.242-5.762,5-33.829,5.256-28.132,27.975-59.26,28.2-59.572a.616.616,0,0,1,.992.729c-.227.309-22.782,31.217-27.986,59.068-5.186,27.761-4.986,33.483-4.984,33.538a.615.615,0,0,1-.583.645Z" transform="translate(-629.073 -193.117)" fill="#7a9984"/>
              </g>
            </g>
            <path id="Path_3474" data-name="Path 3474" d="M633.353,394.281H606.43L594.405,292.336h50.973Z" transform="translate(-539.383 -124.663)" fill="#9c724d"/>
            <g id="Group_672" data-name="Group 672" transform="translate(52.488 198.078)">
              <rect id="Rectangle_360" data-name="Rectangle 360" width="56.636" height="4.173" transform="translate(0 0)" fill="#fcc9cf"/>
              <g id="Group_671" data-name="Group 671" transform="translate(4.958 3.302)">
                <g id="Group_669" data-name="Group 669" transform="translate(0 0.001)">
                  <rect id="Rectangle_361" data-name="Rectangle 361" width="79.378" height="2.464" transform="matrix(0.124, -0.992, 0.992, 0.124, 0, 78.765)" fill="#fcc9cf"/>
                </g>
                <g id="Group_670" data-name="Group 670" transform="translate(34.443 0)">
                  <rect id="Rectangle_362" data-name="Rectangle 362" width="2.464" height="79.378" transform="matrix(0.992, -0.124, 0.124, 0.992, 0, 0.305)" fill="#fcc9cf"/>
                </g>
              </g>
            </g>
          </g>
        </g>
        <g id="Group_685" data-name="Group 685" transform="translate(0 61.581)">
          <ellipse id="Ellipse_162" data-name="Ellipse 162" cx="162.203" cy="16.958" rx="162.203" ry="16.958" transform="translate(0 245.615)" fill="#dfe4f2"/>
          <g id="Group_675" data-name="Group 675" transform="translate(25.126 43.226)">
            <path id="Path_3475" data-name="Path 3475" d="M145.933,189.046c-25.145,9.962-44.167,35.267-50.326,63.739s-1.946,64.376,18.651,94.884c38.243,56.647,110.381,62.249,137.131,62.459,37.414.294,65.381-7.064,96.159-22.025,42.829-20.818,50.467-79.053,27.056-107.485C356.961,259.19,334.451,255,302.589,267.844c-12.693,5.116-26.784,5.5-37.174-4.117-8.872-8.21-13.5-20.47-19.051-31.638-4.68-9.411-10.8-18.859-19.894-23.562-8.082-4.177-14.474-9.691-22.334-14.448A66.205,66.205,0,0,0,145.933,189.046Z" transform="translate(-93.004 -184.54)" fill="#0f056b"/>
            <path id="Path_3476" data-name="Path 3476" d="M227.587,388.772c-6.49.58-15.848-2.585-21.543-5.457-15.214-7.671-6.549-21.265,8.407-13.681,3.6,1.826,7.767,2.451,11.756,3.947C230.171,375.068,232.345,388.348,227.587,388.772Zm71.8-16.242c-2.678-4.693-9.8-6.62-16.064-6.114s-12.032,2.873-17.958,4.61a76.856,76.856,0,0,1-19.829,3.566c-6.229.218-9.178,16.2-.4,16.9,10.03.8,19.76,1.229,29.7.223,6.571-.664,13.391-1.631,18.73-4.86S302.209,377.472,299.389,372.531Z" transform="translate(-101.933 -199.989)" fill="#66f" opacity="0.4" style="mix-blend-mode: screen;isolation: isolate"/>
            <path id="Path_3477" data-name="Path 3477" d="M138.407,299.145c.582,1.427,1.339,2.977,2.781,3.52,2.027.762,4.273-1.046,4.833-3.138s-.047-4.293-.584-6.39c-8.715-34.03.73-70.134,26.082-94.45.65-.623,1.315-7.713-6.623-4.313-2.708,1.159-8.043,3.878-10.173,5.9-5.826,5.542-10.21,13.736-13.607,20.926a99.948,99.948,0,0,0-9.235,49.838A92.586,92.586,0,0,0,138.407,299.145Z" transform="translate(-96.285 -185.297)" fill="#66f" opacity="0.4" style="mix-blend-mode: screen;isolation: isolate"/>
            <path id="Path_3478" data-name="Path 3478" d="M163.369,345.6a17.134,17.134,0,0,0-6.037,10.906c1.316-4.33,5.483-7.309,9.858-8.466s8.99-.8,13.5-.436a15.748,15.748,0,0,0-6.342,16.174,14.819,14.819,0,0,1,9.408-10.838c1.961-.693,4.548-1.525,4.562-3.605a4.012,4.012,0,0,0-1.642-2.784C179.94,340.5,170.552,339.685,163.369,345.6Z" transform="translate(-98.471 -197.883)" fill="#ffc266" opacity="0.4" style="mix-blend-mode: multiply;isolation: isolate"/>
            <path id="Path_3479" data-name="Path 3479" d="M166.148,329.938a24.515,24.515,0,0,0-21.8-8.258c-3.688.6-6.63,2.342-8.059,4.782,2.179-2.255,6.757-2.732,11.139-2.01a40.15,40.15,0,0,1,6.664,1.775,31.687,31.687,0,0,0-22.008,6.495c-4.012,3.222-6.374,7.381-6.467,11.389,1.112-4.281,6.269-7.953,11.984-9.993,4.98-1.778,12-4.936,19.428-4.843-3.784,1.239-6.255,3.992-6.242,7.3a9.018,9.018,0,0,1,4.657-3.056c-4.474,4.276-7.869,9.639-5.806,13.5.58-4.737,4.917-9.492,11.016-12.078a28.8,28.8,0,0,0,3.77-1.8c1.279.032,2.391-.142,2.677-.936C167.346,331.519,166.77,330.671,166.148,329.938Z" transform="translate(-95.775 -196.171)" fill="#ffc266" opacity="0.4" style="mix-blend-mode: multiply;isolation: isolate"/>
            <path id="Path_3480" data-name="Path 3480" d="M379.25,331.051,355.841,308c-3.461-3.408-7.142-6.946-11.83-8.216-8.278-2.242-16.517,3.19-23.251,8.5-3.813,3.009-7.662,2.3-11.445,2.6,5.119-15.276,3.638-33.087-3.971-43.981-9.462-13.549-21.534-16.2-38.621-8.077-6.807,3.235-14.364,3.476-19.936-2.6-4.758-5.191-7.237-12.942-10.216-20-2.51-5.95-5.79-11.925-10.669-14.9-4.334-2.642-7.762-6.127-11.978-9.136a30.836,30.836,0,0,0-31.212-3.182c-13.486,6.3-23.686,22.3-26.989,40.3s-1.043,40.7,10,59.99c20.509,35.814,59.2,39.355,73.541,39.489,20.065.186,35.063-4.466,51.569-13.925a35.7,35.7,0,0,0,4.778-3.308c1.353,1.051,4.374,2.068,5.323,3.042a22.157,22.157,0,0,1,4.238,7.231,108.563,108.563,0,0,1,6.909,24.961c.851,5.622,1.295,11.433,3.72,16.576s7.463,9.566,13.14,9.244c5.383-.306,9.632-4.62,12.773-9s5.954-9.312,10.619-12.017c3.649-2.115,8.43-2.9,10.632-6.5,1.686-2.754,1.292-6.4,2.945-9.176,3.884-6.516,15.923-4.181,19.042-11.1C387.136,339.978,383.033,334.775,379.25,331.051Z" transform="translate(-98.215 -186.377)" fill="#ffc266" opacity="0.4" style="mix-blend-mode: multiply;isolation: isolate"/>
          </g>
          <g id="Group_684" data-name="Group 684" transform="translate(88.89)">
            <path id="Path_3481" data-name="Path 3481" d="M407.008,331.646s6.963,6.039,9.869,4.25,11.625-9.613,15.425-10.061,10.955,4.472,7.825,7.825-28.616,22.8-31.3,23.251S394.995,345.2,394.995,345.2Z" transform="translate(-182.432 -153.319)" fill="#e49477"/>
            <path id="Path_3482" data-name="Path 3482" d="M367.06,392.426s-.653,3.342,2.755,3.5,15.02-1.4,18.413.369,6.538,9.862,2.062,10.871-36.488,2.739-38.957,1.6-.1-14.945-.1-14.945Z" transform="translate(-178.626 -158.98)" fill="#e49477"/>
            <g id="Group_676" data-name="Group 676" transform="translate(143.918 147.668)">
              <path id="Path_3483" data-name="Path 3483" d="M351.928,300.653s24.145,75.118,25.337,82.271S344.775,400.214,341.2,394.55,321.226,325.1,320.033,323.9,335.832,290.518,351.928,300.653Z" transform="translate(-319.974 -298.682)" fill="#b8a691"/>
              <path id="Path_3484" data-name="Path 3484" d="M377.265,382.924c-1.192-7.154-25.337-82.271-25.337-82.271-16.1-10.135-33.087,22.058-31.895,23.251.339.339,1.9,5.731,4.054,13.4l.009-.038c1.148-4.163,11.187-11.285,13.8-12.241,11.7-4.286,20.536,23.821,28.812,66.463C372.945,388.918,377.728,385.7,377.265,382.924Z" transform="translate(-319.974 -298.682)" fill="#b8a691" opacity="0.4" style="mix-blend-mode: multiply;isolation: isolate"/>
            </g>
            <g id="Group_677" data-name="Group 677" transform="translate(96.678 95.532)">
              <path id="Path_3485" data-name="Path 3485" d="M282.037,244.689s12.978,18.206,18.258,15.5,13.115-18.779,16.693-18.482,3.428,12.071-5.067,20.493-22.1,13.937-35.418,5.068-6.315-16.767-6.315-16.767Z" transform="translate(-268.347 -241.704)" fill="#e49477"/>
              <path id="Path_3486" data-name="Path 3486" d="M282.037,244.689s12.978,18.206,18.258,15.5,13.115-18.779,16.693-18.482,3.428,12.071-5.067,20.493-22.1,13.937-35.418,5.068-6.315-16.767-6.315-16.767Z" transform="translate(-268.347 -241.704)" fill="#e49477" opacity="0.4" style="mix-blend-mode: multiply;isolation: isolate"/>
            </g>
            <g id="Group_678" data-name="Group 678" transform="translate(0 60.403)">
              <path id="Path_3487" data-name="Path 3487" d="M163.906,267.736c-4.642-25.415,4.747-43.3,15.7-52.243,12.873-10.508,37.308-16.935,63.269-7.824,16.491,5.788,30.181,33.758,30.181,33.758l-11.849,5.813,12.967,34.429-2.012,43.148S251.488,347,220.51,337.112C178.491,323.7,169.519,298.46,163.906,267.736Z" transform="translate(-162.691 -203.313)" fill="#eee4c0"/>
              <path id="Path_3488" data-name="Path 3488" d="M202.375,243.989s23.622,19,23.548,23.026c0,0-14.158-25.709-19.3-27.5s-15.425,0-15.425,0S199.43,241.576,202.375,243.989Z" transform="translate(-165.113 -206.322)" fill="#eee4c0" opacity="0.4" style="mix-blend-mode: multiply;isolation: isolate"/>
              <path id="Path_3489" data-name="Path 3489" d="M169.178,263.535s17.886,53.879,92.556,29.064c0,0-12.744,23.7-50.973,20.568C186.81,311.206,166.049,287.9,169.178,263.535Z" transform="translate(-163.215 -208.43)" fill="#eee4c0" opacity="0.4" style="mix-blend-mode: multiply;isolation: isolate"/>
            </g>
            <g id="Group_680" data-name="Group 680" transform="translate(33.105 29.835)">
              <g id="Group_679" data-name="Group 679" transform="translate(8.404 22.468)">
                <path id="Path_3490" data-name="Path 3490" d="M222.811,195.514l4.545,12.967s-8.122,9.5-16.059,0l-3.242-11.849S219.122,192.608,222.811,195.514Z" transform="translate(-208.055 -194.46)" fill="#e49477"/>
                <path id="Path_3491" data-name="Path 3491" d="M222.622,201.577a16.5,16.5,0,0,1,1.862-1.289l-1.674-4.774c-3.689-2.906-14.756,1.118-14.756,1.118l3.242,11.849a11.518,11.518,0,0,0,5.281,3.844C217.4,208.192,219.132,204.361,222.622,201.577Z" transform="translate(-208.055 -194.46)" fill="#e49477" opacity="0.4" style="mix-blend-mode: multiply;isolation: isolate"/>
              </g>
              <path id="Path_3492" data-name="Path 3492" d="M225.846,175.584s2.519,10.69-1.8,18.18c-2.069,3.584-5.664,3.241-13.17,2.264-5.928-.772-10.4-3.656-11.645-10.424-1.566-8.5,2.276-14.172,6.632-15.277C215.845,167.792,215.7,177.629,225.846,175.584Z" transform="translate(-198.87 -169.906)" fill="#e49477"/>
            </g>
            <g id="Group_681" data-name="Group 681" transform="translate(124.145 52.277)">
              <path id="Path_3493" data-name="Path 3493" d="M317.75,194.445c.287.081,15.5,3.75,15.5,5.091s-21.4,48.587-22.952,49.569-11.476-9.179-11.924-9.775S314.6,193.56,317.75,194.445Z" transform="translate(-298.365 -194.432)" fill="#748b97"/>
              <path id="Path_3494" data-name="Path 3494" d="M317.855,196.166c.234.068,12.086,3.017,12.086,4.147s-19.778,46-21.263,45.7c-.883-.178-8.252-6.822-8.616-7.324S315.286,195.42,317.855,196.166Z" transform="translate(-298.509 -194.578)" fill="#748b97" style="mix-blend-mode: screen;isolation: isolate"/>
            </g>
            <g id="Group_682" data-name="Group 682" transform="translate(70.516 112.026)">
              <path id="Path_3495" data-name="Path 3495" d="M240.719,344.4c.362,1,40.96,6.006,61.528-13.369s32.193-31.3,36.366-30.7,31.3,45.607,35.473,49.482,21.76-19.077,25.337-29.51c0,0-35.77-51.495-53.953-59.021-11.9-4.926-47.992,1.639-73.627,23.846S236.465,332.63,240.719,344.4Z" transform="translate(-239.755 -259.729)" fill="#b8a691"/>
              <path id="Path_3496" data-name="Path 3496" d="M290.454,333.754c-8.23,2.435-17.258,4.4-25.418.727a17.838,17.838,0,0,1-10.171-20.541c2.127-9.23,9.5-15.784,16.7-21.325,7.6-5.855,15.154-11.187,21.733-18.257,1.353-1.454,2.666-2.944,3.963-4.448a105.236,105.236,0,0,0-25.416,16.076c-25.635,22.208-35.377,47.509-31.123,59.275.362,1,40.959,6.006,61.528-13.369q2.5-2.359,4.825-4.562A110.807,110.807,0,0,1,290.454,333.754Z" transform="translate(-239.755 -260.594)" fill="#b8a691" opacity="0.4" style="mix-blend-mode: multiply;isolation: isolate"/>
              <path id="Path_3497" data-name="Path 3497" d="M366.015,328.04c8.167,12.285,16.618,25.546,18.8,27.57,1.643,1.526,5.369-1.116,9.5-5.508C385.263,342.307,374.876,336.037,366.015,328.04Z" transform="translate(-250.485 -265.534)" fill="#b8a691" opacity="0.4" style="mix-blend-mode: multiply;isolation: isolate"/>
            </g>
            <path id="Path_3498" data-name="Path 3498" d="M428.1,322.525c-2.525,3.526.867,13.689,5.216,17.557,0,0-22.451,24.218-23.416,24.815s1.755,3.655,4.37,1,33.186-30.909,35.741-41.994C450.013,323.9,436.325,311.041,428.1,322.525Z" transform="translate(-183.682 -152.635)" fill="#eee4da"/>
            <path id="Path_3499" data-name="Path 3499" d="M390.986,391.3c-4.271.756-8.95,10.395-8.543,16.2,0,0-32.985,1.621-34.093,1.373s-1.3,3.84,2.426,3.772,45.337,1.1,54.913-5.042C405.689,407.608,404.894,388.84,390.986,391.3Z" transform="translate(-178.408 -158.866)" fill="#eee4da"/>
            <path id="Path_3500" data-name="Path 3500" d="M205.784,138.715c3.539-1.918,12.408-1.043,17.55,2.31s4.694-4.919,11.625-3.578,12.519,4.024,10.507,7.6,2.235,1.118,2.012,6.261-2.46,8.943-5.142,9.836-3.8,2.14-5.365,5.989-14.011,11.673-21.873,4.518-12.109-2.459-13-.894-.671,4.024-3.354,6.93-4.695,4.024-3.13,7.6-8.719,1.941-12.519-4.024c-6.372-1.941-8.086-12.248-1.677-15.314-1.639-4.8-3.12-7.235-1.975-12.557,1.124-5.217,6.415-11.116,11.625-9.092C200.083,147.807,202,140.767,205.784,138.715Z" transform="translate(-163.939 -137.3)" fill="#4b1c15"/>
            <g id="Group_683" data-name="Group 683" transform="translate(18.869 0.719)">
              <path id="Path_3501" data-name="Path 3501" d="M206.684,138.782c-.447-1.67-10.611-.311-13.384,3.8a35.573,35.573,0,0,0-3.271,30.764s6.595-1.509,8.607-2.068C196.309,156.741,200.282,144.631,206.684,138.782Z" transform="translate(-183.707 -138.086)" fill="#afb9b7"/>
              <path id="Path_3502" data-name="Path 3502" d="M209.781,183.028c1.036,7.04-3.073,13.476-9.177,14.374s-11.892-4.081-12.928-11.122,3.073-13.476,9.177-14.375S208.744,175.987,209.781,183.028Z" transform="translate(-183.669 -140.951)" fill="#afb9b7"/>
              <path id="Path_3503" data-name="Path 3503" d="M209.781,183.028c1.036,7.04-3.073,13.476-9.177,14.374s-11.892-4.081-12.928-11.122,3.073-13.476,9.177-14.375S208.744,175.987,209.781,183.028Z" transform="translate(-183.669 -140.951)" fill="#afb9b7" style="mix-blend-mode: multiply;isolation: isolate"/>
              <ellipse id="Ellipse_163" data-name="Ellipse 163" cx="11.171" cy="12.886" rx="11.171" ry="12.886" transform="matrix(0.989, -0.146, 0.146, 0.989, 0, 32.895)" fill="#afb9b7"/>
            </g>
            <path id="Path_3504" data-name="Path 3504" d="M227.764,265.934s-10.058,24.679-14.9,28.213c0,0,39.421,8,62.895-11.893s28.616-32.864,31.746-33.982,15.65-8.718,13.862-19-10.731,7.154-12.967,4.694-3.578-7.824-5.589-2.459-2.012,9.39-5.59,12.3S269.2,277.112,227.764,265.934Z" transform="translate(-166.954 -144.837)" fill="#e49477"/>
          </g>
        </g>
      </g>
    </g>
  </g>
</svg>
