<svg xmlns="http://www.w3.org/2000/svg" width="582.469" height="342.271" viewBox="0 0 582.469 342.271">
  <g id="Group_318" data-name="Group 318" transform="translate(-979.623 -3941.396)">
    <path id="Path_3526" data-name="Path 3526" d="M245.153,65.585c-45.931-.949-88.633,18.888-102.03,56.171-7.919,22.036-6.731,48.434-21.756,66.1-14.864,17.48-40.706,20.265-57.584,35.678-13.306,12.15-19.49,31.264-18.642,49.572s8.115,35.82,18.086,50.992c31.461,47.875,92.191,73.158,147.061,61.224,36.552-7.949,70.69-30.755,107.963-28.182,31.549,2.177,58.889,22.177,88.3,34.139,55.314,22.493,121.153,15.122,170.5-19.089,19.589-13.582,37.028-31.739,45.488-54.466s6.557-50.433-8.7-69.011c-15.492-18.87-43.592-36.357-79.756-30.537-23.687,3.812-70.681,30.639-113.268,23.6-23.672-3.914-80.345-10.61-84.522-98.649C334.58,106.873,307.449,66.871,245.153,65.585Z" transform="translate(934.558 3879.513)" fill="#f3f6ff"/>
    <g id="Group_284" data-name="Group 284" transform="translate(1179.669 4083.155) rotate(-8)">
      <path id="Path_1169" data-name="Path 1169" d="M92.753,82.348c.07,6.941-4.347,13.863-13.281,19.148-17.793,10.493-46.716,10.447-64.636-.123C8.173,97.438,3.985,92.587,2.259,87.5a6.174,6.174,0,0,1-.229-.792l-.07-.305c-.152-.766-.374-1.941-.571-3.623C.761,77.595-1.066,80.8.856,64.1c3.09-27.42,9.982-37.634,14.075-47.244.844-4.1,3.947-8.09,9.258-11.233,12.748-7.532,33.492-7.487,46.317.1a20.729,20.729,0,0,1,8.338,8.227c5.838,6.818,9.639,16.895,12.5,22.726C97.639,49.441,94.9,62.531,92.753,82.348Z" transform="translate(0 13.328)" fill="#5f71bf"/>
      <path id="Path_1170" data-name="Path 1170" d="M.571,3.623A13.824,13.824,0,0,1,0,0C.2,1.682.419,2.857.571,3.623Z" transform="translate(1.389 96.11)" fill="#4f6b7a"/>
      <path id="Path_1171" data-name="Path 1171" d="M2.6,0H0L6.339,8.629,3.167,18.4s3.642,8.577,6.917,9.85,12.012,0,12.012,0l7.729-12.869L27.4,14.415,30.986,2.928,23.65,4.162,3.376,0Z" transform="translate(31.937 3.857)" fill="#5865a5"/>
      <path id="Path_1172" data-name="Path 1172" d="M6.287.935S-2.032-.344.469,5.194s-.52,4.675-.463,8.512,2.545,12.765,9.2,8.506,3.325-3.4,9.982-1.695,13.313-.435,9.982-3.409-2.392-4.259.882-8.519-.945-6.642-4.683-5.24-7.145,3.967-8.535-.714S6.287.935,6.287.935Z" transform="translate(31.881 0)" fill="#8f9edd"/>
      <path id="Path_1173" data-name="Path 1173" d="M3.435,11.628s-6.549-2.24-1.561-7.35S18.721.057,18.721.057,6.563,2.875,5.624,5.817,3.435,11.628,3.435,11.628Z" transform="translate(21.738 32.616)" fill="#5865a5"/>
      <path id="Path_1174" data-name="Path 1174" d="M3.5,0S-3.323,8.616,2.084,9.571,4.191,4.539,3.5,0Z" transform="translate(43.566 37.218)" fill="#5865a5"/>
      <path id="Path_1175" data-name="Path 1175" d="M0,.012S13.1.4,15.287,4.038s0,7.467-2.494,4.6S8.11-.306,0,.012Z" transform="translate(60.74 28.583)" fill="#5865a5"/>
      <path id="Path_1176" data-name="Path 1176" d="M0,.11.514,17.959l1.732.208L3.452,3.623S1.974-.741,0,.11Z" transform="translate(45.244 1.247)" fill="#5865a5"/>
      <path id="Path_1177" data-name="Path 1177" d="M0,5.967,3.433,0S4.41,2.682,5.724,2.987,2.392,6.6,0,5.967Z" transform="translate(54.496 14.337)" fill="#5865a5"/>
      <path id="Path_1178" data-name="Path 1178" d="M0,1.129S1.041-.9,2.075.486,6.859,18.231,6.859,18.231L5.3,19Z" transform="translate(34.64 2.15)" fill="#5865a5"/>
    </g>
    <g id="Group_281" data-name="Group 281" transform="translate(1297.429 4089.379)">
      <path id="Path_1169-2" data-name="Path 1169" d="M172.438,154.468c-.087,8.57,7.2,38.7,18.337,45.231,22.176,12.956,58.223,12.9,80.557-.152,8.3-4.858,13.524-10.847,15.675-17.125a7.563,7.563,0,0,0,.285-.978l.087-.377c.19-.946.467-2.4.712-4.474.783-6.406,3.061-2.445.664-23.073-3.852-33.856-12.44-46.467-17.541-58.332-1.052-5.067-4.919-9.989-11.539-13.87-15.888-9.3-41.742-9.244-57.725.128-5.046,2.926-8.494,6.43-10.392,10.158-7.276,8.418-12.013,20.86-15.58,28.06C168.133,135.426,163.969,148.081,172.438,154.468Z" transform="translate(-167.763 -57.925)" fill="#8a98d3"/>
      <path id="Path_1170-2" data-name="Path 1170" d="M174.3,91.6a16.923,16.923,0,0,0,.712-4.474C174.762,89.206,174.485,90.658,174.3,91.6Z" transform="translate(-54.679 31.539)" fill="#4f6b7a"/>
      <path id="Path_1171-2" data-name="Path 1171" d="M214.492,72.922h3.235l-7.9,10.655,3.954,12.066s-4.54,10.591-8.62,12.162-14.971,0-14.971,0l-9.633-15.89,3.021-1.195-4.468-14.182,9.142,1.523,25.268-5.139Z" transform="translate(-135.471 -68.16)" fill="#7281ce"/>
      <path id="Path_1172-2" data-name="Path 1172" d="M210.183,73.482s10.368-1.579,7.252,5.259.648,5.772.577,10.51c-.055,4.722-3.171,15.762-11.467,10.5s-4.144-4.2-12.44-2.092c-8.3,2.092-16.592-.537-12.44-4.209s2.981-5.259-1.1-10.518c-4.081-5.243,1.178-8.2,5.836-6.47s8.905,4.9,10.637-.882S210.183,73.482,210.183,73.482Z" transform="translate(-135.693 -72.328)" fill="#8f9edd"/>
      <path id="Path_1173-2" data-name="Path 1173" d="M196.554,91.708s8.162-2.766,1.945-9.075c-6.224-6.293-21-5.211-21-5.211s15.153,3.479,16.323,7.111S196.554,91.708,196.554,91.708Z" transform="translate(-116.54 -34.015)" fill="#5865a5"/>
      <path id="Path_1174-2" data-name="Path 1174" d="M182.979,78.06s8.5,10.639,1.764,11.817C177.989,91.072,182.117,83.664,182.979,78.06Z" transform="translate(-119.578 -32.106)" fill="#5865a5"/>
      <path id="Path_1175-2" data-name="Path 1175" d="M203.817,76.745s-16.324.473-19.052,4.971,0,9.22,3.108,5.676S193.71,76.352,203.817,76.745Z" transform="translate(-157.459 -41.438)" fill="#5865a5"/>
      <path id="Path_1176-2" data-name="Path 1176" d="M185.508,72.656l-.641,22.039-2.159.257-1.5-17.958S183.049,71.606,185.508,72.656Z" transform="translate(-119.837 -70.98)" fill="#5865a5"/>
      <path id="Path_1177-2" data-name="Path 1177" d="M190.082,81.9,185.8,74.536s-1.218,3.311-2.855,3.688C181.319,78.585,187.1,82.689,190.082,81.9Z" transform="translate(-135.941 -56.834)" fill="#5865a5"/>
      <path id="Path_1178-2" data-name="Path 1178" d="M188.084,74.053s-1.3-2.509-2.586-.794-5.963,21.911-5.963,21.911l1.938.946Z" transform="translate(-109.197 -70.004)" fill="#5865a5"/>
    </g>
    <g id="Group_279" data-name="Group 279" transform="matrix(0.998, 0.07, -0.07, 0.998, 1136.5, 4088.865)">
      <path id="Path_1169-3" data-name="Path 1169" d="M114.072,97.774c.086,8.241-5.346,16.46-16.334,22.735-21.883,12.458-57.454,12.4-79.493-.147C10.051,115.69,4.9,109.931,2.778,103.895a7.14,7.14,0,0,1-.281-.94l-.086-.362c-.187-.91-.46-2.305-.7-4.3-.773-6.16-3.02-2.351-.656-22.188,3.8-32.557,12.276-44.684,17.31-56.094C19.4,15.137,23.217,10.4,29.749,6.672c15.678-8.943,41.19-8.889,56.962.123,4.979,2.814,8.382,6.183,10.255,9.768,7.18,8.095,11.854,20.06,15.374,26.983C120.081,58.7,116.71,74.244,114.072,97.774Z" transform="translate(0 15.824)" fill="#7d8ed6"/>
      <path id="Path_1170-3" data-name="Path 1170" d="M.7,4.3A15.893,15.893,0,0,1,0,0C.242,2,.515,3.392.7,4.3Z" transform="translate(1.709 114.114)" fill="#4f6b7a"/>
      <path id="Path_1171-3" data-name="Path 1171" d="M3.192,0H0L7.8,10.246l-3.9,11.6s4.48,10.184,8.506,11.7,14.773,0,14.773,0l9.505-15.28L33.7,17.115,38.108,3.477,29.086,4.942,4.152,0Z" transform="translate(39.278 4.579)" fill="#7281ce"/>
      <path id="Path_1172-3" data-name="Path 1172" d="M7.733,1.11S-2.5-.409.576,6.167s-.64,5.551-.57,10.107c.055,4.541,3.129,15.157,11.316,10.1s4.089-4.04,12.276-2.012c8.187,2.012,16.373-.517,12.276-4.047S32.932,15.257,36.959,10.2C40.986,5.158,35.8,2.313,31.2,3.978s-8.787,4.71-10.5-.848S7.733,1.11,7.733,1.11Z" transform="translate(39.209 0)" fill="#8292d4"/>
      <path id="Path_1173-3" data-name="Path 1173" d="M4.224,13.806S-3.83,11.147,2.3,5.079C8.446-.973,23.024.068,23.024.068S8.071,3.414,6.917,6.906,4.224,13.806,4.224,13.806Z" transform="translate(26.734 38.725)" fill="#495698"/>
      <path id="Path_1174-3" data-name="Path 1174" d="M4.3,0s-8.389,10.23-1.74,11.364C9.227,12.512,5.154,5.389,4.3,0Z" transform="translate(53.579 44.19)" fill="#495698"/>
      <path id="Path_1175-3" data-name="Path 1175" d="M0,.014s16.108.455,18.8,4.78,0,8.866-3.067,5.458S9.974-.364,0,.014Z" transform="translate(74.7 33.938)" fill="#495698"/>
      <path id="Path_1176-3" data-name="Path 1176" d="M0,.131.632,21.324l2.13.247L4.246,4.3S2.427-.879,0,.131Z" transform="translate(55.643 1.481)" fill="#495698"/>
      <path id="Path_1177-3" data-name="Path 1177" d="M0,7.085,4.222,0s1.2,3.184,2.817,3.546C8.647,3.893,2.942,7.84,0,7.085Z" transform="translate(67.021 17.022)" fill="#495698"/>
      <path id="Path_1178-3" data-name="Path 1178" d="M0,1.34S1.28-1.073,2.552.577s5.884,21.07,5.884,21.07l-1.912.91Z" transform="translate(42.602 2.553)" fill="#495698"/>
    </g>
    <g id="Group_280" data-name="Group 280" transform="translate(1232.554 4089.379)">
      <path id="Path_1169-4" data-name="Path 1169" d="M172.238,154.468c-.083,8.57,6.894,38.7,17.553,45.231,21.228,12.956,55.735,12.9,77.114-.152,7.949-4.858,12.946-10.847,15-17.125a7.825,7.825,0,0,0,.273-.978l.083-.377c.182-.946.447-2.4.681-4.474.75-6.406,2.93-2.445.636-23.073-3.687-33.856-11.908-46.467-16.792-58.332-1.007-5.067-4.709-9.989-11.045-13.87-15.209-9.3-39.957-9.244-55.258.128-4.83,2.926-8.131,6.43-9.948,10.158-6.965,8.418-11.5,20.86-14.914,28.06C168.117,135.426,164.132,148.081,172.238,154.468Z" transform="translate(-167.763 -57.925)" fill="#adbaf2"/>
      <path id="Path_1170-4" data-name="Path 1170" d="M174.3,91.6a17.619,17.619,0,0,0,.681-4.474C174.742,89.206,174.477,90.658,174.3,91.6Z" transform="translate(-59.792 31.539)" fill="#4f6b7a"/>
      <path id="Path_1171-4" data-name="Path 1171" d="M212.98,72.922h3.1l-7.563,10.655L212.3,95.642s-4.345,10.591-8.252,12.162-14.331,0-14.331,0l-9.221-15.89,2.892-1.195-4.277-14.182,8.752,1.523,24.188-5.139Z" transform="translate(-137.336 -68.16)" fill="#7281ce"/>
      <path id="Path_1172-4" data-name="Path 1172" d="M208.854,73.482s9.925-1.579,6.942,5.259.621,5.772.553,10.51c-.053,4.722-3.036,15.762-10.977,10.5s-3.967-4.2-11.909-2.092c-7.942,2.092-15.883-.537-11.909-4.209s2.854-5.259-1.052-10.518c-3.906-5.243,1.128-8.2,5.587-6.47s8.524,4.9,10.182-.882S208.854,73.482,208.854,73.482Z" transform="translate(-137.549 -72.328)" fill="#abb8ef"/>
      <path id="Path_1173-4" data-name="Path 1173" d="M195.739,91.708s7.813-2.766,1.862-9.075c-5.958-6.293-20.1-5.211-20.1-5.211s14.505,3.479,15.626,7.111S195.739,91.708,195.739,91.708Z" transform="translate(-119.146 -34.015)" fill="#7281ce"/>
      <path id="Path_1174-4" data-name="Path 1174" d="M182.892,78.06s8.138,10.639,1.688,11.817C178.115,91.072,182.067,83.664,182.892,78.06Z" transform="translate(-122.201 -32.106)" fill="#7281ce"/>
      <path id="Path_1175-4" data-name="Path 1175" d="M202.955,76.745s-15.626.473-18.238,4.971,0,9.22,2.975,5.676S193.28,76.352,202.955,76.745Z" transform="translate(-158.578 -41.438)" fill="#7281ce"/>
      <path id="Path_1176-4" data-name="Path 1176" d="M185.325,72.656l-.613,22.039-2.067.257-1.438-17.958S182.97,71.606,185.325,72.656Z" transform="translate(-122.46 -70.98)" fill="#7281ce"/>
      <path id="Path_1177-4" data-name="Path 1177" d="M189.765,81.9l-4.1-7.368s-1.166,3.311-2.733,3.688C181.376,78.585,186.91,82.689,189.765,81.9Z" transform="translate(-137.938 -56.834)" fill="#7281ce"/>
      <path id="Path_1178-4" data-name="Path 1178" d="M187.719,74.053s-1.241-2.509-2.476-.794-5.708,21.911-5.708,21.911l1.855.946Z" transform="translate(-112.204 -70.004)" fill="#7281ce"/>
    </g>
    <path id="Path_3530" data-name="Path 3530" d="M525.31,71.829c2.758,5.405,9.2,8.36,15.252,7.887s11.592-3.951,15.528-8.57c3.438-4.034,5.854-9.6,4.147-14.614-2.006-5.893-9.11-8.753-15.286-7.98C534.819,49.823,519.026,59.514,525.31,71.829Z" transform="translate(909.868 3892.968)" fill="#e9ecff"/>
    <path id="Path_3531" data-name="Path 3531" d="M138.789,49.095a10.1,10.1,0,0,0-7.161,9c-.24,3.958,1.739,7.912,4.7,10.951,2.583,2.654,6.367,4.812,10.153,4.248,4.448-.662,7.2-4.944,7.23-9.017C153.765,57.6,148.285,46.36,138.789,49.095Z" transform="translate(943.203 3892.947)" fill="#e9ecff"/>
    <path id="Path_3532" data-name="Path 3532" d="M271.644,92.535a10.1,10.1,0,0,0-7.161,9c-.241,3.958,1.739,7.912,4.7,10.95,2.582,2.654,6.366,4.812,10.153,4.248,4.447-.662,7.2-4.944,7.23-9.016C286.619,101.04,281.14,89.8,271.644,92.535Z" transform="translate(931.913 3889.255)" fill="#e9ecff" style="mix-blend-mode: multiply;isolation: isolate"/>
  </g>
</svg>
